G04 #@! TF.FileFunction,Copper,L3,Inr,Plane*
%FSLAX46Y46*%
G04 Gerber Fmt 4.6, Leading zero omitted, Abs format (unit mm)*
G04 Created by KiCad (PCBNEW 4.0.6) date 12/06/17 20:22:11*
%MOMM*%
%LPD*%
G01*
G04 APERTURE LIST*
%ADD10C,0.100000*%
%ADD11C,1.600000*%
%ADD12C,2.500000*%
%ADD13C,0.609600*%
%ADD14C,0.254000*%
G04 APERTURE END LIST*
D10*
D11*
X160434173Y-101788417D03*
X157894173Y-100518417D03*
X160434173Y-99248417D03*
X157894173Y-97978417D03*
X160434173Y-96708417D03*
X157894173Y-95438417D03*
X160434173Y-94168417D03*
X157894173Y-92898417D03*
D12*
X169834173Y-89593417D03*
X169834173Y-105093417D03*
D13*
X129794000Y-110236000D03*
X130810000Y-101346000D03*
X130810000Y-102362000D03*
X130048000Y-105156000D03*
X130810000Y-110744000D03*
X135890000Y-105156000D03*
X133604000Y-104902000D03*
X134366000Y-87884000D03*
X130048000Y-92456000D03*
X130048000Y-91440000D03*
X129540000Y-87122000D03*
X131318000Y-86614000D03*
X136017000Y-95758000D03*
X131572000Y-97028000D03*
X129794000Y-96266000D03*
X125730000Y-93853000D03*
X126238000Y-94615000D03*
X126111000Y-95377000D03*
X125984000Y-96139000D03*
X116332000Y-98044000D03*
X117475000Y-100330000D03*
X116840000Y-100965000D03*
X115570000Y-102235000D03*
X123190000Y-99060000D03*
X125730000Y-102870000D03*
X124460000Y-102870000D03*
X124460000Y-104775000D03*
X121285000Y-106045000D03*
X120015000Y-106045000D03*
X142240000Y-102235000D03*
X140970000Y-91440000D03*
X144145000Y-91440000D03*
X147320000Y-86995000D03*
X138430000Y-112395000D03*
X141224000Y-93980000D03*
X142875000Y-106680000D03*
X134620000Y-80010000D03*
X127635000Y-80010000D03*
X126365000Y-80645000D03*
X139065000Y-83185000D03*
X134645199Y-95631000D03*
X134620000Y-105156000D03*
X137414000Y-105156000D03*
X136906000Y-86614000D03*
X134620000Y-86360000D03*
X137414000Y-95758000D03*
X140970000Y-86995000D03*
X142494000Y-93980000D03*
X140335000Y-105410000D03*
X154432000Y-98044000D03*
X139700000Y-81915000D03*
X140335000Y-99695000D03*
X136385301Y-103644699D03*
X138176000Y-110744000D03*
X135890000Y-93599000D03*
X138303000Y-100457000D03*
X137541000Y-90932000D03*
X128524000Y-105410000D03*
X127508000Y-87122000D03*
X128016000Y-96520000D03*
X115315999Y-95885000D03*
X115570000Y-103505000D03*
X125730000Y-84455000D03*
X155575000Y-85090000D03*
X154305000Y-88900000D03*
X151130000Y-90805000D03*
X151130000Y-103505000D03*
X152400000Y-103505000D03*
X156210000Y-107315000D03*
X165735000Y-110490000D03*
X165735000Y-107950000D03*
X160020000Y-111125000D03*
D14*
G36*
X132207001Y-114807561D02*
X132216836Y-114857005D01*
X132245132Y-114898728D01*
X132287432Y-114926154D01*
X132334000Y-114935000D01*
X132969000Y-114935000D01*
X133018410Y-114924994D01*
X133060035Y-114896553D01*
X133087315Y-114854159D01*
X133095999Y-114808439D01*
X133109418Y-110930118D01*
X137236037Y-110930118D01*
X137378812Y-111275659D01*
X137642951Y-111540259D01*
X137988242Y-111683637D01*
X138362118Y-111683963D01*
X138707659Y-111541188D01*
X138938130Y-111311118D01*
X159080037Y-111311118D01*
X159222812Y-111656659D01*
X159486951Y-111921259D01*
X159832242Y-112064637D01*
X160206118Y-112064963D01*
X160551659Y-111922188D01*
X160816259Y-111658049D01*
X160959637Y-111312758D01*
X160959963Y-110938882D01*
X160851391Y-110676118D01*
X164795037Y-110676118D01*
X164937812Y-111021659D01*
X165201951Y-111286259D01*
X165547242Y-111429637D01*
X165921118Y-111429963D01*
X166266659Y-111287188D01*
X166531259Y-111023049D01*
X166674637Y-110677758D01*
X166674963Y-110303882D01*
X166532188Y-109958341D01*
X166268049Y-109693741D01*
X165922758Y-109550363D01*
X165548882Y-109550037D01*
X165203341Y-109692812D01*
X164938741Y-109956951D01*
X164795363Y-110302242D01*
X164795037Y-110676118D01*
X160851391Y-110676118D01*
X160817188Y-110593341D01*
X160553049Y-110328741D01*
X160207758Y-110185363D01*
X159833882Y-110185037D01*
X159488341Y-110327812D01*
X159223741Y-110591951D01*
X159080363Y-110937242D01*
X159080037Y-111311118D01*
X138938130Y-111311118D01*
X138972259Y-111277049D01*
X139115637Y-110931758D01*
X139115963Y-110557882D01*
X138973188Y-110212341D01*
X138709049Y-109947741D01*
X138363758Y-109804363D01*
X137989882Y-109804037D01*
X137644341Y-109946812D01*
X137379741Y-110210951D01*
X137236363Y-110556242D01*
X137236037Y-110930118D01*
X133109418Y-110930118D01*
X133121283Y-107501118D01*
X155270037Y-107501118D01*
X155412812Y-107846659D01*
X155676951Y-108111259D01*
X156022242Y-108254637D01*
X156396118Y-108254963D01*
X156683744Y-108136118D01*
X164795037Y-108136118D01*
X164937812Y-108481659D01*
X165201951Y-108746259D01*
X165547242Y-108889637D01*
X165921118Y-108889963D01*
X166266659Y-108747188D01*
X166531259Y-108483049D01*
X166674637Y-108137758D01*
X166674963Y-107763882D01*
X166532188Y-107418341D01*
X166268049Y-107153741D01*
X165922758Y-107010363D01*
X165548882Y-107010037D01*
X165203341Y-107152812D01*
X164938741Y-107416951D01*
X164795363Y-107762242D01*
X164795037Y-108136118D01*
X156683744Y-108136118D01*
X156741659Y-108112188D01*
X157006259Y-107848049D01*
X157149637Y-107502758D01*
X157149963Y-107128882D01*
X157007188Y-106783341D01*
X156743049Y-106518741D01*
X156397758Y-106375363D01*
X156023882Y-106375037D01*
X155678341Y-106517812D01*
X155413741Y-106781951D01*
X155270363Y-107127242D01*
X155270037Y-107501118D01*
X133121283Y-107501118D01*
X133128754Y-105342118D01*
X133680037Y-105342118D01*
X133822812Y-105687659D01*
X134086951Y-105952259D01*
X134432242Y-106095637D01*
X134806118Y-106095963D01*
X135151659Y-105953188D01*
X135416259Y-105689049D01*
X135559637Y-105343758D01*
X135559963Y-104969882D01*
X135417188Y-104624341D01*
X135153049Y-104359741D01*
X134807758Y-104216363D01*
X134433882Y-104216037D01*
X134088341Y-104358812D01*
X133823741Y-104622951D01*
X133680363Y-104968242D01*
X133680037Y-105342118D01*
X133128754Y-105342118D01*
X133133983Y-103830817D01*
X135445338Y-103830817D01*
X135588113Y-104176358D01*
X135852252Y-104440958D01*
X136197543Y-104584336D01*
X136571419Y-104584662D01*
X136715899Y-104524964D01*
X136617741Y-104622951D01*
X136474363Y-104968242D01*
X136474037Y-105342118D01*
X136616812Y-105687659D01*
X136880951Y-105952259D01*
X137226242Y-106095637D01*
X137600118Y-106095963D01*
X137945659Y-105953188D01*
X138210259Y-105689049D01*
X138248847Y-105596118D01*
X139395037Y-105596118D01*
X139537812Y-105941659D01*
X139801951Y-106206259D01*
X140147242Y-106349637D01*
X140521118Y-106349963D01*
X140866659Y-106207188D01*
X141131259Y-105943049D01*
X141274637Y-105597758D01*
X141274963Y-105223882D01*
X141132188Y-104878341D01*
X140868049Y-104613741D01*
X140522758Y-104470363D01*
X140148882Y-104470037D01*
X139803341Y-104612812D01*
X139538741Y-104876951D01*
X139395363Y-105222242D01*
X139395037Y-105596118D01*
X138248847Y-105596118D01*
X138353637Y-105343758D01*
X138353963Y-104969882D01*
X138211188Y-104624341D01*
X137947049Y-104359741D01*
X137601758Y-104216363D01*
X137227882Y-104216037D01*
X137083402Y-104275735D01*
X137181560Y-104177748D01*
X137324938Y-103832457D01*
X137325061Y-103691118D01*
X150190037Y-103691118D01*
X150332812Y-104036659D01*
X150596951Y-104301259D01*
X150942242Y-104444637D01*
X151316118Y-104444963D01*
X151661659Y-104302188D01*
X151764948Y-104199078D01*
X151866951Y-104301259D01*
X152212242Y-104444637D01*
X152586118Y-104444963D01*
X152931659Y-104302188D01*
X153196259Y-104038049D01*
X153339637Y-103692758D01*
X153339804Y-103501036D01*
X164548786Y-103501036D01*
X164888328Y-104322789D01*
X165516494Y-104952053D01*
X166337654Y-105293028D01*
X167226792Y-105293804D01*
X167949258Y-104995287D01*
X167948847Y-105466722D01*
X168235216Y-106159789D01*
X168765012Y-106690510D01*
X169457578Y-106978089D01*
X170207478Y-106978743D01*
X170900545Y-106692374D01*
X171431266Y-106162578D01*
X171718845Y-105470012D01*
X171719499Y-104720112D01*
X171433130Y-104027045D01*
X170903334Y-103496324D01*
X170210768Y-103208745D01*
X169460868Y-103208091D01*
X169018884Y-103390715D01*
X169019560Y-102615798D01*
X168680018Y-101794045D01*
X168051852Y-101164781D01*
X167230692Y-100823806D01*
X166341554Y-100823030D01*
X165519801Y-101162572D01*
X164890537Y-101790738D01*
X164549562Y-102611898D01*
X164548786Y-103501036D01*
X153339804Y-103501036D01*
X153339963Y-103318882D01*
X153197188Y-102973341D01*
X152933049Y-102708741D01*
X152587758Y-102565363D01*
X152213882Y-102565037D01*
X151868341Y-102707812D01*
X151765052Y-102810922D01*
X151663049Y-102708741D01*
X151317758Y-102565363D01*
X150943882Y-102565037D01*
X150598341Y-102707812D01*
X150333741Y-102971951D01*
X150190363Y-103317242D01*
X150190037Y-103691118D01*
X137325061Y-103691118D01*
X137325264Y-103458581D01*
X137182489Y-103113040D01*
X136918350Y-102848440D01*
X136573059Y-102705062D01*
X136199183Y-102704736D01*
X135853642Y-102847511D01*
X135589042Y-103111650D01*
X135445664Y-103456941D01*
X135445338Y-103830817D01*
X133133983Y-103830817D01*
X133145013Y-100643118D01*
X137363037Y-100643118D01*
X137505812Y-100988659D01*
X137769951Y-101253259D01*
X138115242Y-101396637D01*
X138489118Y-101396963D01*
X138834659Y-101254188D01*
X139099259Y-100990049D01*
X139242637Y-100644758D01*
X139242963Y-100270882D01*
X139100188Y-99925341D01*
X139056043Y-99881118D01*
X139395037Y-99881118D01*
X139537812Y-100226659D01*
X139801951Y-100491259D01*
X140147242Y-100634637D01*
X140521118Y-100634963D01*
X140866659Y-100492188D01*
X141131259Y-100228049D01*
X141274637Y-99882758D01*
X141274963Y-99508882D01*
X141132188Y-99163341D01*
X140868049Y-98898741D01*
X140522758Y-98755363D01*
X140148882Y-98755037D01*
X139803341Y-98897812D01*
X139538741Y-99161951D01*
X139395363Y-99507242D01*
X139395037Y-99881118D01*
X139056043Y-99881118D01*
X138836049Y-99660741D01*
X138490758Y-99517363D01*
X138116882Y-99517037D01*
X137771341Y-99659812D01*
X137506741Y-99923951D01*
X137363363Y-100269242D01*
X137363037Y-100643118D01*
X133145013Y-100643118D01*
X133153362Y-98230118D01*
X153492037Y-98230118D01*
X153634812Y-98575659D01*
X153898951Y-98840259D01*
X154244242Y-98983637D01*
X154618118Y-98983963D01*
X154963659Y-98841188D01*
X155228259Y-98577049D01*
X155371637Y-98231758D01*
X155371963Y-97857882D01*
X155229188Y-97512341D01*
X154965049Y-97247741D01*
X154619758Y-97104363D01*
X154245882Y-97104037D01*
X153900341Y-97246812D01*
X153635741Y-97510951D01*
X153492363Y-97856242D01*
X153492037Y-98230118D01*
X133153362Y-98230118D01*
X133161712Y-95817118D01*
X133705236Y-95817118D01*
X133848011Y-96162659D01*
X134112150Y-96427259D01*
X134457441Y-96570637D01*
X134831317Y-96570963D01*
X135176858Y-96428188D01*
X135441458Y-96164049D01*
X135532781Y-95944118D01*
X136474037Y-95944118D01*
X136616812Y-96289659D01*
X136880951Y-96554259D01*
X137226242Y-96697637D01*
X137600118Y-96697963D01*
X137945659Y-96555188D01*
X138210259Y-96291049D01*
X138353637Y-95945758D01*
X138353963Y-95571882D01*
X138211188Y-95226341D01*
X138206496Y-95221640D01*
X156447208Y-95221640D01*
X156474395Y-95791871D01*
X156640309Y-96192422D01*
X156886428Y-96266556D01*
X157714568Y-95438417D01*
X156886428Y-94610278D01*
X156640309Y-94684412D01*
X156447208Y-95221640D01*
X138206496Y-95221640D01*
X137947049Y-94961741D01*
X137601758Y-94818363D01*
X137227882Y-94818037D01*
X136882341Y-94960812D01*
X136617741Y-95224951D01*
X136474363Y-95570242D01*
X136474037Y-95944118D01*
X135532781Y-95944118D01*
X135584836Y-95818758D01*
X135585162Y-95444882D01*
X135442387Y-95099341D01*
X135178248Y-94834741D01*
X134832957Y-94691363D01*
X134459081Y-94691037D01*
X134113540Y-94833812D01*
X133848940Y-95097951D01*
X133705562Y-95443242D01*
X133705236Y-95817118D01*
X133161712Y-95817118D01*
X133168743Y-93785118D01*
X134950037Y-93785118D01*
X135092812Y-94130659D01*
X135356951Y-94395259D01*
X135702242Y-94538637D01*
X136076118Y-94538963D01*
X136421659Y-94396188D01*
X136652130Y-94166118D01*
X141554037Y-94166118D01*
X141696812Y-94511659D01*
X141960951Y-94776259D01*
X142306242Y-94919637D01*
X142680118Y-94919963D01*
X143025659Y-94777188D01*
X143290259Y-94513049D01*
X143433637Y-94167758D01*
X143433963Y-93793882D01*
X143291188Y-93448341D01*
X143027049Y-93183741D01*
X143024311Y-93182604D01*
X156458925Y-93182604D01*
X156676930Y-93710217D01*
X157080250Y-94114241D01*
X157194941Y-94161865D01*
X157140168Y-94184553D01*
X157066034Y-94430672D01*
X157894173Y-95258812D01*
X158722312Y-94430672D01*
X158648178Y-94184553D01*
X158589919Y-94163612D01*
X158705973Y-94115660D01*
X159041270Y-93780947D01*
X158999423Y-93881726D01*
X158998925Y-94452604D01*
X159087125Y-94666065D01*
X158901918Y-94610278D01*
X158073778Y-95438417D01*
X158901918Y-96266556D01*
X159087005Y-96210806D01*
X158999423Y-96421726D01*
X158998925Y-96992604D01*
X159042160Y-97097240D01*
X158708096Y-96762593D01*
X158593405Y-96714969D01*
X158648178Y-96692281D01*
X158722312Y-96446162D01*
X157894173Y-95618022D01*
X157066034Y-96446162D01*
X157140168Y-96692281D01*
X157198427Y-96713222D01*
X157082373Y-96761174D01*
X156678349Y-97164494D01*
X156459423Y-97691726D01*
X156458925Y-98262604D01*
X156676930Y-98790217D01*
X157080250Y-99194241D01*
X157210388Y-99248279D01*
X157082373Y-99301174D01*
X156678349Y-99704494D01*
X156459423Y-100231726D01*
X156458925Y-100802604D01*
X156676930Y-101330217D01*
X157080250Y-101734241D01*
X157607482Y-101953167D01*
X158178360Y-101953665D01*
X158705973Y-101735660D01*
X159041270Y-101400947D01*
X158999423Y-101501726D01*
X158998925Y-102072604D01*
X159216930Y-102600217D01*
X159620250Y-103004241D01*
X160147482Y-103223167D01*
X160718360Y-103223665D01*
X161245973Y-103005660D01*
X161649997Y-102602340D01*
X161868923Y-102075108D01*
X161869421Y-101504230D01*
X161651416Y-100976617D01*
X161248096Y-100572593D01*
X161117958Y-100518555D01*
X161245973Y-100465660D01*
X161649997Y-100062340D01*
X161868923Y-99535108D01*
X161869421Y-98964230D01*
X161651416Y-98436617D01*
X161248096Y-98032593D01*
X161117958Y-97978555D01*
X161245973Y-97925660D01*
X161649997Y-97522340D01*
X161868923Y-96995108D01*
X161869421Y-96424230D01*
X161651416Y-95896617D01*
X161248096Y-95492593D01*
X161117958Y-95438555D01*
X161245973Y-95385660D01*
X161649997Y-94982340D01*
X161868923Y-94455108D01*
X161869421Y-93884230D01*
X161651416Y-93356617D01*
X161248096Y-92952593D01*
X160720864Y-92733667D01*
X160149986Y-92733169D01*
X159622373Y-92951174D01*
X159287076Y-93285887D01*
X159328923Y-93185108D01*
X159329421Y-92614230D01*
X159111416Y-92086617D01*
X159095863Y-92071036D01*
X164548786Y-92071036D01*
X164888328Y-92892789D01*
X165516494Y-93522053D01*
X166337654Y-93863028D01*
X167226792Y-93863804D01*
X168048545Y-93524262D01*
X168677809Y-92896096D01*
X169018784Y-92074936D01*
X169019464Y-91296168D01*
X169457578Y-91478089D01*
X170207478Y-91478743D01*
X170900545Y-91192374D01*
X171431266Y-90662578D01*
X171718845Y-89970012D01*
X171719499Y-89220112D01*
X171433130Y-88527045D01*
X170903334Y-87996324D01*
X170210768Y-87708745D01*
X169460868Y-87708091D01*
X168767801Y-87994460D01*
X168237080Y-88524256D01*
X167949501Y-89216822D01*
X167949086Y-89692109D01*
X167230692Y-89393806D01*
X166341554Y-89393030D01*
X165519801Y-89732572D01*
X164890537Y-90360738D01*
X164549562Y-91181898D01*
X164548786Y-92071036D01*
X159095863Y-92071036D01*
X158708096Y-91682593D01*
X158180864Y-91463667D01*
X157609986Y-91463169D01*
X157082373Y-91681174D01*
X156678349Y-92084494D01*
X156459423Y-92611726D01*
X156458925Y-93182604D01*
X143024311Y-93182604D01*
X142681758Y-93040363D01*
X142307882Y-93040037D01*
X141962341Y-93182812D01*
X141697741Y-93446951D01*
X141554363Y-93792242D01*
X141554037Y-94166118D01*
X136652130Y-94166118D01*
X136686259Y-94132049D01*
X136829637Y-93786758D01*
X136829963Y-93412882D01*
X136687188Y-93067341D01*
X136423049Y-92802741D01*
X136077758Y-92659363D01*
X135703882Y-92659037D01*
X135358341Y-92801812D01*
X135093741Y-93065951D01*
X134950363Y-93411242D01*
X134950037Y-93785118D01*
X133168743Y-93785118D01*
X133177971Y-91118118D01*
X136601037Y-91118118D01*
X136743812Y-91463659D01*
X137007951Y-91728259D01*
X137353242Y-91871637D01*
X137727118Y-91871963D01*
X138072659Y-91729188D01*
X138337259Y-91465049D01*
X138480637Y-91119758D01*
X138480749Y-90991118D01*
X150190037Y-90991118D01*
X150332812Y-91336659D01*
X150596951Y-91601259D01*
X150942242Y-91744637D01*
X151316118Y-91744963D01*
X151661659Y-91602188D01*
X151926259Y-91338049D01*
X152069637Y-90992758D01*
X152069963Y-90618882D01*
X151927188Y-90273341D01*
X151663049Y-90008741D01*
X151317758Y-89865363D01*
X150943882Y-89865037D01*
X150598341Y-90007812D01*
X150333741Y-90271951D01*
X150190363Y-90617242D01*
X150190037Y-90991118D01*
X138480749Y-90991118D01*
X138480963Y-90745882D01*
X138338188Y-90400341D01*
X138074049Y-90135741D01*
X137728758Y-89992363D01*
X137354882Y-89992037D01*
X137009341Y-90134812D01*
X136744741Y-90398951D01*
X136601363Y-90744242D01*
X136601037Y-91118118D01*
X133177971Y-91118118D01*
X133185002Y-89086118D01*
X153365037Y-89086118D01*
X153507812Y-89431659D01*
X153771951Y-89696259D01*
X154117242Y-89839637D01*
X154491118Y-89839963D01*
X154836659Y-89697188D01*
X155101259Y-89433049D01*
X155244637Y-89087758D01*
X155244963Y-88713882D01*
X155102188Y-88368341D01*
X154838049Y-88103741D01*
X154492758Y-87960363D01*
X154118882Y-87960037D01*
X153773341Y-88102812D01*
X153508741Y-88366951D01*
X153365363Y-88712242D01*
X153365037Y-89086118D01*
X133185002Y-89086118D01*
X133193792Y-86546118D01*
X133680037Y-86546118D01*
X133822812Y-86891659D01*
X134086951Y-87156259D01*
X134432242Y-87299637D01*
X134806118Y-87299963D01*
X135151659Y-87157188D01*
X135416259Y-86893049D01*
X135454847Y-86800118D01*
X135966037Y-86800118D01*
X136108812Y-87145659D01*
X136372951Y-87410259D01*
X136718242Y-87553637D01*
X137092118Y-87553963D01*
X137437659Y-87411188D01*
X137668130Y-87181118D01*
X140030037Y-87181118D01*
X140172812Y-87526659D01*
X140436951Y-87791259D01*
X140782242Y-87934637D01*
X141156118Y-87934963D01*
X141501659Y-87792188D01*
X141766259Y-87528049D01*
X141909637Y-87182758D01*
X141909963Y-86808882D01*
X141767188Y-86463341D01*
X141503049Y-86198741D01*
X141157758Y-86055363D01*
X140783882Y-86055037D01*
X140438341Y-86197812D01*
X140173741Y-86461951D01*
X140030363Y-86807242D01*
X140030037Y-87181118D01*
X137668130Y-87181118D01*
X137702259Y-87147049D01*
X137845637Y-86801758D01*
X137845963Y-86427882D01*
X137703188Y-86082341D01*
X137439049Y-85817741D01*
X137093758Y-85674363D01*
X136719882Y-85674037D01*
X136374341Y-85816812D01*
X136109741Y-86080951D01*
X135966363Y-86426242D01*
X135966037Y-86800118D01*
X135454847Y-86800118D01*
X135559637Y-86547758D01*
X135559963Y-86173882D01*
X135417188Y-85828341D01*
X135153049Y-85563741D01*
X134807758Y-85420363D01*
X134433882Y-85420037D01*
X134088341Y-85562812D01*
X133823741Y-85826951D01*
X133680363Y-86172242D01*
X133680037Y-86546118D01*
X133193792Y-86546118D01*
X133198186Y-85276118D01*
X154635037Y-85276118D01*
X154777812Y-85621659D01*
X155041951Y-85886259D01*
X155387242Y-86029637D01*
X155761118Y-86029963D01*
X156106659Y-85887188D01*
X156371259Y-85623049D01*
X156514637Y-85277758D01*
X156514963Y-84903882D01*
X156372188Y-84558341D01*
X156108049Y-84293741D01*
X155762758Y-84150363D01*
X155388882Y-84150037D01*
X155043341Y-84292812D01*
X154778741Y-84556951D01*
X154635363Y-84902242D01*
X154635037Y-85276118D01*
X133198186Y-85276118D01*
X133202791Y-83945119D01*
X165150613Y-83945119D01*
X165490155Y-84766872D01*
X166118321Y-85396136D01*
X166939481Y-85737111D01*
X167828619Y-85737887D01*
X168650372Y-85398345D01*
X169279636Y-84770179D01*
X169620611Y-83949019D01*
X169621387Y-83059881D01*
X169281845Y-82238128D01*
X168653679Y-81608864D01*
X167832519Y-81267889D01*
X166943381Y-81267113D01*
X166121628Y-81606655D01*
X165492364Y-82234821D01*
X165151389Y-83055981D01*
X165150613Y-83945119D01*
X133202791Y-83945119D01*
X133209173Y-82101118D01*
X138760037Y-82101118D01*
X138902812Y-82446659D01*
X139166951Y-82711259D01*
X139512242Y-82854637D01*
X139886118Y-82854963D01*
X140231659Y-82712188D01*
X140496259Y-82448049D01*
X140639637Y-82102758D01*
X140639963Y-81728882D01*
X140497188Y-81383341D01*
X140233049Y-81118741D01*
X139887758Y-80975363D01*
X139513882Y-80975037D01*
X139168341Y-81117812D01*
X138903741Y-81381951D01*
X138760363Y-81727242D01*
X138760037Y-82101118D01*
X133209173Y-82101118D01*
X133220544Y-78815000D01*
X175566000Y-78815000D01*
X175566000Y-118670000D01*
X113486000Y-118670000D01*
X113486000Y-115377619D01*
X117525613Y-115377619D01*
X117865155Y-116199372D01*
X118493321Y-116828636D01*
X119314481Y-117169611D01*
X120203619Y-117170387D01*
X121025372Y-116830845D01*
X121654636Y-116202679D01*
X121995611Y-115381519D01*
X121996387Y-114492381D01*
X121656845Y-113670628D01*
X121028679Y-113041364D01*
X120207519Y-112700389D01*
X119318381Y-112699613D01*
X118496628Y-113039155D01*
X117867364Y-113667321D01*
X117526389Y-114488481D01*
X117525613Y-115377619D01*
X113486000Y-115377619D01*
X113486000Y-105596118D01*
X127584037Y-105596118D01*
X127726812Y-105941659D01*
X127990951Y-106206259D01*
X128336242Y-106349637D01*
X128710118Y-106349963D01*
X129055659Y-106207188D01*
X129320259Y-105943049D01*
X129463637Y-105597758D01*
X129463963Y-105223882D01*
X129321188Y-104878341D01*
X129057049Y-104613741D01*
X128711758Y-104470363D01*
X128337882Y-104470037D01*
X127992341Y-104612812D01*
X127727741Y-104876951D01*
X127584363Y-105222242D01*
X127584037Y-105596118D01*
X113486000Y-105596118D01*
X113486000Y-103691118D01*
X114630037Y-103691118D01*
X114772812Y-104036659D01*
X115036951Y-104301259D01*
X115382242Y-104444637D01*
X115756118Y-104444963D01*
X116101659Y-104302188D01*
X116366259Y-104038049D01*
X116509637Y-103692758D01*
X116509963Y-103318882D01*
X116367188Y-102973341D01*
X116103049Y-102708741D01*
X115757758Y-102565363D01*
X115383882Y-102565037D01*
X115038341Y-102707812D01*
X114773741Y-102971951D01*
X114630363Y-103317242D01*
X114630037Y-103691118D01*
X113486000Y-103691118D01*
X113486000Y-96071118D01*
X114376036Y-96071118D01*
X114518811Y-96416659D01*
X114782950Y-96681259D01*
X115128241Y-96824637D01*
X115502117Y-96824963D01*
X115789743Y-96706118D01*
X127076037Y-96706118D01*
X127218812Y-97051659D01*
X127482951Y-97316259D01*
X127828242Y-97459637D01*
X128202118Y-97459963D01*
X128547659Y-97317188D01*
X128812259Y-97053049D01*
X128955637Y-96707758D01*
X128955963Y-96333882D01*
X128813188Y-95988341D01*
X128549049Y-95723741D01*
X128203758Y-95580363D01*
X127829882Y-95580037D01*
X127484341Y-95722812D01*
X127219741Y-95986951D01*
X127076363Y-96332242D01*
X127076037Y-96706118D01*
X115789743Y-96706118D01*
X115847658Y-96682188D01*
X116112258Y-96418049D01*
X116255636Y-96072758D01*
X116255962Y-95698882D01*
X116113187Y-95353341D01*
X115849048Y-95088741D01*
X115503757Y-94945363D01*
X115129881Y-94945037D01*
X114784340Y-95087812D01*
X114519740Y-95351951D01*
X114376362Y-95697242D01*
X114376036Y-96071118D01*
X113486000Y-96071118D01*
X113486000Y-87308118D01*
X126568037Y-87308118D01*
X126710812Y-87653659D01*
X126974951Y-87918259D01*
X127320242Y-88061637D01*
X127694118Y-88061963D01*
X128039659Y-87919188D01*
X128304259Y-87655049D01*
X128447637Y-87309758D01*
X128447963Y-86935882D01*
X128305188Y-86590341D01*
X128041049Y-86325741D01*
X127695758Y-86182363D01*
X127321882Y-86182037D01*
X126976341Y-86324812D01*
X126711741Y-86588951D01*
X126568363Y-86934242D01*
X126568037Y-87308118D01*
X113486000Y-87308118D01*
X113486000Y-83945119D01*
X117525613Y-83945119D01*
X117865155Y-84766872D01*
X118493321Y-85396136D01*
X119314481Y-85737111D01*
X120203619Y-85737887D01*
X121025372Y-85398345D01*
X121654636Y-84770179D01*
X121708226Y-84641118D01*
X124790037Y-84641118D01*
X124932812Y-84986659D01*
X125196951Y-85251259D01*
X125542242Y-85394637D01*
X125916118Y-85394963D01*
X126261659Y-85252188D01*
X126526259Y-84988049D01*
X126669637Y-84642758D01*
X126669963Y-84268882D01*
X126527188Y-83923341D01*
X126263049Y-83658741D01*
X125917758Y-83515363D01*
X125543882Y-83515037D01*
X125198341Y-83657812D01*
X124933741Y-83921951D01*
X124790363Y-84267242D01*
X124790037Y-84641118D01*
X121708226Y-84641118D01*
X121995611Y-83949019D01*
X121996387Y-83059881D01*
X121656845Y-82238128D01*
X121028679Y-81608864D01*
X120207519Y-81267889D01*
X119318381Y-81267113D01*
X118496628Y-81606655D01*
X117867364Y-82234821D01*
X117526389Y-83055981D01*
X117525613Y-83945119D01*
X113486000Y-83945119D01*
X113486000Y-78815000D01*
X132331543Y-78815000D01*
X132207001Y-114807561D01*
X132207001Y-114807561D01*
G37*
X132207001Y-114807561D02*
X132216836Y-114857005D01*
X132245132Y-114898728D01*
X132287432Y-114926154D01*
X132334000Y-114935000D01*
X132969000Y-114935000D01*
X133018410Y-114924994D01*
X133060035Y-114896553D01*
X133087315Y-114854159D01*
X133095999Y-114808439D01*
X133109418Y-110930118D01*
X137236037Y-110930118D01*
X137378812Y-111275659D01*
X137642951Y-111540259D01*
X137988242Y-111683637D01*
X138362118Y-111683963D01*
X138707659Y-111541188D01*
X138938130Y-111311118D01*
X159080037Y-111311118D01*
X159222812Y-111656659D01*
X159486951Y-111921259D01*
X159832242Y-112064637D01*
X160206118Y-112064963D01*
X160551659Y-111922188D01*
X160816259Y-111658049D01*
X160959637Y-111312758D01*
X160959963Y-110938882D01*
X160851391Y-110676118D01*
X164795037Y-110676118D01*
X164937812Y-111021659D01*
X165201951Y-111286259D01*
X165547242Y-111429637D01*
X165921118Y-111429963D01*
X166266659Y-111287188D01*
X166531259Y-111023049D01*
X166674637Y-110677758D01*
X166674963Y-110303882D01*
X166532188Y-109958341D01*
X166268049Y-109693741D01*
X165922758Y-109550363D01*
X165548882Y-109550037D01*
X165203341Y-109692812D01*
X164938741Y-109956951D01*
X164795363Y-110302242D01*
X164795037Y-110676118D01*
X160851391Y-110676118D01*
X160817188Y-110593341D01*
X160553049Y-110328741D01*
X160207758Y-110185363D01*
X159833882Y-110185037D01*
X159488341Y-110327812D01*
X159223741Y-110591951D01*
X159080363Y-110937242D01*
X159080037Y-111311118D01*
X138938130Y-111311118D01*
X138972259Y-111277049D01*
X139115637Y-110931758D01*
X139115963Y-110557882D01*
X138973188Y-110212341D01*
X138709049Y-109947741D01*
X138363758Y-109804363D01*
X137989882Y-109804037D01*
X137644341Y-109946812D01*
X137379741Y-110210951D01*
X137236363Y-110556242D01*
X137236037Y-110930118D01*
X133109418Y-110930118D01*
X133121283Y-107501118D01*
X155270037Y-107501118D01*
X155412812Y-107846659D01*
X155676951Y-108111259D01*
X156022242Y-108254637D01*
X156396118Y-108254963D01*
X156683744Y-108136118D01*
X164795037Y-108136118D01*
X164937812Y-108481659D01*
X165201951Y-108746259D01*
X165547242Y-108889637D01*
X165921118Y-108889963D01*
X166266659Y-108747188D01*
X166531259Y-108483049D01*
X166674637Y-108137758D01*
X166674963Y-107763882D01*
X166532188Y-107418341D01*
X166268049Y-107153741D01*
X165922758Y-107010363D01*
X165548882Y-107010037D01*
X165203341Y-107152812D01*
X164938741Y-107416951D01*
X164795363Y-107762242D01*
X164795037Y-108136118D01*
X156683744Y-108136118D01*
X156741659Y-108112188D01*
X157006259Y-107848049D01*
X157149637Y-107502758D01*
X157149963Y-107128882D01*
X157007188Y-106783341D01*
X156743049Y-106518741D01*
X156397758Y-106375363D01*
X156023882Y-106375037D01*
X155678341Y-106517812D01*
X155413741Y-106781951D01*
X155270363Y-107127242D01*
X155270037Y-107501118D01*
X133121283Y-107501118D01*
X133128754Y-105342118D01*
X133680037Y-105342118D01*
X133822812Y-105687659D01*
X134086951Y-105952259D01*
X134432242Y-106095637D01*
X134806118Y-106095963D01*
X135151659Y-105953188D01*
X135416259Y-105689049D01*
X135559637Y-105343758D01*
X135559963Y-104969882D01*
X135417188Y-104624341D01*
X135153049Y-104359741D01*
X134807758Y-104216363D01*
X134433882Y-104216037D01*
X134088341Y-104358812D01*
X133823741Y-104622951D01*
X133680363Y-104968242D01*
X133680037Y-105342118D01*
X133128754Y-105342118D01*
X133133983Y-103830817D01*
X135445338Y-103830817D01*
X135588113Y-104176358D01*
X135852252Y-104440958D01*
X136197543Y-104584336D01*
X136571419Y-104584662D01*
X136715899Y-104524964D01*
X136617741Y-104622951D01*
X136474363Y-104968242D01*
X136474037Y-105342118D01*
X136616812Y-105687659D01*
X136880951Y-105952259D01*
X137226242Y-106095637D01*
X137600118Y-106095963D01*
X137945659Y-105953188D01*
X138210259Y-105689049D01*
X138248847Y-105596118D01*
X139395037Y-105596118D01*
X139537812Y-105941659D01*
X139801951Y-106206259D01*
X140147242Y-106349637D01*
X140521118Y-106349963D01*
X140866659Y-106207188D01*
X141131259Y-105943049D01*
X141274637Y-105597758D01*
X141274963Y-105223882D01*
X141132188Y-104878341D01*
X140868049Y-104613741D01*
X140522758Y-104470363D01*
X140148882Y-104470037D01*
X139803341Y-104612812D01*
X139538741Y-104876951D01*
X139395363Y-105222242D01*
X139395037Y-105596118D01*
X138248847Y-105596118D01*
X138353637Y-105343758D01*
X138353963Y-104969882D01*
X138211188Y-104624341D01*
X137947049Y-104359741D01*
X137601758Y-104216363D01*
X137227882Y-104216037D01*
X137083402Y-104275735D01*
X137181560Y-104177748D01*
X137324938Y-103832457D01*
X137325061Y-103691118D01*
X150190037Y-103691118D01*
X150332812Y-104036659D01*
X150596951Y-104301259D01*
X150942242Y-104444637D01*
X151316118Y-104444963D01*
X151661659Y-104302188D01*
X151764948Y-104199078D01*
X151866951Y-104301259D01*
X152212242Y-104444637D01*
X152586118Y-104444963D01*
X152931659Y-104302188D01*
X153196259Y-104038049D01*
X153339637Y-103692758D01*
X153339804Y-103501036D01*
X164548786Y-103501036D01*
X164888328Y-104322789D01*
X165516494Y-104952053D01*
X166337654Y-105293028D01*
X167226792Y-105293804D01*
X167949258Y-104995287D01*
X167948847Y-105466722D01*
X168235216Y-106159789D01*
X168765012Y-106690510D01*
X169457578Y-106978089D01*
X170207478Y-106978743D01*
X170900545Y-106692374D01*
X171431266Y-106162578D01*
X171718845Y-105470012D01*
X171719499Y-104720112D01*
X171433130Y-104027045D01*
X170903334Y-103496324D01*
X170210768Y-103208745D01*
X169460868Y-103208091D01*
X169018884Y-103390715D01*
X169019560Y-102615798D01*
X168680018Y-101794045D01*
X168051852Y-101164781D01*
X167230692Y-100823806D01*
X166341554Y-100823030D01*
X165519801Y-101162572D01*
X164890537Y-101790738D01*
X164549562Y-102611898D01*
X164548786Y-103501036D01*
X153339804Y-103501036D01*
X153339963Y-103318882D01*
X153197188Y-102973341D01*
X152933049Y-102708741D01*
X152587758Y-102565363D01*
X152213882Y-102565037D01*
X151868341Y-102707812D01*
X151765052Y-102810922D01*
X151663049Y-102708741D01*
X151317758Y-102565363D01*
X150943882Y-102565037D01*
X150598341Y-102707812D01*
X150333741Y-102971951D01*
X150190363Y-103317242D01*
X150190037Y-103691118D01*
X137325061Y-103691118D01*
X137325264Y-103458581D01*
X137182489Y-103113040D01*
X136918350Y-102848440D01*
X136573059Y-102705062D01*
X136199183Y-102704736D01*
X135853642Y-102847511D01*
X135589042Y-103111650D01*
X135445664Y-103456941D01*
X135445338Y-103830817D01*
X133133983Y-103830817D01*
X133145013Y-100643118D01*
X137363037Y-100643118D01*
X137505812Y-100988659D01*
X137769951Y-101253259D01*
X138115242Y-101396637D01*
X138489118Y-101396963D01*
X138834659Y-101254188D01*
X139099259Y-100990049D01*
X139242637Y-100644758D01*
X139242963Y-100270882D01*
X139100188Y-99925341D01*
X139056043Y-99881118D01*
X139395037Y-99881118D01*
X139537812Y-100226659D01*
X139801951Y-100491259D01*
X140147242Y-100634637D01*
X140521118Y-100634963D01*
X140866659Y-100492188D01*
X141131259Y-100228049D01*
X141274637Y-99882758D01*
X141274963Y-99508882D01*
X141132188Y-99163341D01*
X140868049Y-98898741D01*
X140522758Y-98755363D01*
X140148882Y-98755037D01*
X139803341Y-98897812D01*
X139538741Y-99161951D01*
X139395363Y-99507242D01*
X139395037Y-99881118D01*
X139056043Y-99881118D01*
X138836049Y-99660741D01*
X138490758Y-99517363D01*
X138116882Y-99517037D01*
X137771341Y-99659812D01*
X137506741Y-99923951D01*
X137363363Y-100269242D01*
X137363037Y-100643118D01*
X133145013Y-100643118D01*
X133153362Y-98230118D01*
X153492037Y-98230118D01*
X153634812Y-98575659D01*
X153898951Y-98840259D01*
X154244242Y-98983637D01*
X154618118Y-98983963D01*
X154963659Y-98841188D01*
X155228259Y-98577049D01*
X155371637Y-98231758D01*
X155371963Y-97857882D01*
X155229188Y-97512341D01*
X154965049Y-97247741D01*
X154619758Y-97104363D01*
X154245882Y-97104037D01*
X153900341Y-97246812D01*
X153635741Y-97510951D01*
X153492363Y-97856242D01*
X153492037Y-98230118D01*
X133153362Y-98230118D01*
X133161712Y-95817118D01*
X133705236Y-95817118D01*
X133848011Y-96162659D01*
X134112150Y-96427259D01*
X134457441Y-96570637D01*
X134831317Y-96570963D01*
X135176858Y-96428188D01*
X135441458Y-96164049D01*
X135532781Y-95944118D01*
X136474037Y-95944118D01*
X136616812Y-96289659D01*
X136880951Y-96554259D01*
X137226242Y-96697637D01*
X137600118Y-96697963D01*
X137945659Y-96555188D01*
X138210259Y-96291049D01*
X138353637Y-95945758D01*
X138353963Y-95571882D01*
X138211188Y-95226341D01*
X138206496Y-95221640D01*
X156447208Y-95221640D01*
X156474395Y-95791871D01*
X156640309Y-96192422D01*
X156886428Y-96266556D01*
X157714568Y-95438417D01*
X156886428Y-94610278D01*
X156640309Y-94684412D01*
X156447208Y-95221640D01*
X138206496Y-95221640D01*
X137947049Y-94961741D01*
X137601758Y-94818363D01*
X137227882Y-94818037D01*
X136882341Y-94960812D01*
X136617741Y-95224951D01*
X136474363Y-95570242D01*
X136474037Y-95944118D01*
X135532781Y-95944118D01*
X135584836Y-95818758D01*
X135585162Y-95444882D01*
X135442387Y-95099341D01*
X135178248Y-94834741D01*
X134832957Y-94691363D01*
X134459081Y-94691037D01*
X134113540Y-94833812D01*
X133848940Y-95097951D01*
X133705562Y-95443242D01*
X133705236Y-95817118D01*
X133161712Y-95817118D01*
X133168743Y-93785118D01*
X134950037Y-93785118D01*
X135092812Y-94130659D01*
X135356951Y-94395259D01*
X135702242Y-94538637D01*
X136076118Y-94538963D01*
X136421659Y-94396188D01*
X136652130Y-94166118D01*
X141554037Y-94166118D01*
X141696812Y-94511659D01*
X141960951Y-94776259D01*
X142306242Y-94919637D01*
X142680118Y-94919963D01*
X143025659Y-94777188D01*
X143290259Y-94513049D01*
X143433637Y-94167758D01*
X143433963Y-93793882D01*
X143291188Y-93448341D01*
X143027049Y-93183741D01*
X143024311Y-93182604D01*
X156458925Y-93182604D01*
X156676930Y-93710217D01*
X157080250Y-94114241D01*
X157194941Y-94161865D01*
X157140168Y-94184553D01*
X157066034Y-94430672D01*
X157894173Y-95258812D01*
X158722312Y-94430672D01*
X158648178Y-94184553D01*
X158589919Y-94163612D01*
X158705973Y-94115660D01*
X159041270Y-93780947D01*
X158999423Y-93881726D01*
X158998925Y-94452604D01*
X159087125Y-94666065D01*
X158901918Y-94610278D01*
X158073778Y-95438417D01*
X158901918Y-96266556D01*
X159087005Y-96210806D01*
X158999423Y-96421726D01*
X158998925Y-96992604D01*
X159042160Y-97097240D01*
X158708096Y-96762593D01*
X158593405Y-96714969D01*
X158648178Y-96692281D01*
X158722312Y-96446162D01*
X157894173Y-95618022D01*
X157066034Y-96446162D01*
X157140168Y-96692281D01*
X157198427Y-96713222D01*
X157082373Y-96761174D01*
X156678349Y-97164494D01*
X156459423Y-97691726D01*
X156458925Y-98262604D01*
X156676930Y-98790217D01*
X157080250Y-99194241D01*
X157210388Y-99248279D01*
X157082373Y-99301174D01*
X156678349Y-99704494D01*
X156459423Y-100231726D01*
X156458925Y-100802604D01*
X156676930Y-101330217D01*
X157080250Y-101734241D01*
X157607482Y-101953167D01*
X158178360Y-101953665D01*
X158705973Y-101735660D01*
X159041270Y-101400947D01*
X158999423Y-101501726D01*
X158998925Y-102072604D01*
X159216930Y-102600217D01*
X159620250Y-103004241D01*
X160147482Y-103223167D01*
X160718360Y-103223665D01*
X161245973Y-103005660D01*
X161649997Y-102602340D01*
X161868923Y-102075108D01*
X161869421Y-101504230D01*
X161651416Y-100976617D01*
X161248096Y-100572593D01*
X161117958Y-100518555D01*
X161245973Y-100465660D01*
X161649997Y-100062340D01*
X161868923Y-99535108D01*
X161869421Y-98964230D01*
X161651416Y-98436617D01*
X161248096Y-98032593D01*
X161117958Y-97978555D01*
X161245973Y-97925660D01*
X161649997Y-97522340D01*
X161868923Y-96995108D01*
X161869421Y-96424230D01*
X161651416Y-95896617D01*
X161248096Y-95492593D01*
X161117958Y-95438555D01*
X161245973Y-95385660D01*
X161649997Y-94982340D01*
X161868923Y-94455108D01*
X161869421Y-93884230D01*
X161651416Y-93356617D01*
X161248096Y-92952593D01*
X160720864Y-92733667D01*
X160149986Y-92733169D01*
X159622373Y-92951174D01*
X159287076Y-93285887D01*
X159328923Y-93185108D01*
X159329421Y-92614230D01*
X159111416Y-92086617D01*
X159095863Y-92071036D01*
X164548786Y-92071036D01*
X164888328Y-92892789D01*
X165516494Y-93522053D01*
X166337654Y-93863028D01*
X167226792Y-93863804D01*
X168048545Y-93524262D01*
X168677809Y-92896096D01*
X169018784Y-92074936D01*
X169019464Y-91296168D01*
X169457578Y-91478089D01*
X170207478Y-91478743D01*
X170900545Y-91192374D01*
X171431266Y-90662578D01*
X171718845Y-89970012D01*
X171719499Y-89220112D01*
X171433130Y-88527045D01*
X170903334Y-87996324D01*
X170210768Y-87708745D01*
X169460868Y-87708091D01*
X168767801Y-87994460D01*
X168237080Y-88524256D01*
X167949501Y-89216822D01*
X167949086Y-89692109D01*
X167230692Y-89393806D01*
X166341554Y-89393030D01*
X165519801Y-89732572D01*
X164890537Y-90360738D01*
X164549562Y-91181898D01*
X164548786Y-92071036D01*
X159095863Y-92071036D01*
X158708096Y-91682593D01*
X158180864Y-91463667D01*
X157609986Y-91463169D01*
X157082373Y-91681174D01*
X156678349Y-92084494D01*
X156459423Y-92611726D01*
X156458925Y-93182604D01*
X143024311Y-93182604D01*
X142681758Y-93040363D01*
X142307882Y-93040037D01*
X141962341Y-93182812D01*
X141697741Y-93446951D01*
X141554363Y-93792242D01*
X141554037Y-94166118D01*
X136652130Y-94166118D01*
X136686259Y-94132049D01*
X136829637Y-93786758D01*
X136829963Y-93412882D01*
X136687188Y-93067341D01*
X136423049Y-92802741D01*
X136077758Y-92659363D01*
X135703882Y-92659037D01*
X135358341Y-92801812D01*
X135093741Y-93065951D01*
X134950363Y-93411242D01*
X134950037Y-93785118D01*
X133168743Y-93785118D01*
X133177971Y-91118118D01*
X136601037Y-91118118D01*
X136743812Y-91463659D01*
X137007951Y-91728259D01*
X137353242Y-91871637D01*
X137727118Y-91871963D01*
X138072659Y-91729188D01*
X138337259Y-91465049D01*
X138480637Y-91119758D01*
X138480749Y-90991118D01*
X150190037Y-90991118D01*
X150332812Y-91336659D01*
X150596951Y-91601259D01*
X150942242Y-91744637D01*
X151316118Y-91744963D01*
X151661659Y-91602188D01*
X151926259Y-91338049D01*
X152069637Y-90992758D01*
X152069963Y-90618882D01*
X151927188Y-90273341D01*
X151663049Y-90008741D01*
X151317758Y-89865363D01*
X150943882Y-89865037D01*
X150598341Y-90007812D01*
X150333741Y-90271951D01*
X150190363Y-90617242D01*
X150190037Y-90991118D01*
X138480749Y-90991118D01*
X138480963Y-90745882D01*
X138338188Y-90400341D01*
X138074049Y-90135741D01*
X137728758Y-89992363D01*
X137354882Y-89992037D01*
X137009341Y-90134812D01*
X136744741Y-90398951D01*
X136601363Y-90744242D01*
X136601037Y-91118118D01*
X133177971Y-91118118D01*
X133185002Y-89086118D01*
X153365037Y-89086118D01*
X153507812Y-89431659D01*
X153771951Y-89696259D01*
X154117242Y-89839637D01*
X154491118Y-89839963D01*
X154836659Y-89697188D01*
X155101259Y-89433049D01*
X155244637Y-89087758D01*
X155244963Y-88713882D01*
X155102188Y-88368341D01*
X154838049Y-88103741D01*
X154492758Y-87960363D01*
X154118882Y-87960037D01*
X153773341Y-88102812D01*
X153508741Y-88366951D01*
X153365363Y-88712242D01*
X153365037Y-89086118D01*
X133185002Y-89086118D01*
X133193792Y-86546118D01*
X133680037Y-86546118D01*
X133822812Y-86891659D01*
X134086951Y-87156259D01*
X134432242Y-87299637D01*
X134806118Y-87299963D01*
X135151659Y-87157188D01*
X135416259Y-86893049D01*
X135454847Y-86800118D01*
X135966037Y-86800118D01*
X136108812Y-87145659D01*
X136372951Y-87410259D01*
X136718242Y-87553637D01*
X137092118Y-87553963D01*
X137437659Y-87411188D01*
X137668130Y-87181118D01*
X140030037Y-87181118D01*
X140172812Y-87526659D01*
X140436951Y-87791259D01*
X140782242Y-87934637D01*
X141156118Y-87934963D01*
X141501659Y-87792188D01*
X141766259Y-87528049D01*
X141909637Y-87182758D01*
X141909963Y-86808882D01*
X141767188Y-86463341D01*
X141503049Y-86198741D01*
X141157758Y-86055363D01*
X140783882Y-86055037D01*
X140438341Y-86197812D01*
X140173741Y-86461951D01*
X140030363Y-86807242D01*
X140030037Y-87181118D01*
X137668130Y-87181118D01*
X137702259Y-87147049D01*
X137845637Y-86801758D01*
X137845963Y-86427882D01*
X137703188Y-86082341D01*
X137439049Y-85817741D01*
X137093758Y-85674363D01*
X136719882Y-85674037D01*
X136374341Y-85816812D01*
X136109741Y-86080951D01*
X135966363Y-86426242D01*
X135966037Y-86800118D01*
X135454847Y-86800118D01*
X135559637Y-86547758D01*
X135559963Y-86173882D01*
X135417188Y-85828341D01*
X135153049Y-85563741D01*
X134807758Y-85420363D01*
X134433882Y-85420037D01*
X134088341Y-85562812D01*
X133823741Y-85826951D01*
X133680363Y-86172242D01*
X133680037Y-86546118D01*
X133193792Y-86546118D01*
X133198186Y-85276118D01*
X154635037Y-85276118D01*
X154777812Y-85621659D01*
X155041951Y-85886259D01*
X155387242Y-86029637D01*
X155761118Y-86029963D01*
X156106659Y-85887188D01*
X156371259Y-85623049D01*
X156514637Y-85277758D01*
X156514963Y-84903882D01*
X156372188Y-84558341D01*
X156108049Y-84293741D01*
X155762758Y-84150363D01*
X155388882Y-84150037D01*
X155043341Y-84292812D01*
X154778741Y-84556951D01*
X154635363Y-84902242D01*
X154635037Y-85276118D01*
X133198186Y-85276118D01*
X133202791Y-83945119D01*
X165150613Y-83945119D01*
X165490155Y-84766872D01*
X166118321Y-85396136D01*
X166939481Y-85737111D01*
X167828619Y-85737887D01*
X168650372Y-85398345D01*
X169279636Y-84770179D01*
X169620611Y-83949019D01*
X169621387Y-83059881D01*
X169281845Y-82238128D01*
X168653679Y-81608864D01*
X167832519Y-81267889D01*
X166943381Y-81267113D01*
X166121628Y-81606655D01*
X165492364Y-82234821D01*
X165151389Y-83055981D01*
X165150613Y-83945119D01*
X133202791Y-83945119D01*
X133209173Y-82101118D01*
X138760037Y-82101118D01*
X138902812Y-82446659D01*
X139166951Y-82711259D01*
X139512242Y-82854637D01*
X139886118Y-82854963D01*
X140231659Y-82712188D01*
X140496259Y-82448049D01*
X140639637Y-82102758D01*
X140639963Y-81728882D01*
X140497188Y-81383341D01*
X140233049Y-81118741D01*
X139887758Y-80975363D01*
X139513882Y-80975037D01*
X139168341Y-81117812D01*
X138903741Y-81381951D01*
X138760363Y-81727242D01*
X138760037Y-82101118D01*
X133209173Y-82101118D01*
X133220544Y-78815000D01*
X175566000Y-78815000D01*
X175566000Y-118670000D01*
X113486000Y-118670000D01*
X113486000Y-115377619D01*
X117525613Y-115377619D01*
X117865155Y-116199372D01*
X118493321Y-116828636D01*
X119314481Y-117169611D01*
X120203619Y-117170387D01*
X121025372Y-116830845D01*
X121654636Y-116202679D01*
X121995611Y-115381519D01*
X121996387Y-114492381D01*
X121656845Y-113670628D01*
X121028679Y-113041364D01*
X120207519Y-112700389D01*
X119318381Y-112699613D01*
X118496628Y-113039155D01*
X117867364Y-113667321D01*
X117526389Y-114488481D01*
X117525613Y-115377619D01*
X113486000Y-115377619D01*
X113486000Y-105596118D01*
X127584037Y-105596118D01*
X127726812Y-105941659D01*
X127990951Y-106206259D01*
X128336242Y-106349637D01*
X128710118Y-106349963D01*
X129055659Y-106207188D01*
X129320259Y-105943049D01*
X129463637Y-105597758D01*
X129463963Y-105223882D01*
X129321188Y-104878341D01*
X129057049Y-104613741D01*
X128711758Y-104470363D01*
X128337882Y-104470037D01*
X127992341Y-104612812D01*
X127727741Y-104876951D01*
X127584363Y-105222242D01*
X127584037Y-105596118D01*
X113486000Y-105596118D01*
X113486000Y-103691118D01*
X114630037Y-103691118D01*
X114772812Y-104036659D01*
X115036951Y-104301259D01*
X115382242Y-104444637D01*
X115756118Y-104444963D01*
X116101659Y-104302188D01*
X116366259Y-104038049D01*
X116509637Y-103692758D01*
X116509963Y-103318882D01*
X116367188Y-102973341D01*
X116103049Y-102708741D01*
X115757758Y-102565363D01*
X115383882Y-102565037D01*
X115038341Y-102707812D01*
X114773741Y-102971951D01*
X114630363Y-103317242D01*
X114630037Y-103691118D01*
X113486000Y-103691118D01*
X113486000Y-96071118D01*
X114376036Y-96071118D01*
X114518811Y-96416659D01*
X114782950Y-96681259D01*
X115128241Y-96824637D01*
X115502117Y-96824963D01*
X115789743Y-96706118D01*
X127076037Y-96706118D01*
X127218812Y-97051659D01*
X127482951Y-97316259D01*
X127828242Y-97459637D01*
X128202118Y-97459963D01*
X128547659Y-97317188D01*
X128812259Y-97053049D01*
X128955637Y-96707758D01*
X128955963Y-96333882D01*
X128813188Y-95988341D01*
X128549049Y-95723741D01*
X128203758Y-95580363D01*
X127829882Y-95580037D01*
X127484341Y-95722812D01*
X127219741Y-95986951D01*
X127076363Y-96332242D01*
X127076037Y-96706118D01*
X115789743Y-96706118D01*
X115847658Y-96682188D01*
X116112258Y-96418049D01*
X116255636Y-96072758D01*
X116255962Y-95698882D01*
X116113187Y-95353341D01*
X115849048Y-95088741D01*
X115503757Y-94945363D01*
X115129881Y-94945037D01*
X114784340Y-95087812D01*
X114519740Y-95351951D01*
X114376362Y-95697242D01*
X114376036Y-96071118D01*
X113486000Y-96071118D01*
X113486000Y-87308118D01*
X126568037Y-87308118D01*
X126710812Y-87653659D01*
X126974951Y-87918259D01*
X127320242Y-88061637D01*
X127694118Y-88061963D01*
X128039659Y-87919188D01*
X128304259Y-87655049D01*
X128447637Y-87309758D01*
X128447963Y-86935882D01*
X128305188Y-86590341D01*
X128041049Y-86325741D01*
X127695758Y-86182363D01*
X127321882Y-86182037D01*
X126976341Y-86324812D01*
X126711741Y-86588951D01*
X126568363Y-86934242D01*
X126568037Y-87308118D01*
X113486000Y-87308118D01*
X113486000Y-83945119D01*
X117525613Y-83945119D01*
X117865155Y-84766872D01*
X118493321Y-85396136D01*
X119314481Y-85737111D01*
X120203619Y-85737887D01*
X121025372Y-85398345D01*
X121654636Y-84770179D01*
X121708226Y-84641118D01*
X124790037Y-84641118D01*
X124932812Y-84986659D01*
X125196951Y-85251259D01*
X125542242Y-85394637D01*
X125916118Y-85394963D01*
X126261659Y-85252188D01*
X126526259Y-84988049D01*
X126669637Y-84642758D01*
X126669963Y-84268882D01*
X126527188Y-83923341D01*
X126263049Y-83658741D01*
X125917758Y-83515363D01*
X125543882Y-83515037D01*
X125198341Y-83657812D01*
X124933741Y-83921951D01*
X124790363Y-84267242D01*
X124790037Y-84641118D01*
X121708226Y-84641118D01*
X121995611Y-83949019D01*
X121996387Y-83059881D01*
X121656845Y-82238128D01*
X121028679Y-81608864D01*
X120207519Y-81267889D01*
X119318381Y-81267113D01*
X118496628Y-81606655D01*
X117867364Y-82234821D01*
X117526389Y-83055981D01*
X117525613Y-83945119D01*
X113486000Y-83945119D01*
X113486000Y-78815000D01*
X132331543Y-78815000D01*
X132207001Y-114807561D01*
M02*
