G04 #@! TF.FileFunction,Legend,Top*
%FSLAX46Y46*%
G04 Gerber Fmt 4.6, Leading zero omitted, Abs format (unit mm)*
G04 Created by KiCad (PCBNEW 4.0.6) date 12/06/17 20:22:11*
%MOMM*%
%LPD*%
G01*
G04 APERTURE LIST*
%ADD10C,0.100000*%
%ADD11C,0.300000*%
%ADD12C,0.200000*%
%ADD13C,0.150000*%
%ADD14C,0.120000*%
G04 APERTURE END LIST*
D10*
D11*
X115031762Y-108228190D02*
X115636524Y-108228190D01*
X114366524Y-108651524D02*
X115031762Y-108228190D01*
X114366524Y-107804857D01*
X115152714Y-107381524D02*
X115152714Y-106413905D01*
X115636524Y-106897715D02*
X114668905Y-106897715D01*
X116392477Y-109286524D02*
X117239143Y-110556524D01*
X117239143Y-109286524D02*
X116392477Y-110556524D01*
X117722953Y-110072714D02*
X118690572Y-110072714D01*
X118206762Y-110556524D02*
X118206762Y-109588905D01*
D12*
X116078000Y-105156000D02*
X116713000Y-105791000D01*
X115443000Y-105791000D02*
X116078000Y-105156000D01*
X116078000Y-105156000D02*
X116078000Y-108966000D01*
X119634000Y-108966000D02*
X116078000Y-108966000D01*
X119634000Y-108966000D02*
X118999000Y-109601000D01*
X119634000Y-108966000D02*
X118999000Y-108331000D01*
D13*
X156484173Y-105093417D02*
X168164173Y-105093417D01*
X175084173Y-89593417D02*
X175084173Y-105093417D01*
X156484173Y-89593417D02*
X168164173Y-89593417D01*
X156484173Y-89593417D02*
X156484173Y-105093417D01*
D14*
X141135000Y-106210000D02*
X140635000Y-106210000D01*
X140635000Y-107150000D02*
X141135000Y-107150000D01*
D13*
X118960000Y-93133000D02*
X118960000Y-93258000D01*
X123610000Y-93133000D02*
X123610000Y-93358000D01*
X123610000Y-98383000D02*
X123610000Y-98158000D01*
X118960000Y-98383000D02*
X118960000Y-98158000D01*
X118960000Y-93133000D02*
X123610000Y-93133000D01*
X118960000Y-98383000D02*
X123610000Y-98383000D01*
X118960000Y-93258000D02*
X117610000Y-93258000D01*
D14*
X116675000Y-96643000D02*
X116675000Y-96143000D01*
X115735000Y-96143000D02*
X115735000Y-96643000D01*
X119091000Y-102278000D02*
X119091000Y-102978000D01*
X117891000Y-102978000D02*
X117891000Y-102278000D01*
X116243000Y-102747000D02*
X116243000Y-103247000D01*
X117183000Y-103247000D02*
X117183000Y-102747000D01*
X167775000Y-111340000D02*
X168775000Y-111340000D01*
X168775000Y-109640000D02*
X167775000Y-109640000D01*
X119257000Y-100800000D02*
X119757000Y-100800000D01*
X119757000Y-99860000D02*
X119257000Y-99860000D01*
X123313000Y-99733000D02*
X122813000Y-99733000D01*
X122813000Y-100673000D02*
X123313000Y-100673000D01*
X125218000Y-100876000D02*
X124718000Y-100876000D01*
X124718000Y-101816000D02*
X125218000Y-101816000D01*
X144430000Y-89570000D02*
X145130000Y-89570000D01*
X145130000Y-90770000D02*
X144430000Y-90770000D01*
X140836497Y-89325163D02*
X140836497Y-88625163D01*
X142036497Y-88625163D02*
X142036497Y-89325163D01*
X133966000Y-107026000D02*
X133266000Y-107026000D01*
X133266000Y-105826000D02*
X133966000Y-105826000D01*
X133954000Y-97628000D02*
X133254000Y-97628000D01*
X133254000Y-96428000D02*
X133954000Y-96428000D01*
X132430000Y-88484000D02*
X131730000Y-88484000D01*
X131730000Y-87284000D02*
X132430000Y-87284000D01*
X130902000Y-106850000D02*
X130902000Y-107550000D01*
X129702000Y-107550000D02*
X129702000Y-106850000D01*
X130521000Y-97948000D02*
X130521000Y-98648000D01*
X129321000Y-98648000D02*
X129321000Y-97948000D01*
X130140000Y-88677000D02*
X130140000Y-89377000D01*
X128940000Y-89377000D02*
X128940000Y-88677000D01*
X136683000Y-82585000D02*
X137383000Y-82585000D01*
X137383000Y-83785000D02*
X136683000Y-83785000D01*
X136556000Y-105826000D02*
X137256000Y-105826000D01*
X137256000Y-107026000D02*
X136556000Y-107026000D01*
X136556000Y-96428000D02*
X137256000Y-96428000D01*
X137256000Y-97628000D02*
X136556000Y-97628000D01*
X136060000Y-87284000D02*
X136760000Y-87284000D01*
X136760000Y-88484000D02*
X136060000Y-88484000D01*
X128552500Y-81831000D02*
X128552500Y-82531000D01*
X127352500Y-82531000D02*
X127352500Y-81831000D01*
X126022000Y-82300000D02*
X126022000Y-82800000D01*
X126962000Y-82800000D02*
X126962000Y-82300000D01*
X141736000Y-95466000D02*
X142236000Y-95466000D01*
X142236000Y-94526000D02*
X141736000Y-94526000D01*
D13*
X159455000Y-105550000D02*
G75*
G03X159455000Y-105550000I-100000J0D01*
G01*
X161655000Y-109950000D02*
X161655000Y-105950000D01*
X159655000Y-109950000D02*
X159655000Y-105950000D01*
X153105000Y-103645000D02*
G75*
G03X153105000Y-103645000I-100000J0D01*
G01*
X155305000Y-108045000D02*
X155305000Y-104045000D01*
X153305000Y-108045000D02*
X153305000Y-104045000D01*
X153105000Y-98565000D02*
G75*
G03X153105000Y-98565000I-100000J0D01*
G01*
X155305000Y-102965000D02*
X155305000Y-98965000D01*
X153305000Y-102965000D02*
X153305000Y-98965000D01*
X149930000Y-97221000D02*
G75*
G03X149930000Y-97221000I-100000J0D01*
G01*
X152130000Y-101621000D02*
X152130000Y-97621000D01*
X150130000Y-101621000D02*
X150130000Y-97621000D01*
X152784000Y-96073000D02*
G75*
G03X152784000Y-96073000I-100000J0D01*
G01*
X150384000Y-91673000D02*
X150384000Y-95673000D01*
X152384000Y-91673000D02*
X152384000Y-95673000D01*
X155705000Y-94475000D02*
G75*
G03X155705000Y-94475000I-100000J0D01*
G01*
X153305000Y-90075000D02*
X153305000Y-94075000D01*
X155305000Y-90075000D02*
X155305000Y-94075000D01*
X158880000Y-88887000D02*
G75*
G03X158880000Y-88887000I-100000J0D01*
G01*
X156480000Y-84487000D02*
X156480000Y-88487000D01*
X158480000Y-84487000D02*
X158480000Y-88487000D01*
D14*
X167675000Y-107070000D02*
X168875000Y-107070000D01*
X168875000Y-108830000D02*
X167675000Y-108830000D01*
X127590000Y-107700000D02*
X127590000Y-106700000D01*
X128950000Y-106700000D02*
X128950000Y-107700000D01*
X127336000Y-98798000D02*
X127336000Y-97798000D01*
X128696000Y-97798000D02*
X128696000Y-98798000D01*
X126955000Y-89527000D02*
X126955000Y-88527000D01*
X128315000Y-88527000D02*
X128315000Y-89527000D01*
D13*
X119065000Y-105583000D02*
X120065000Y-105583000D01*
X119065000Y-105583000D02*
X119065000Y-104583000D01*
X123565000Y-105083000D02*
X119565000Y-105083000D01*
X123565000Y-101083000D02*
X123565000Y-105083000D01*
X119565000Y-101083000D02*
X123565000Y-101083000D01*
X119565000Y-105083000D02*
X119565000Y-101083000D01*
D14*
X145351688Y-85692163D02*
X143551688Y-85692163D01*
X143551688Y-88912163D02*
X146001688Y-88912163D01*
D13*
X132760524Y-107633000D02*
X132760524Y-107808000D01*
X136010524Y-107633000D02*
X136010524Y-107908000D01*
X136010524Y-110883000D02*
X136010524Y-110608000D01*
X132760524Y-110883000D02*
X132760524Y-110608000D01*
X132760524Y-107633000D02*
X136010524Y-107633000D01*
X132760524Y-110883000D02*
X136010524Y-110883000D01*
X132760524Y-107808000D02*
X131685524Y-107808000D01*
X132868000Y-98832000D02*
X132868000Y-99007000D01*
X136118000Y-98832000D02*
X136118000Y-99107000D01*
X136118000Y-102082000D02*
X136118000Y-101807000D01*
X132868000Y-102082000D02*
X132868000Y-101807000D01*
X132868000Y-98832000D02*
X136118000Y-98832000D01*
X132868000Y-102082000D02*
X136118000Y-102082000D01*
X132868000Y-99007000D02*
X131793000Y-99007000D01*
X132106000Y-89307000D02*
X132106000Y-89482000D01*
X135356000Y-89307000D02*
X135356000Y-89582000D01*
X135356000Y-92557000D02*
X135356000Y-92282000D01*
X132106000Y-92557000D02*
X132106000Y-92282000D01*
X132106000Y-89307000D02*
X135356000Y-89307000D01*
X132106000Y-92557000D02*
X135356000Y-92557000D01*
X132106000Y-89482000D02*
X131031000Y-89482000D01*
X134786333Y-83882000D02*
G75*
G03X134786333Y-83882000I-216333J0D01*
G01*
X133580000Y-80642000D02*
X130580000Y-80642000D01*
X133580000Y-83642000D02*
X130580000Y-83642000D01*
X141275000Y-107915000D02*
X141275000Y-107965000D01*
X145425000Y-107915000D02*
X145425000Y-108060000D01*
X145425000Y-113065000D02*
X145425000Y-112920000D01*
X141275000Y-113065000D02*
X141275000Y-112920000D01*
X141275000Y-107915000D02*
X145425000Y-107915000D01*
X141275000Y-113065000D02*
X145425000Y-113065000D01*
X141275000Y-107965000D02*
X139875000Y-107965000D01*
X143188048Y-95997500D02*
X143188048Y-96047500D01*
X147338048Y-95997500D02*
X147338048Y-96142500D01*
X147338048Y-101147500D02*
X147338048Y-101002500D01*
X143188048Y-101147500D02*
X143188048Y-101002500D01*
X143188048Y-95997500D02*
X147338048Y-95997500D01*
X143188048Y-101147500D02*
X147338048Y-101147500D01*
X143188048Y-96047500D02*
X141788048Y-96047500D01*
X172416554Y-97041750D02*
X173130840Y-97041750D01*
X173273697Y-97089370D01*
X173368935Y-97184608D01*
X173416554Y-97327465D01*
X173416554Y-97422703D01*
X173416554Y-96041750D02*
X173416554Y-96613179D01*
X173416554Y-96327465D02*
X172416554Y-96327465D01*
X172559411Y-96422703D01*
X172654649Y-96517941D01*
X172702268Y-96613179D01*
X140327143Y-104497143D02*
X140279524Y-104544762D01*
X140136667Y-104592381D01*
X140041429Y-104592381D01*
X139898571Y-104544762D01*
X139803333Y-104449524D01*
X139755714Y-104354286D01*
X139708095Y-104163810D01*
X139708095Y-104020952D01*
X139755714Y-103830476D01*
X139803333Y-103735238D01*
X139898571Y-103640000D01*
X140041429Y-103592381D01*
X140136667Y-103592381D01*
X140279524Y-103640000D01*
X140327143Y-103687619D01*
X140708095Y-103687619D02*
X140755714Y-103640000D01*
X140850952Y-103592381D01*
X141089048Y-103592381D01*
X141184286Y-103640000D01*
X141231905Y-103687619D01*
X141279524Y-103782857D01*
X141279524Y-103878095D01*
X141231905Y-104020952D01*
X140660476Y-104592381D01*
X141279524Y-104592381D01*
X141660476Y-103687619D02*
X141708095Y-103640000D01*
X141803333Y-103592381D01*
X142041429Y-103592381D01*
X142136667Y-103640000D01*
X142184286Y-103687619D01*
X142231905Y-103782857D01*
X142231905Y-103878095D01*
X142184286Y-104020952D01*
X141612857Y-104592381D01*
X142231905Y-104592381D01*
X120523095Y-91660381D02*
X120523095Y-92469905D01*
X120570714Y-92565143D01*
X120618333Y-92612762D01*
X120713571Y-92660381D01*
X120904048Y-92660381D01*
X120999286Y-92612762D01*
X121046905Y-92565143D01*
X121094524Y-92469905D01*
X121094524Y-91660381D01*
X121475476Y-91660381D02*
X122094524Y-91660381D01*
X121761190Y-92041333D01*
X121904048Y-92041333D01*
X121999286Y-92088952D01*
X122046905Y-92136571D01*
X122094524Y-92231810D01*
X122094524Y-92469905D01*
X122046905Y-92565143D01*
X121999286Y-92612762D01*
X121904048Y-92660381D01*
X121618333Y-92660381D01*
X121523095Y-92612762D01*
X121475476Y-92565143D01*
X115292143Y-96559666D02*
X115339762Y-96607285D01*
X115387381Y-96750142D01*
X115387381Y-96845380D01*
X115339762Y-96988238D01*
X115244524Y-97083476D01*
X115149286Y-97131095D01*
X114958810Y-97178714D01*
X114815952Y-97178714D01*
X114625476Y-97131095D01*
X114530238Y-97083476D01*
X114435000Y-96988238D01*
X114387381Y-96845380D01*
X114387381Y-96750142D01*
X114435000Y-96607285D01*
X114482619Y-96559666D01*
X114387381Y-96226333D02*
X114387381Y-95559666D01*
X115387381Y-95988238D01*
X117689334Y-105132143D02*
X117641715Y-105179762D01*
X117498858Y-105227381D01*
X117403620Y-105227381D01*
X117260762Y-105179762D01*
X117165524Y-105084524D01*
X117117905Y-104989286D01*
X117070286Y-104798810D01*
X117070286Y-104655952D01*
X117117905Y-104465476D01*
X117165524Y-104370238D01*
X117260762Y-104275000D01*
X117403620Y-104227381D01*
X117498858Y-104227381D01*
X117641715Y-104275000D01*
X117689334Y-104322619D01*
X118641715Y-105227381D02*
X118070286Y-105227381D01*
X118356000Y-105227381D02*
X118356000Y-104227381D01*
X118260762Y-104370238D01*
X118165524Y-104465476D01*
X118070286Y-104513095D01*
X115927143Y-103036666D02*
X115974762Y-103084285D01*
X116022381Y-103227142D01*
X116022381Y-103322380D01*
X115974762Y-103465238D01*
X115879524Y-103560476D01*
X115784286Y-103608095D01*
X115593810Y-103655714D01*
X115450952Y-103655714D01*
X115260476Y-103608095D01*
X115165238Y-103560476D01*
X115070000Y-103465238D01*
X115022381Y-103322380D01*
X115022381Y-103227142D01*
X115070000Y-103084285D01*
X115117619Y-103036666D01*
X115117619Y-102655714D02*
X115070000Y-102608095D01*
X115022381Y-102512857D01*
X115022381Y-102274761D01*
X115070000Y-102179523D01*
X115117619Y-102131904D01*
X115212857Y-102084285D01*
X115308095Y-102084285D01*
X115450952Y-102131904D01*
X116022381Y-102703333D01*
X116022381Y-102084285D01*
X171197543Y-110859866D02*
X171245162Y-110907485D01*
X171292781Y-111050342D01*
X171292781Y-111145580D01*
X171245162Y-111288438D01*
X171149924Y-111383676D01*
X171054686Y-111431295D01*
X170864210Y-111478914D01*
X170721352Y-111478914D01*
X170530876Y-111431295D01*
X170435638Y-111383676D01*
X170340400Y-111288438D01*
X170292781Y-111145580D01*
X170292781Y-111050342D01*
X170340400Y-110907485D01*
X170388019Y-110859866D01*
X170292781Y-110526533D02*
X170292781Y-109907485D01*
X170673733Y-110240819D01*
X170673733Y-110097961D01*
X170721352Y-110002723D01*
X170768971Y-109955104D01*
X170864210Y-109907485D01*
X171102305Y-109907485D01*
X171197543Y-109955104D01*
X171245162Y-110002723D01*
X171292781Y-110097961D01*
X171292781Y-110383676D01*
X171245162Y-110478914D01*
X171197543Y-110526533D01*
X116673334Y-99671143D02*
X116625715Y-99718762D01*
X116482858Y-99766381D01*
X116387620Y-99766381D01*
X116244762Y-99718762D01*
X116149524Y-99623524D01*
X116101905Y-99528286D01*
X116054286Y-99337810D01*
X116054286Y-99194952D01*
X116101905Y-99004476D01*
X116149524Y-98909238D01*
X116244762Y-98814000D01*
X116387620Y-98766381D01*
X116482858Y-98766381D01*
X116625715Y-98814000D01*
X116673334Y-98861619D01*
X117530477Y-99099714D02*
X117530477Y-99766381D01*
X117292381Y-98718762D02*
X117054286Y-99433048D01*
X117673334Y-99433048D01*
X125055334Y-100433143D02*
X125007715Y-100480762D01*
X124864858Y-100528381D01*
X124769620Y-100528381D01*
X124626762Y-100480762D01*
X124531524Y-100385524D01*
X124483905Y-100290286D01*
X124436286Y-100099810D01*
X124436286Y-99956952D01*
X124483905Y-99766476D01*
X124531524Y-99671238D01*
X124626762Y-99576000D01*
X124769620Y-99528381D01*
X124864858Y-99528381D01*
X125007715Y-99576000D01*
X125055334Y-99623619D01*
X125960096Y-99528381D02*
X125483905Y-99528381D01*
X125436286Y-100004571D01*
X125483905Y-99956952D01*
X125579143Y-99909333D01*
X125817239Y-99909333D01*
X125912477Y-99956952D01*
X125960096Y-100004571D01*
X126007715Y-100099810D01*
X126007715Y-100337905D01*
X125960096Y-100433143D01*
X125912477Y-100480762D01*
X125817239Y-100528381D01*
X125579143Y-100528381D01*
X125483905Y-100480762D01*
X125436286Y-100433143D01*
X125055334Y-103735143D02*
X125007715Y-103782762D01*
X124864858Y-103830381D01*
X124769620Y-103830381D01*
X124626762Y-103782762D01*
X124531524Y-103687524D01*
X124483905Y-103592286D01*
X124436286Y-103401810D01*
X124436286Y-103258952D01*
X124483905Y-103068476D01*
X124531524Y-102973238D01*
X124626762Y-102878000D01*
X124769620Y-102830381D01*
X124864858Y-102830381D01*
X125007715Y-102878000D01*
X125055334Y-102925619D01*
X125912477Y-102830381D02*
X125722000Y-102830381D01*
X125626762Y-102878000D01*
X125579143Y-102925619D01*
X125483905Y-103068476D01*
X125436286Y-103258952D01*
X125436286Y-103639905D01*
X125483905Y-103735143D01*
X125531524Y-103782762D01*
X125626762Y-103830381D01*
X125817239Y-103830381D01*
X125912477Y-103782762D01*
X125960096Y-103735143D01*
X126007715Y-103639905D01*
X126007715Y-103401810D01*
X125960096Y-103306571D01*
X125912477Y-103258952D01*
X125817239Y-103211333D01*
X125626762Y-103211333D01*
X125531524Y-103258952D01*
X125483905Y-103306571D01*
X125436286Y-103401810D01*
X142887506Y-90263869D02*
X142935125Y-90311488D01*
X142982744Y-90454345D01*
X142982744Y-90549583D01*
X142935125Y-90692441D01*
X142839887Y-90787679D01*
X142744649Y-90835298D01*
X142554173Y-90882917D01*
X142411315Y-90882917D01*
X142220839Y-90835298D01*
X142125601Y-90787679D01*
X142030363Y-90692441D01*
X141982744Y-90549583D01*
X141982744Y-90454345D01*
X142030363Y-90311488D01*
X142077982Y-90263869D01*
X142411315Y-89692441D02*
X142363696Y-89787679D01*
X142316077Y-89835298D01*
X142220839Y-89882917D01*
X142173220Y-89882917D01*
X142077982Y-89835298D01*
X142030363Y-89787679D01*
X141982744Y-89692441D01*
X141982744Y-89501964D01*
X142030363Y-89406726D01*
X142077982Y-89359107D01*
X142173220Y-89311488D01*
X142220839Y-89311488D01*
X142316077Y-89359107D01*
X142363696Y-89406726D01*
X142411315Y-89501964D01*
X142411315Y-89692441D01*
X142458934Y-89787679D01*
X142506553Y-89835298D01*
X142601792Y-89882917D01*
X142792268Y-89882917D01*
X142887506Y-89835298D01*
X142935125Y-89787679D01*
X142982744Y-89692441D01*
X142982744Y-89501964D01*
X142935125Y-89406726D01*
X142887506Y-89359107D01*
X142792268Y-89311488D01*
X142601792Y-89311488D01*
X142506553Y-89359107D01*
X142458934Y-89406726D01*
X142411315Y-89501964D01*
X140333140Y-89026829D02*
X140380759Y-89074448D01*
X140428378Y-89217305D01*
X140428378Y-89312543D01*
X140380759Y-89455401D01*
X140285521Y-89550639D01*
X140190283Y-89598258D01*
X139999807Y-89645877D01*
X139856949Y-89645877D01*
X139666473Y-89598258D01*
X139571235Y-89550639D01*
X139475997Y-89455401D01*
X139428378Y-89312543D01*
X139428378Y-89217305D01*
X139475997Y-89074448D01*
X139523616Y-89026829D01*
X140428378Y-88550639D02*
X140428378Y-88360163D01*
X140380759Y-88264924D01*
X140333140Y-88217305D01*
X140190283Y-88122067D01*
X139999807Y-88074448D01*
X139618854Y-88074448D01*
X139523616Y-88122067D01*
X139475997Y-88169686D01*
X139428378Y-88264924D01*
X139428378Y-88455401D01*
X139475997Y-88550639D01*
X139523616Y-88598258D01*
X139618854Y-88645877D01*
X139856949Y-88645877D01*
X139952187Y-88598258D01*
X139999807Y-88550639D01*
X140047426Y-88455401D01*
X140047426Y-88264924D01*
X139999807Y-88169686D01*
X139952187Y-88122067D01*
X139856949Y-88074448D01*
X132707143Y-105259143D02*
X132659524Y-105306762D01*
X132516667Y-105354381D01*
X132421429Y-105354381D01*
X132278571Y-105306762D01*
X132183333Y-105211524D01*
X132135714Y-105116286D01*
X132088095Y-104925810D01*
X132088095Y-104782952D01*
X132135714Y-104592476D01*
X132183333Y-104497238D01*
X132278571Y-104402000D01*
X132421429Y-104354381D01*
X132516667Y-104354381D01*
X132659524Y-104402000D01*
X132707143Y-104449619D01*
X133659524Y-105354381D02*
X133088095Y-105354381D01*
X133373809Y-105354381D02*
X133373809Y-104354381D01*
X133278571Y-104497238D01*
X133183333Y-104592476D01*
X133088095Y-104640095D01*
X134278571Y-104354381D02*
X134373810Y-104354381D01*
X134469048Y-104402000D01*
X134516667Y-104449619D01*
X134564286Y-104544857D01*
X134611905Y-104735333D01*
X134611905Y-104973429D01*
X134564286Y-105163905D01*
X134516667Y-105259143D01*
X134469048Y-105306762D01*
X134373810Y-105354381D01*
X134278571Y-105354381D01*
X134183333Y-105306762D01*
X134135714Y-105259143D01*
X134088095Y-105163905D01*
X134040476Y-104973429D01*
X134040476Y-104735333D01*
X134088095Y-104544857D01*
X134135714Y-104449619D01*
X134183333Y-104402000D01*
X134278571Y-104354381D01*
X132961143Y-95885143D02*
X132913524Y-95932762D01*
X132770667Y-95980381D01*
X132675429Y-95980381D01*
X132532571Y-95932762D01*
X132437333Y-95837524D01*
X132389714Y-95742286D01*
X132342095Y-95551810D01*
X132342095Y-95408952D01*
X132389714Y-95218476D01*
X132437333Y-95123238D01*
X132532571Y-95028000D01*
X132675429Y-94980381D01*
X132770667Y-94980381D01*
X132913524Y-95028000D01*
X132961143Y-95075619D01*
X133913524Y-95980381D02*
X133342095Y-95980381D01*
X133627809Y-95980381D02*
X133627809Y-94980381D01*
X133532571Y-95123238D01*
X133437333Y-95218476D01*
X133342095Y-95266095D01*
X134865905Y-95980381D02*
X134294476Y-95980381D01*
X134580190Y-95980381D02*
X134580190Y-94980381D01*
X134484952Y-95123238D01*
X134389714Y-95218476D01*
X134294476Y-95266095D01*
X131437143Y-86717143D02*
X131389524Y-86764762D01*
X131246667Y-86812381D01*
X131151429Y-86812381D01*
X131008571Y-86764762D01*
X130913333Y-86669524D01*
X130865714Y-86574286D01*
X130818095Y-86383810D01*
X130818095Y-86240952D01*
X130865714Y-86050476D01*
X130913333Y-85955238D01*
X131008571Y-85860000D01*
X131151429Y-85812381D01*
X131246667Y-85812381D01*
X131389524Y-85860000D01*
X131437143Y-85907619D01*
X132389524Y-86812381D02*
X131818095Y-86812381D01*
X132103809Y-86812381D02*
X132103809Y-85812381D01*
X132008571Y-85955238D01*
X131913333Y-86050476D01*
X131818095Y-86098095D01*
X132770476Y-85907619D02*
X132818095Y-85860000D01*
X132913333Y-85812381D01*
X133151429Y-85812381D01*
X133246667Y-85860000D01*
X133294286Y-85907619D01*
X133341905Y-86002857D01*
X133341905Y-86098095D01*
X133294286Y-86240952D01*
X132722857Y-86812381D01*
X133341905Y-86812381D01*
X128897143Y-110085143D02*
X128849524Y-110132762D01*
X128706667Y-110180381D01*
X128611429Y-110180381D01*
X128468571Y-110132762D01*
X128373333Y-110037524D01*
X128325714Y-109942286D01*
X128278095Y-109751810D01*
X128278095Y-109608952D01*
X128325714Y-109418476D01*
X128373333Y-109323238D01*
X128468571Y-109228000D01*
X128611429Y-109180381D01*
X128706667Y-109180381D01*
X128849524Y-109228000D01*
X128897143Y-109275619D01*
X129849524Y-110180381D02*
X129278095Y-110180381D01*
X129563809Y-110180381D02*
X129563809Y-109180381D01*
X129468571Y-109323238D01*
X129373333Y-109418476D01*
X129278095Y-109466095D01*
X130182857Y-109180381D02*
X130801905Y-109180381D01*
X130468571Y-109561333D01*
X130611429Y-109561333D01*
X130706667Y-109608952D01*
X130754286Y-109656571D01*
X130801905Y-109751810D01*
X130801905Y-109989905D01*
X130754286Y-110085143D01*
X130706667Y-110132762D01*
X130611429Y-110180381D01*
X130325714Y-110180381D01*
X130230476Y-110132762D01*
X130182857Y-110085143D01*
X128897143Y-100814143D02*
X128849524Y-100861762D01*
X128706667Y-100909381D01*
X128611429Y-100909381D01*
X128468571Y-100861762D01*
X128373333Y-100766524D01*
X128325714Y-100671286D01*
X128278095Y-100480810D01*
X128278095Y-100337952D01*
X128325714Y-100147476D01*
X128373333Y-100052238D01*
X128468571Y-99957000D01*
X128611429Y-99909381D01*
X128706667Y-99909381D01*
X128849524Y-99957000D01*
X128897143Y-100004619D01*
X129849524Y-100909381D02*
X129278095Y-100909381D01*
X129563809Y-100909381D02*
X129563809Y-99909381D01*
X129468571Y-100052238D01*
X129373333Y-100147476D01*
X129278095Y-100195095D01*
X130706667Y-100242714D02*
X130706667Y-100909381D01*
X130468571Y-99861762D02*
X130230476Y-100576048D01*
X130849524Y-100576048D01*
X128008143Y-91924143D02*
X127960524Y-91971762D01*
X127817667Y-92019381D01*
X127722429Y-92019381D01*
X127579571Y-91971762D01*
X127484333Y-91876524D01*
X127436714Y-91781286D01*
X127389095Y-91590810D01*
X127389095Y-91447952D01*
X127436714Y-91257476D01*
X127484333Y-91162238D01*
X127579571Y-91067000D01*
X127722429Y-91019381D01*
X127817667Y-91019381D01*
X127960524Y-91067000D01*
X128008143Y-91114619D01*
X128960524Y-92019381D02*
X128389095Y-92019381D01*
X128674809Y-92019381D02*
X128674809Y-91019381D01*
X128579571Y-91162238D01*
X128484333Y-91257476D01*
X128389095Y-91305095D01*
X129865286Y-91019381D02*
X129389095Y-91019381D01*
X129341476Y-91495571D01*
X129389095Y-91447952D01*
X129484333Y-91400333D01*
X129722429Y-91400333D01*
X129817667Y-91447952D01*
X129865286Y-91495571D01*
X129912905Y-91590810D01*
X129912905Y-91828905D01*
X129865286Y-91924143D01*
X129817667Y-91971762D01*
X129722429Y-92019381D01*
X129484333Y-92019381D01*
X129389095Y-91971762D01*
X129341476Y-91924143D01*
X136517143Y-85447143D02*
X136469524Y-85494762D01*
X136326667Y-85542381D01*
X136231429Y-85542381D01*
X136088571Y-85494762D01*
X135993333Y-85399524D01*
X135945714Y-85304286D01*
X135898095Y-85113810D01*
X135898095Y-84970952D01*
X135945714Y-84780476D01*
X135993333Y-84685238D01*
X136088571Y-84590000D01*
X136231429Y-84542381D01*
X136326667Y-84542381D01*
X136469524Y-84590000D01*
X136517143Y-84637619D01*
X137469524Y-85542381D02*
X136898095Y-85542381D01*
X137183809Y-85542381D02*
X137183809Y-84542381D01*
X137088571Y-84685238D01*
X136993333Y-84780476D01*
X136898095Y-84828095D01*
X138326667Y-84542381D02*
X138136190Y-84542381D01*
X138040952Y-84590000D01*
X137993333Y-84637619D01*
X137898095Y-84780476D01*
X137850476Y-84970952D01*
X137850476Y-85351905D01*
X137898095Y-85447143D01*
X137945714Y-85494762D01*
X138040952Y-85542381D01*
X138231429Y-85542381D01*
X138326667Y-85494762D01*
X138374286Y-85447143D01*
X138421905Y-85351905D01*
X138421905Y-85113810D01*
X138374286Y-85018571D01*
X138326667Y-84970952D01*
X138231429Y-84923333D01*
X138040952Y-84923333D01*
X137945714Y-84970952D01*
X137898095Y-85018571D01*
X137850476Y-85113810D01*
X136263143Y-105259143D02*
X136215524Y-105306762D01*
X136072667Y-105354381D01*
X135977429Y-105354381D01*
X135834571Y-105306762D01*
X135739333Y-105211524D01*
X135691714Y-105116286D01*
X135644095Y-104925810D01*
X135644095Y-104782952D01*
X135691714Y-104592476D01*
X135739333Y-104497238D01*
X135834571Y-104402000D01*
X135977429Y-104354381D01*
X136072667Y-104354381D01*
X136215524Y-104402000D01*
X136263143Y-104449619D01*
X137215524Y-105354381D02*
X136644095Y-105354381D01*
X136929809Y-105354381D02*
X136929809Y-104354381D01*
X136834571Y-104497238D01*
X136739333Y-104592476D01*
X136644095Y-104640095D01*
X137548857Y-104354381D02*
X138215524Y-104354381D01*
X137786952Y-105354381D01*
X136263143Y-96115143D02*
X136215524Y-96162762D01*
X136072667Y-96210381D01*
X135977429Y-96210381D01*
X135834571Y-96162762D01*
X135739333Y-96067524D01*
X135691714Y-95972286D01*
X135644095Y-95781810D01*
X135644095Y-95638952D01*
X135691714Y-95448476D01*
X135739333Y-95353238D01*
X135834571Y-95258000D01*
X135977429Y-95210381D01*
X136072667Y-95210381D01*
X136215524Y-95258000D01*
X136263143Y-95305619D01*
X137215524Y-96210381D02*
X136644095Y-96210381D01*
X136929809Y-96210381D02*
X136929809Y-95210381D01*
X136834571Y-95353238D01*
X136739333Y-95448476D01*
X136644095Y-95496095D01*
X137786952Y-95638952D02*
X137691714Y-95591333D01*
X137644095Y-95543714D01*
X137596476Y-95448476D01*
X137596476Y-95400857D01*
X137644095Y-95305619D01*
X137691714Y-95258000D01*
X137786952Y-95210381D01*
X137977429Y-95210381D01*
X138072667Y-95258000D01*
X138120286Y-95305619D01*
X138167905Y-95400857D01*
X138167905Y-95448476D01*
X138120286Y-95543714D01*
X138072667Y-95591333D01*
X137977429Y-95638952D01*
X137786952Y-95638952D01*
X137691714Y-95686571D01*
X137644095Y-95734190D01*
X137596476Y-95829429D01*
X137596476Y-96019905D01*
X137644095Y-96115143D01*
X137691714Y-96162762D01*
X137786952Y-96210381D01*
X137977429Y-96210381D01*
X138072667Y-96162762D01*
X138120286Y-96115143D01*
X138167905Y-96019905D01*
X138167905Y-95829429D01*
X138120286Y-95734190D01*
X138072667Y-95686571D01*
X137977429Y-95638952D01*
X135767143Y-86971143D02*
X135719524Y-87018762D01*
X135576667Y-87066381D01*
X135481429Y-87066381D01*
X135338571Y-87018762D01*
X135243333Y-86923524D01*
X135195714Y-86828286D01*
X135148095Y-86637810D01*
X135148095Y-86494952D01*
X135195714Y-86304476D01*
X135243333Y-86209238D01*
X135338571Y-86114000D01*
X135481429Y-86066381D01*
X135576667Y-86066381D01*
X135719524Y-86114000D01*
X135767143Y-86161619D01*
X136719524Y-87066381D02*
X136148095Y-87066381D01*
X136433809Y-87066381D02*
X136433809Y-86066381D01*
X136338571Y-86209238D01*
X136243333Y-86304476D01*
X136148095Y-86352095D01*
X137195714Y-87066381D02*
X137386190Y-87066381D01*
X137481429Y-87018762D01*
X137529048Y-86971143D01*
X137624286Y-86828286D01*
X137671905Y-86637810D01*
X137671905Y-86256857D01*
X137624286Y-86161619D01*
X137576667Y-86114000D01*
X137481429Y-86066381D01*
X137290952Y-86066381D01*
X137195714Y-86114000D01*
X137148095Y-86161619D01*
X137100476Y-86256857D01*
X137100476Y-86494952D01*
X137148095Y-86590190D01*
X137195714Y-86637810D01*
X137290952Y-86685429D01*
X137481429Y-86685429D01*
X137576667Y-86637810D01*
X137624286Y-86590190D01*
X137671905Y-86494952D01*
X127246143Y-84939143D02*
X127198524Y-84986762D01*
X127055667Y-85034381D01*
X126960429Y-85034381D01*
X126817571Y-84986762D01*
X126722333Y-84891524D01*
X126674714Y-84796286D01*
X126627095Y-84605810D01*
X126627095Y-84462952D01*
X126674714Y-84272476D01*
X126722333Y-84177238D01*
X126817571Y-84082000D01*
X126960429Y-84034381D01*
X127055667Y-84034381D01*
X127198524Y-84082000D01*
X127246143Y-84129619D01*
X127627095Y-84129619D02*
X127674714Y-84082000D01*
X127769952Y-84034381D01*
X128008048Y-84034381D01*
X128103286Y-84082000D01*
X128150905Y-84129619D01*
X128198524Y-84224857D01*
X128198524Y-84320095D01*
X128150905Y-84462952D01*
X127579476Y-85034381D01*
X128198524Y-85034381D01*
X128817571Y-84034381D02*
X128912810Y-84034381D01*
X129008048Y-84082000D01*
X129055667Y-84129619D01*
X129103286Y-84224857D01*
X129150905Y-84415333D01*
X129150905Y-84653429D01*
X129103286Y-84843905D01*
X129055667Y-84939143D01*
X129008048Y-84986762D01*
X128912810Y-85034381D01*
X128817571Y-85034381D01*
X128722333Y-84986762D01*
X128674714Y-84939143D01*
X128627095Y-84843905D01*
X128579476Y-84653429D01*
X128579476Y-84415333D01*
X128627095Y-84224857D01*
X128674714Y-84129619D01*
X128722333Y-84082000D01*
X128817571Y-84034381D01*
X125452143Y-83065857D02*
X125499762Y-83113476D01*
X125547381Y-83256333D01*
X125547381Y-83351571D01*
X125499762Y-83494429D01*
X125404524Y-83589667D01*
X125309286Y-83637286D01*
X125118810Y-83684905D01*
X124975952Y-83684905D01*
X124785476Y-83637286D01*
X124690238Y-83589667D01*
X124595000Y-83494429D01*
X124547381Y-83351571D01*
X124547381Y-83256333D01*
X124595000Y-83113476D01*
X124642619Y-83065857D01*
X124642619Y-82684905D02*
X124595000Y-82637286D01*
X124547381Y-82542048D01*
X124547381Y-82303952D01*
X124595000Y-82208714D01*
X124642619Y-82161095D01*
X124737857Y-82113476D01*
X124833095Y-82113476D01*
X124975952Y-82161095D01*
X125547381Y-82732524D01*
X125547381Y-82113476D01*
X125547381Y-81161095D02*
X125547381Y-81732524D01*
X125547381Y-81446810D02*
X124547381Y-81446810D01*
X124690238Y-81542048D01*
X124785476Y-81637286D01*
X124833095Y-81732524D01*
X140983643Y-93067143D02*
X140936024Y-93114762D01*
X140793167Y-93162381D01*
X140697929Y-93162381D01*
X140555071Y-93114762D01*
X140459833Y-93019524D01*
X140412214Y-92924286D01*
X140364595Y-92733810D01*
X140364595Y-92590952D01*
X140412214Y-92400476D01*
X140459833Y-92305238D01*
X140555071Y-92210000D01*
X140697929Y-92162381D01*
X140793167Y-92162381D01*
X140936024Y-92210000D01*
X140983643Y-92257619D01*
X141364595Y-92257619D02*
X141412214Y-92210000D01*
X141507452Y-92162381D01*
X141745548Y-92162381D01*
X141840786Y-92210000D01*
X141888405Y-92257619D01*
X141936024Y-92352857D01*
X141936024Y-92448095D01*
X141888405Y-92590952D01*
X141316976Y-93162381D01*
X141936024Y-93162381D01*
X142269357Y-92162381D02*
X142888405Y-92162381D01*
X142555071Y-92543333D01*
X142697929Y-92543333D01*
X142793167Y-92590952D01*
X142840786Y-92638571D01*
X142888405Y-92733810D01*
X142888405Y-92971905D01*
X142840786Y-93067143D01*
X142793167Y-93114762D01*
X142697929Y-93162381D01*
X142412214Y-93162381D01*
X142316976Y-93114762D01*
X142269357Y-93067143D01*
X163012381Y-108688095D02*
X162012381Y-108688095D01*
X162012381Y-108450000D01*
X162060000Y-108307142D01*
X162155238Y-108211904D01*
X162250476Y-108164285D01*
X162440952Y-108116666D01*
X162583810Y-108116666D01*
X162774286Y-108164285D01*
X162869524Y-108211904D01*
X162964762Y-108307142D01*
X163012381Y-108450000D01*
X163012381Y-108688095D01*
X163012381Y-107164285D02*
X163012381Y-107735714D01*
X163012381Y-107450000D02*
X162012381Y-107450000D01*
X162155238Y-107545238D01*
X162250476Y-107640476D01*
X162298095Y-107735714D01*
X153566905Y-109598381D02*
X153566905Y-108598381D01*
X153805000Y-108598381D01*
X153947858Y-108646000D01*
X154043096Y-108741238D01*
X154090715Y-108836476D01*
X154138334Y-109026952D01*
X154138334Y-109169810D01*
X154090715Y-109360286D01*
X154043096Y-109455524D01*
X153947858Y-109550762D01*
X153805000Y-109598381D01*
X153566905Y-109598381D01*
X154519286Y-108693619D02*
X154566905Y-108646000D01*
X154662143Y-108598381D01*
X154900239Y-108598381D01*
X154995477Y-108646000D01*
X155043096Y-108693619D01*
X155090715Y-108788857D01*
X155090715Y-108884095D01*
X155043096Y-109026952D01*
X154471667Y-109598381D01*
X155090715Y-109598381D01*
X153566905Y-98242381D02*
X153566905Y-97242381D01*
X153805000Y-97242381D01*
X153947858Y-97290000D01*
X154043096Y-97385238D01*
X154090715Y-97480476D01*
X154138334Y-97670952D01*
X154138334Y-97813810D01*
X154090715Y-98004286D01*
X154043096Y-98099524D01*
X153947858Y-98194762D01*
X153805000Y-98242381D01*
X153566905Y-98242381D01*
X154471667Y-97242381D02*
X155090715Y-97242381D01*
X154757381Y-97623333D01*
X154900239Y-97623333D01*
X154995477Y-97670952D01*
X155043096Y-97718571D01*
X155090715Y-97813810D01*
X155090715Y-98051905D01*
X155043096Y-98147143D01*
X154995477Y-98194762D01*
X154900239Y-98242381D01*
X154614524Y-98242381D01*
X154519286Y-98194762D01*
X154471667Y-98147143D01*
X150391905Y-103068381D02*
X150391905Y-102068381D01*
X150630000Y-102068381D01*
X150772858Y-102116000D01*
X150868096Y-102211238D01*
X150915715Y-102306476D01*
X150963334Y-102496952D01*
X150963334Y-102639810D01*
X150915715Y-102830286D01*
X150868096Y-102925524D01*
X150772858Y-103020762D01*
X150630000Y-103068381D01*
X150391905Y-103068381D01*
X151820477Y-102401714D02*
X151820477Y-103068381D01*
X151582381Y-102020762D02*
X151344286Y-102735048D01*
X151963334Y-102735048D01*
X150645905Y-91257381D02*
X150645905Y-90257381D01*
X150884000Y-90257381D01*
X151026858Y-90305000D01*
X151122096Y-90400238D01*
X151169715Y-90495476D01*
X151217334Y-90685952D01*
X151217334Y-90828810D01*
X151169715Y-91019286D01*
X151122096Y-91114524D01*
X151026858Y-91209762D01*
X150884000Y-91257381D01*
X150645905Y-91257381D01*
X152122096Y-90257381D02*
X151645905Y-90257381D01*
X151598286Y-90733571D01*
X151645905Y-90685952D01*
X151741143Y-90638333D01*
X151979239Y-90638333D01*
X152074477Y-90685952D01*
X152122096Y-90733571D01*
X152169715Y-90828810D01*
X152169715Y-91066905D01*
X152122096Y-91162143D01*
X152074477Y-91209762D01*
X151979239Y-91257381D01*
X151741143Y-91257381D01*
X151645905Y-91209762D01*
X151598286Y-91162143D01*
X153693905Y-95575381D02*
X153693905Y-94575381D01*
X153932000Y-94575381D01*
X154074858Y-94623000D01*
X154170096Y-94718238D01*
X154217715Y-94813476D01*
X154265334Y-95003952D01*
X154265334Y-95146810D01*
X154217715Y-95337286D01*
X154170096Y-95432524D01*
X154074858Y-95527762D01*
X153932000Y-95575381D01*
X153693905Y-95575381D01*
X155122477Y-94575381D02*
X154932000Y-94575381D01*
X154836762Y-94623000D01*
X154789143Y-94670619D01*
X154693905Y-94813476D01*
X154646286Y-95003952D01*
X154646286Y-95384905D01*
X154693905Y-95480143D01*
X154741524Y-95527762D01*
X154836762Y-95575381D01*
X155027239Y-95575381D01*
X155122477Y-95527762D01*
X155170096Y-95480143D01*
X155217715Y-95384905D01*
X155217715Y-95146810D01*
X155170096Y-95051571D01*
X155122477Y-95003952D01*
X155027239Y-94956333D01*
X154836762Y-94956333D01*
X154741524Y-95003952D01*
X154693905Y-95051571D01*
X154646286Y-95146810D01*
X159837381Y-87225095D02*
X158837381Y-87225095D01*
X158837381Y-86987000D01*
X158885000Y-86844142D01*
X158980238Y-86748904D01*
X159075476Y-86701285D01*
X159265952Y-86653666D01*
X159408810Y-86653666D01*
X159599286Y-86701285D01*
X159694524Y-86748904D01*
X159789762Y-86844142D01*
X159837381Y-86987000D01*
X159837381Y-87225095D01*
X158837381Y-86320333D02*
X158837381Y-85653666D01*
X159837381Y-86082238D01*
X171292781Y-107684866D02*
X170816590Y-108018200D01*
X171292781Y-108256295D02*
X170292781Y-108256295D01*
X170292781Y-107875342D01*
X170340400Y-107780104D01*
X170388019Y-107732485D01*
X170483257Y-107684866D01*
X170626114Y-107684866D01*
X170721352Y-107732485D01*
X170768971Y-107780104D01*
X170816590Y-107875342D01*
X170816590Y-108256295D01*
X171292781Y-106732485D02*
X171292781Y-107303914D01*
X171292781Y-107018200D02*
X170292781Y-107018200D01*
X170435638Y-107113438D01*
X170530876Y-107208676D01*
X170578495Y-107303914D01*
X127452381Y-107354666D02*
X126976190Y-107688000D01*
X127452381Y-107926095D02*
X126452381Y-107926095D01*
X126452381Y-107545142D01*
X126500000Y-107449904D01*
X126547619Y-107402285D01*
X126642857Y-107354666D01*
X126785714Y-107354666D01*
X126880952Y-107402285D01*
X126928571Y-107449904D01*
X126976190Y-107545142D01*
X126976190Y-107926095D01*
X126547619Y-106973714D02*
X126500000Y-106926095D01*
X126452381Y-106830857D01*
X126452381Y-106592761D01*
X126500000Y-106497523D01*
X126547619Y-106449904D01*
X126642857Y-106402285D01*
X126738095Y-106402285D01*
X126880952Y-106449904D01*
X127452381Y-107021333D01*
X127452381Y-106402285D01*
X127071381Y-98337666D02*
X126595190Y-98671000D01*
X127071381Y-98909095D02*
X126071381Y-98909095D01*
X126071381Y-98528142D01*
X126119000Y-98432904D01*
X126166619Y-98385285D01*
X126261857Y-98337666D01*
X126404714Y-98337666D01*
X126499952Y-98385285D01*
X126547571Y-98432904D01*
X126595190Y-98528142D01*
X126595190Y-98909095D01*
X126071381Y-98004333D02*
X126071381Y-97385285D01*
X126452333Y-97718619D01*
X126452333Y-97575761D01*
X126499952Y-97480523D01*
X126547571Y-97432904D01*
X126642810Y-97385285D01*
X126880905Y-97385285D01*
X126976143Y-97432904D01*
X127023762Y-97480523D01*
X127071381Y-97575761D01*
X127071381Y-97861476D01*
X127023762Y-97956714D01*
X126976143Y-98004333D01*
X126182381Y-89130166D02*
X125706190Y-89463500D01*
X126182381Y-89701595D02*
X125182381Y-89701595D01*
X125182381Y-89320642D01*
X125230000Y-89225404D01*
X125277619Y-89177785D01*
X125372857Y-89130166D01*
X125515714Y-89130166D01*
X125610952Y-89177785D01*
X125658571Y-89225404D01*
X125706190Y-89320642D01*
X125706190Y-89701595D01*
X125515714Y-88273023D02*
X126182381Y-88273023D01*
X125134762Y-88511119D02*
X125849048Y-88749214D01*
X125849048Y-88130166D01*
X122388381Y-106933905D02*
X123197905Y-106933905D01*
X123293143Y-106886286D01*
X123340762Y-106838667D01*
X123388381Y-106743429D01*
X123388381Y-106552952D01*
X123340762Y-106457714D01*
X123293143Y-106410095D01*
X123197905Y-106362476D01*
X122388381Y-106362476D01*
X123388381Y-105362476D02*
X123388381Y-105933905D01*
X123388381Y-105648191D02*
X122388381Y-105648191D01*
X122531238Y-105743429D01*
X122626476Y-105838667D01*
X122674095Y-105933905D01*
X143383095Y-83907381D02*
X143383095Y-84716905D01*
X143430714Y-84812143D01*
X143478333Y-84859762D01*
X143573571Y-84907381D01*
X143764048Y-84907381D01*
X143859286Y-84859762D01*
X143906905Y-84812143D01*
X143954524Y-84716905D01*
X143954524Y-83907381D01*
X144383095Y-84002619D02*
X144430714Y-83955000D01*
X144525952Y-83907381D01*
X144764048Y-83907381D01*
X144859286Y-83955000D01*
X144906905Y-84002619D01*
X144954524Y-84097857D01*
X144954524Y-84193095D01*
X144906905Y-84335952D01*
X144335476Y-84907381D01*
X144954524Y-84907381D01*
X133623619Y-111720381D02*
X133623619Y-112529905D01*
X133671238Y-112625143D01*
X133718857Y-112672762D01*
X133814095Y-112720381D01*
X134004572Y-112720381D01*
X134099810Y-112672762D01*
X134147429Y-112625143D01*
X134195048Y-112529905D01*
X134195048Y-111720381D01*
X135099810Y-112053714D02*
X135099810Y-112720381D01*
X134861714Y-111672762D02*
X134623619Y-112387048D01*
X135242667Y-112387048D01*
X133731095Y-102322381D02*
X133731095Y-103131905D01*
X133778714Y-103227143D01*
X133826333Y-103274762D01*
X133921571Y-103322381D01*
X134112048Y-103322381D01*
X134207286Y-103274762D01*
X134254905Y-103227143D01*
X134302524Y-103131905D01*
X134302524Y-102322381D01*
X135254905Y-102322381D02*
X134778714Y-102322381D01*
X134731095Y-102798571D01*
X134778714Y-102750952D01*
X134873952Y-102703333D01*
X135112048Y-102703333D01*
X135207286Y-102750952D01*
X135254905Y-102798571D01*
X135302524Y-102893810D01*
X135302524Y-103131905D01*
X135254905Y-103227143D01*
X135207286Y-103274762D01*
X135112048Y-103322381D01*
X134873952Y-103322381D01*
X134778714Y-103274762D01*
X134731095Y-103227143D01*
X133096095Y-92924381D02*
X133096095Y-93733905D01*
X133143714Y-93829143D01*
X133191333Y-93876762D01*
X133286571Y-93924381D01*
X133477048Y-93924381D01*
X133572286Y-93876762D01*
X133619905Y-93829143D01*
X133667524Y-93733905D01*
X133667524Y-92924381D01*
X134572286Y-92924381D02*
X134381809Y-92924381D01*
X134286571Y-92972000D01*
X134238952Y-93019619D01*
X134143714Y-93162476D01*
X134096095Y-93352952D01*
X134096095Y-93733905D01*
X134143714Y-93829143D01*
X134191333Y-93876762D01*
X134286571Y-93924381D01*
X134477048Y-93924381D01*
X134572286Y-93876762D01*
X134619905Y-93829143D01*
X134667524Y-93733905D01*
X134667524Y-93495810D01*
X134619905Y-93400571D01*
X134572286Y-93352952D01*
X134477048Y-93305333D01*
X134286571Y-93305333D01*
X134191333Y-93352952D01*
X134143714Y-93400571D01*
X134096095Y-93495810D01*
X131318095Y-83907381D02*
X131318095Y-84716905D01*
X131365714Y-84812143D01*
X131413333Y-84859762D01*
X131508571Y-84907381D01*
X131699048Y-84907381D01*
X131794286Y-84859762D01*
X131841905Y-84812143D01*
X131889524Y-84716905D01*
X131889524Y-83907381D01*
X132270476Y-83907381D02*
X132937143Y-83907381D01*
X132508571Y-84907381D01*
X143383095Y-106442181D02*
X143383095Y-107251705D01*
X143430714Y-107346943D01*
X143478333Y-107394562D01*
X143573571Y-107442181D01*
X143764048Y-107442181D01*
X143859286Y-107394562D01*
X143906905Y-107346943D01*
X143954524Y-107251705D01*
X143954524Y-106442181D01*
X144573571Y-106870752D02*
X144478333Y-106823133D01*
X144430714Y-106775514D01*
X144383095Y-106680276D01*
X144383095Y-106632657D01*
X144430714Y-106537419D01*
X144478333Y-106489800D01*
X144573571Y-106442181D01*
X144764048Y-106442181D01*
X144859286Y-106489800D01*
X144906905Y-106537419D01*
X144954524Y-106632657D01*
X144954524Y-106680276D01*
X144906905Y-106775514D01*
X144859286Y-106823133D01*
X144764048Y-106870752D01*
X144573571Y-106870752D01*
X144478333Y-106918371D01*
X144430714Y-106965990D01*
X144383095Y-107061229D01*
X144383095Y-107251705D01*
X144430714Y-107346943D01*
X144478333Y-107394562D01*
X144573571Y-107442181D01*
X144764048Y-107442181D01*
X144859286Y-107394562D01*
X144906905Y-107346943D01*
X144954524Y-107251705D01*
X144954524Y-107061229D01*
X144906905Y-106965990D01*
X144859286Y-106918371D01*
X144764048Y-106870752D01*
X144501143Y-94524881D02*
X144501143Y-95334405D01*
X144548762Y-95429643D01*
X144596381Y-95477262D01*
X144691619Y-95524881D01*
X144882096Y-95524881D01*
X144977334Y-95477262D01*
X145024953Y-95429643D01*
X145072572Y-95334405D01*
X145072572Y-94524881D01*
X145596381Y-95524881D02*
X145786857Y-95524881D01*
X145882096Y-95477262D01*
X145929715Y-95429643D01*
X146024953Y-95286786D01*
X146072572Y-95096310D01*
X146072572Y-94715357D01*
X146024953Y-94620119D01*
X145977334Y-94572500D01*
X145882096Y-94524881D01*
X145691619Y-94524881D01*
X145596381Y-94572500D01*
X145548762Y-94620119D01*
X145501143Y-94715357D01*
X145501143Y-94953452D01*
X145548762Y-95048690D01*
X145596381Y-95096310D01*
X145691619Y-95143929D01*
X145882096Y-95143929D01*
X145977334Y-95096310D01*
X146024953Y-95048690D01*
X146072572Y-94953452D01*
M02*
