G04 #@! TF.FileFunction,Paste,Top*
%FSLAX46Y46*%
G04 Gerber Fmt 4.6, Leading zero omitted, Abs format (unit mm)*
G04 Created by KiCad (PCBNEW 4.0.6) date 12/06/17 20:22:11*
%MOMM*%
%LPD*%
G01*
G04 APERTURE LIST*
%ADD10C,0.100000*%
%ADD11R,0.600000X0.500000*%
%ADD12R,1.450000X0.450000*%
%ADD13R,0.500000X0.600000*%
%ADD14R,0.750000X0.800000*%
%ADD15R,1.000000X1.250000*%
%ADD16R,0.800000X0.750000*%
%ADD17R,1.400000X1.300000*%
%ADD18R,0.700000X1.300000*%
%ADD19R,0.900000X0.500000*%
%ADD20R,0.300000X0.400000*%
%ADD21R,0.400000X0.300000*%
%ADD22R,1.060000X0.650000*%
%ADD23R,1.100000X0.250000*%
%ADD24R,1.350000X0.400000*%
%ADD25R,1.550000X0.600000*%
G04 APERTURE END LIST*
D10*
D11*
X140335000Y-106680000D03*
X141435000Y-106680000D03*
D12*
X118335000Y-93808000D03*
X118335000Y-94458000D03*
X118335000Y-95108000D03*
X118335000Y-95758000D03*
X118335000Y-96408000D03*
X118335000Y-97058000D03*
X118335000Y-97708000D03*
X124235000Y-97708000D03*
X124235000Y-97058000D03*
X124235000Y-96408000D03*
X124235000Y-95758000D03*
X124235000Y-95108000D03*
X124235000Y-94458000D03*
X124235000Y-93808000D03*
D13*
X116205000Y-95843000D03*
X116205000Y-96943000D03*
D14*
X118491000Y-101878000D03*
X118491000Y-103378000D03*
D13*
X116713000Y-103547000D03*
X116713000Y-102447000D03*
D15*
X169275000Y-110490000D03*
X167275000Y-110490000D03*
D11*
X120057000Y-100330000D03*
X118957000Y-100330000D03*
X122513000Y-100203000D03*
X123613000Y-100203000D03*
X124418000Y-101346000D03*
X125518000Y-101346000D03*
D16*
X144030000Y-90170000D03*
X145530000Y-90170000D03*
D14*
X141436497Y-89725163D03*
X141436497Y-88225163D03*
D16*
X134366000Y-106426000D03*
X132866000Y-106426000D03*
X134354000Y-97028000D03*
X132854000Y-97028000D03*
X132830000Y-87884000D03*
X131330000Y-87884000D03*
D14*
X130302000Y-106450000D03*
X130302000Y-107950000D03*
X129921000Y-97548000D03*
X129921000Y-99048000D03*
X129540000Y-88277000D03*
X129540000Y-89777000D03*
D16*
X136283000Y-83185000D03*
X137783000Y-83185000D03*
X136156000Y-106426000D03*
X137656000Y-106426000D03*
X136156000Y-97028000D03*
X137656000Y-97028000D03*
X135660000Y-87884000D03*
X137160000Y-87884000D03*
D14*
X127952500Y-81431000D03*
X127952500Y-82931000D03*
D13*
X126492000Y-83100000D03*
X126492000Y-82000000D03*
D11*
X142536000Y-94996000D03*
X141436000Y-94996000D03*
D17*
X160655000Y-109400000D03*
X160655000Y-106500000D03*
X154305000Y-107495000D03*
X154305000Y-104595000D03*
X154305000Y-102415000D03*
X154305000Y-99515000D03*
X151130000Y-101071000D03*
X151130000Y-98171000D03*
X151384000Y-92223000D03*
X151384000Y-95123000D03*
X154305000Y-90625000D03*
X154305000Y-93525000D03*
X157480000Y-85037000D03*
X157480000Y-87937000D03*
D18*
X169225000Y-107950000D03*
X167325000Y-107950000D03*
D19*
X128270000Y-106450000D03*
X128270000Y-107950000D03*
X128016000Y-97548000D03*
X128016000Y-99048000D03*
X127635000Y-88277000D03*
X127635000Y-89777000D03*
D20*
X120590000Y-104708000D03*
X121240000Y-104708000D03*
X121890000Y-104708000D03*
X122540000Y-104708000D03*
D21*
X123190000Y-104058000D03*
X123190000Y-103408000D03*
X123190000Y-102758000D03*
X123190000Y-102108000D03*
D20*
X122540000Y-101458000D03*
X121890000Y-101458000D03*
X121240000Y-101458000D03*
X120590000Y-101458000D03*
D21*
X119940000Y-102108000D03*
X119940000Y-102758000D03*
X119940000Y-103408000D03*
X119940000Y-104058000D03*
D22*
X145551688Y-88252163D03*
X145551688Y-87302163D03*
X145551688Y-86352163D03*
X143351688Y-86352163D03*
X143351688Y-88252163D03*
D23*
X132235524Y-108258000D03*
X132235524Y-108758000D03*
X132235524Y-109258000D03*
X132235524Y-109758000D03*
X132235524Y-110258000D03*
X136535524Y-110258000D03*
X136535524Y-109758000D03*
X136535524Y-109258000D03*
X136535524Y-108758000D03*
X136535524Y-108258000D03*
X132343000Y-99457000D03*
X132343000Y-99957000D03*
X132343000Y-100457000D03*
X132343000Y-100957000D03*
X132343000Y-101457000D03*
X136643000Y-101457000D03*
X136643000Y-100957000D03*
X136643000Y-100457000D03*
X136643000Y-99957000D03*
X136643000Y-99457000D03*
X131581000Y-89932000D03*
X131581000Y-90432000D03*
X131581000Y-90932000D03*
X131581000Y-91432000D03*
X131581000Y-91932000D03*
X135881000Y-91932000D03*
X135881000Y-91432000D03*
X135881000Y-90932000D03*
X135881000Y-90432000D03*
X135881000Y-89932000D03*
D24*
X134230000Y-83117000D03*
X134230000Y-82467000D03*
X134230000Y-81817000D03*
X134230000Y-81167000D03*
X129930000Y-81167000D03*
X129930000Y-81817000D03*
X129930000Y-82467000D03*
X129930000Y-83117000D03*
D25*
X140650000Y-108585000D03*
X140650000Y-109855000D03*
X140650000Y-111125000D03*
X140650000Y-112395000D03*
X146050000Y-112395000D03*
X146050000Y-111125000D03*
X146050000Y-109855000D03*
X146050000Y-108585000D03*
X142563048Y-96667500D03*
X142563048Y-97937500D03*
X142563048Y-99207500D03*
X142563048Y-100477500D03*
X147963048Y-100477500D03*
X147963048Y-99207500D03*
X147963048Y-97937500D03*
X147963048Y-96667500D03*
M02*
