%FSLAX45Y45*%
G04 Gerber Fmt 4.5, Leading zero omitted, Abs format (unit mm)*
G04 Created by KiCad (PCBNEW 4.0.6) date 12/01/17 17:51:23*
%MOMM*%
%LPD*%
G01*
G04 APERTURE LIST*
%ADD10C,0.127000*%
%ADD11C,0.150000*%
%ADD12C,0.200000*%
%ADD13C,0.300000*%
G04 APERTURE END LIST*
D10*
D11*
X11277600Y-11938000D02*
X11277600Y-7810500D01*
X17627600Y-11938000D02*
X11277600Y-11938000D01*
X17627600Y-7810500D02*
X17627600Y-11938000D01*
X11277600Y-7810500D02*
X17627600Y-7810500D01*
D12*
X11518900Y-9575800D02*
X11544300Y-9601200D01*
X11544300Y-9575800D02*
X11518900Y-9601200D01*
X11544300Y-10210800D02*
X11569700Y-10236200D01*
X11569700Y-10210800D02*
X11544300Y-10236200D01*
X11544300Y-10337800D02*
X11569700Y-10363200D01*
X11569700Y-10337800D02*
X11544300Y-10363200D01*
X11620500Y-9791700D02*
X11645900Y-9817100D01*
X11645900Y-9791700D02*
X11620500Y-9817100D01*
X11671300Y-10083800D02*
X11696700Y-10109200D01*
X11696700Y-10083800D02*
X11671300Y-10109200D01*
X11734800Y-10020300D02*
X11760200Y-10045700D01*
X11760200Y-10020300D02*
X11734800Y-10045700D01*
X11988800Y-10591800D02*
X12014200Y-10617200D01*
X12014200Y-10591800D02*
X11988800Y-10617200D01*
X12115800Y-10591800D02*
X12141200Y-10617200D01*
X12141200Y-10591800D02*
X12115800Y-10617200D01*
X12306300Y-9893300D02*
X12331700Y-9918700D01*
X12331700Y-9893300D02*
X12306300Y-9918700D01*
X12433300Y-10274300D02*
X12458700Y-10299700D01*
X12458700Y-10274300D02*
X12433300Y-10299700D01*
X12433300Y-10464800D02*
X12458700Y-10490200D01*
X12458700Y-10464800D02*
X12433300Y-10490200D01*
X12560300Y-8432800D02*
X12585700Y-8458200D01*
X12585700Y-8432800D02*
X12560300Y-8458200D01*
X12560300Y-9372600D02*
X12585700Y-9398000D01*
X12585700Y-9372600D02*
X12560300Y-9398000D01*
X12560300Y-10274300D02*
X12585700Y-10299700D01*
X12585700Y-10274300D02*
X12560300Y-10299700D01*
X12585700Y-9601200D02*
X12611100Y-9626600D01*
X12611100Y-9601200D02*
X12585700Y-9626600D01*
X12598400Y-9525000D02*
X12623800Y-9550400D01*
X12623800Y-9525000D02*
X12598400Y-9550400D01*
X12611100Y-9448800D02*
X12636500Y-9474200D01*
X12636500Y-9448800D02*
X12611100Y-9474200D01*
X12623800Y-8051800D02*
X12649200Y-8077200D01*
X12649200Y-8051800D02*
X12623800Y-8077200D01*
X12738100Y-8699500D02*
X12763500Y-8724900D01*
X12763500Y-8699500D02*
X12738100Y-8724900D01*
X12750800Y-7988300D02*
X12776200Y-8013700D01*
X12776200Y-7988300D02*
X12750800Y-8013700D01*
X12788900Y-9639300D02*
X12814300Y-9664700D01*
X12814300Y-9639300D02*
X12788900Y-9664700D01*
X12839700Y-10528300D02*
X12865100Y-10553700D01*
X12865100Y-10528300D02*
X12839700Y-10553700D01*
X12941300Y-8699500D02*
X12966700Y-8724900D01*
X12966700Y-8699500D02*
X12941300Y-8724900D01*
X12966700Y-9613900D02*
X12992100Y-9639300D01*
X12992100Y-9613900D02*
X12966700Y-9639300D01*
X12966700Y-11010900D02*
X12992100Y-11036300D01*
X12992100Y-11010900D02*
X12966700Y-11036300D01*
X12992100Y-9131300D02*
X13017500Y-9156700D01*
X13017500Y-9131300D02*
X12992100Y-9156700D01*
X12992100Y-9232900D02*
X13017500Y-9258300D01*
X13017500Y-9232900D02*
X12992100Y-9258300D01*
X12992100Y-10502900D02*
X13017500Y-10528300D01*
X13017500Y-10502900D02*
X12992100Y-10528300D01*
X13068300Y-10121900D02*
X13093700Y-10147300D01*
X13093700Y-10121900D02*
X13068300Y-10147300D01*
X13068300Y-10223500D02*
X13093700Y-10248900D01*
X13093700Y-10223500D02*
X13068300Y-10248900D01*
X13068300Y-11061700D02*
X13093700Y-11087100D01*
X13093700Y-11061700D02*
X13068300Y-11087100D01*
X13119100Y-8648700D02*
X13144500Y-8674100D01*
X13144500Y-8648700D02*
X13119100Y-8674100D01*
X13144500Y-9690100D02*
X13169900Y-9715500D01*
X13169900Y-9690100D02*
X13144500Y-9715500D01*
X13347700Y-10477500D02*
X13373100Y-10502900D01*
X13373100Y-10477500D02*
X13347700Y-10502900D01*
X13423900Y-8775700D02*
X13449300Y-8801100D01*
X13449300Y-8775700D02*
X13423900Y-8801100D01*
X13449300Y-7988300D02*
X13474700Y-8013700D01*
X13474700Y-7988300D02*
X13449300Y-8013700D01*
X13449300Y-8623300D02*
X13474700Y-8648700D01*
X13474700Y-8623300D02*
X13449300Y-8648700D01*
X13449300Y-10502900D02*
X13474700Y-10528300D01*
X13474700Y-10502900D02*
X13449300Y-10528300D01*
X13451820Y-9550400D02*
X13477220Y-9575800D01*
X13477220Y-9550400D02*
X13451820Y-9575800D01*
X13576300Y-9347200D02*
X13601700Y-9372600D01*
X13601700Y-9347200D02*
X13576300Y-9372600D01*
X13576300Y-10502900D02*
X13601700Y-10528300D01*
X13601700Y-10502900D02*
X13576300Y-10528300D01*
X13589000Y-9563100D02*
X13614400Y-9588500D01*
X13614400Y-9563100D02*
X13589000Y-9588500D01*
X13625830Y-10351770D02*
X13651230Y-10377170D01*
X13651230Y-10351770D02*
X13625830Y-10377170D01*
X13677900Y-8648700D02*
X13703300Y-8674100D01*
X13703300Y-8648700D02*
X13677900Y-8674100D01*
X13728700Y-9563100D02*
X13754100Y-9588500D01*
X13754100Y-9563100D02*
X13728700Y-9588500D01*
X13728700Y-10502900D02*
X13754100Y-10528300D01*
X13754100Y-10502900D02*
X13728700Y-10528300D01*
X13741400Y-9080500D02*
X13766800Y-9105900D01*
X13766800Y-9080500D02*
X13741400Y-9105900D01*
X13804900Y-11061700D02*
X13830300Y-11087100D01*
X13830300Y-11061700D02*
X13804900Y-11087100D01*
X13817600Y-10033000D02*
X13843000Y-10058400D01*
X13843000Y-10033000D02*
X13817600Y-10058400D01*
X13830300Y-11226800D02*
X13855700Y-11252200D01*
X13855700Y-11226800D02*
X13830300Y-11252200D01*
X13893800Y-8305800D02*
X13919200Y-8331200D01*
X13919200Y-8305800D02*
X13893800Y-8331200D01*
X13957300Y-8178800D02*
X13982700Y-8204200D01*
X13982700Y-8178800D02*
X13957300Y-8204200D01*
X14020800Y-9956800D02*
X14046200Y-9982200D01*
X14046200Y-9956800D02*
X14020800Y-9982200D01*
X14020800Y-10528300D02*
X14046200Y-10553700D01*
X14046200Y-10528300D02*
X14020800Y-10553700D01*
X14084300Y-8686800D02*
X14109700Y-8712200D01*
X14109700Y-8686800D02*
X14084300Y-8712200D01*
X14084300Y-9131300D02*
X14109700Y-9156700D01*
X14109700Y-9131300D02*
X14084300Y-9156700D01*
X14109700Y-9385300D02*
X14135100Y-9410700D01*
X14135100Y-9385300D02*
X14109700Y-9410700D01*
X14211300Y-10210800D02*
X14236700Y-10236200D01*
X14236700Y-10210800D02*
X14211300Y-10236200D01*
X14236700Y-9385300D02*
X14262100Y-9410700D01*
X14262100Y-9385300D02*
X14236700Y-9410700D01*
X14274800Y-10655300D02*
X14300200Y-10680700D01*
X14300200Y-10655300D02*
X14274800Y-10680700D01*
X14401800Y-9131300D02*
X14427200Y-9156700D01*
X14427200Y-9131300D02*
X14401800Y-9156700D01*
X14719300Y-8686800D02*
X14744700Y-8712200D01*
X14744700Y-8686800D02*
X14719300Y-8712200D01*
X15100300Y-9067800D02*
X15125700Y-9093200D01*
X15125700Y-9067800D02*
X15100300Y-9093200D01*
X15100300Y-10337800D02*
X15125700Y-10363200D01*
X15125700Y-10337800D02*
X15100300Y-10363200D01*
X15227300Y-10337800D02*
X15252700Y-10363200D01*
X15252700Y-10337800D02*
X15227300Y-10363200D01*
X15417800Y-8877300D02*
X15443200Y-8902700D01*
X15443200Y-8877300D02*
X15417800Y-8902700D01*
X15430500Y-9791700D02*
X15455900Y-9817100D01*
X15455900Y-9791700D02*
X15430500Y-9817100D01*
X15544800Y-8496300D02*
X15570200Y-8521700D01*
X15570200Y-8496300D02*
X15544800Y-8521700D01*
X15608300Y-10718800D02*
X15633700Y-10744200D01*
X15633700Y-10718800D02*
X15608300Y-10744200D01*
X15989300Y-11099800D02*
X16014700Y-11125200D01*
X16014700Y-11099800D02*
X15989300Y-11125200D01*
X16560800Y-10782300D02*
X16586200Y-10807700D01*
X16586200Y-10782300D02*
X16560800Y-10807700D01*
X16560800Y-11036300D02*
X16586200Y-11061700D01*
X16586200Y-11036300D02*
X16560800Y-11061700D01*
X15834417Y-9289842D02*
G75*
G03X15834417Y-9289842I-45000J0D01*
G01*
X15834417Y-9543842D02*
G75*
G03X15834417Y-9543842I-45000J0D01*
G01*
X15834417Y-9797842D02*
G75*
G03X15834417Y-9797842I-45000J0D01*
G01*
X15834417Y-10051842D02*
G75*
G03X15834417Y-10051842I-45000J0D01*
G01*
X16088417Y-9416842D02*
G75*
G03X16088417Y-9416842I-45000J0D01*
G01*
X16088417Y-9670842D02*
G75*
G03X16088417Y-9670842I-45000J0D01*
G01*
X16088417Y-9924842D02*
G75*
G03X16088417Y-9924842I-45000J0D01*
G01*
X16088417Y-10178842D02*
G75*
G03X16088417Y-10178842I-45000J0D01*
G01*
X16983417Y-8879342D02*
X16983417Y-9039342D01*
X16903417Y-8959342D02*
X17063417Y-8959342D01*
X16983417Y-10429342D02*
X16983417Y-10589342D01*
X16903417Y-10509342D02*
X17063417Y-10509342D01*
D13*
X11541528Y-12411214D02*
X11541528Y-12111214D01*
X11612957Y-12111214D01*
X11655814Y-12125500D01*
X11684386Y-12154071D01*
X11698671Y-12182643D01*
X11712957Y-12239786D01*
X11712957Y-12282643D01*
X11698671Y-12339786D01*
X11684386Y-12368357D01*
X11655814Y-12396929D01*
X11612957Y-12411214D01*
X11541528Y-12411214D01*
X11841528Y-12411214D02*
X11841528Y-12211214D01*
X11841528Y-12268357D02*
X11855814Y-12239786D01*
X11870100Y-12225500D01*
X11898671Y-12211214D01*
X11927243Y-12211214D01*
X12027243Y-12411214D02*
X12027243Y-12211214D01*
X12027243Y-12111214D02*
X12012957Y-12125500D01*
X12027243Y-12139786D01*
X12041528Y-12125500D01*
X12027243Y-12111214D01*
X12027243Y-12139786D01*
X12212957Y-12411214D02*
X12184386Y-12396929D01*
X12170100Y-12368357D01*
X12170100Y-12111214D01*
X12370100Y-12411214D02*
X12341528Y-12396929D01*
X12327243Y-12368357D01*
X12327243Y-12111214D01*
X12712957Y-12411214D02*
X12712957Y-12111214D01*
X12812957Y-12325500D01*
X12912957Y-12111214D01*
X12912957Y-12411214D01*
X13184386Y-12411214D02*
X13184386Y-12254071D01*
X13170100Y-12225500D01*
X13141528Y-12211214D01*
X13084386Y-12211214D01*
X13055814Y-12225500D01*
X13184386Y-12396929D02*
X13155814Y-12411214D01*
X13084386Y-12411214D01*
X13055814Y-12396929D01*
X13041528Y-12368357D01*
X13041528Y-12339786D01*
X13055814Y-12311214D01*
X13084386Y-12296929D01*
X13155814Y-12296929D01*
X13184386Y-12282643D01*
X13327243Y-12211214D02*
X13327243Y-12511214D01*
X13327243Y-12225500D02*
X13355814Y-12211214D01*
X13412957Y-12211214D01*
X13441528Y-12225500D01*
X13455814Y-12239786D01*
X13470100Y-12268357D01*
X13470100Y-12354071D01*
X13455814Y-12382643D01*
X13441528Y-12396929D01*
X13412957Y-12411214D01*
X13355814Y-12411214D01*
X13327243Y-12396929D01*
X13598671Y-12382643D02*
X13612957Y-12396929D01*
X13598671Y-12411214D01*
X13584386Y-12396929D01*
X13598671Y-12382643D01*
X13598671Y-12411214D01*
X13598671Y-12225500D02*
X13612957Y-12239786D01*
X13598671Y-12254071D01*
X13584386Y-12239786D01*
X13598671Y-12225500D01*
X13598671Y-12254071D01*
X11244700Y-12892800D02*
X11270100Y-12918200D01*
X11270100Y-12892800D02*
X11244700Y-12918200D01*
X11598671Y-12741214D02*
X11627243Y-12741214D01*
X11655814Y-12755500D01*
X11670100Y-12769786D01*
X11684386Y-12798357D01*
X11698671Y-12855500D01*
X11698671Y-12926929D01*
X11684386Y-12984071D01*
X11670100Y-13012643D01*
X11655814Y-13026929D01*
X11627243Y-13041214D01*
X11598671Y-13041214D01*
X11570100Y-13026929D01*
X11555814Y-13012643D01*
X11541528Y-12984071D01*
X11527243Y-12926929D01*
X11527243Y-12855500D01*
X11541528Y-12798357D01*
X11555814Y-12769786D01*
X11570100Y-12755500D01*
X11598671Y-12741214D01*
X11827243Y-13012643D02*
X11841528Y-13026929D01*
X11827243Y-13041214D01*
X11812957Y-13026929D01*
X11827243Y-13012643D01*
X11827243Y-13041214D01*
X11955814Y-12769786D02*
X11970100Y-12755500D01*
X11998671Y-12741214D01*
X12070100Y-12741214D01*
X12098671Y-12755500D01*
X12112957Y-12769786D01*
X12127243Y-12798357D01*
X12127243Y-12826929D01*
X12112957Y-12869786D01*
X11941528Y-13041214D01*
X12127243Y-13041214D01*
X12398671Y-12741214D02*
X12255814Y-12741214D01*
X12241528Y-12884071D01*
X12255814Y-12869786D01*
X12284386Y-12855500D01*
X12355814Y-12855500D01*
X12384386Y-12869786D01*
X12398671Y-12884071D01*
X12412957Y-12912643D01*
X12412957Y-12984071D01*
X12398671Y-13012643D01*
X12384386Y-13026929D01*
X12355814Y-13041214D01*
X12284386Y-13041214D01*
X12255814Y-13026929D01*
X12241528Y-13012643D01*
X12541528Y-13041214D02*
X12541528Y-12841214D01*
X12541528Y-12869786D02*
X12555814Y-12855500D01*
X12584386Y-12841214D01*
X12627243Y-12841214D01*
X12655814Y-12855500D01*
X12670100Y-12884071D01*
X12670100Y-13041214D01*
X12670100Y-12884071D02*
X12684386Y-12855500D01*
X12712957Y-12841214D01*
X12755814Y-12841214D01*
X12784386Y-12855500D01*
X12798671Y-12884071D01*
X12798671Y-13041214D01*
X12941528Y-13041214D02*
X12941528Y-12841214D01*
X12941528Y-12869786D02*
X12955814Y-12855500D01*
X12984386Y-12841214D01*
X13027243Y-12841214D01*
X13055814Y-12855500D01*
X13070100Y-12884071D01*
X13070100Y-13041214D01*
X13070100Y-12884071D02*
X13084386Y-12855500D01*
X13112957Y-12841214D01*
X13155814Y-12841214D01*
X13184386Y-12855500D01*
X13198671Y-12884071D01*
X13198671Y-13041214D01*
X13784386Y-12726929D02*
X13527243Y-13112643D01*
X14170100Y-12741214D02*
X14198671Y-12741214D01*
X14227243Y-12755500D01*
X14241528Y-12769786D01*
X14255814Y-12798357D01*
X14270100Y-12855500D01*
X14270100Y-12926929D01*
X14255814Y-12984071D01*
X14241528Y-13012643D01*
X14227243Y-13026929D01*
X14198671Y-13041214D01*
X14170100Y-13041214D01*
X14141528Y-13026929D01*
X14127243Y-13012643D01*
X14112957Y-12984071D01*
X14098671Y-12926929D01*
X14098671Y-12855500D01*
X14112957Y-12798357D01*
X14127243Y-12769786D01*
X14141528Y-12755500D01*
X14170100Y-12741214D01*
X14398671Y-13012643D02*
X14412957Y-13026929D01*
X14398671Y-13041214D01*
X14384386Y-13026929D01*
X14398671Y-13012643D01*
X14398671Y-13041214D01*
X14598671Y-12741214D02*
X14627243Y-12741214D01*
X14655814Y-12755500D01*
X14670100Y-12769786D01*
X14684385Y-12798357D01*
X14698671Y-12855500D01*
X14698671Y-12926929D01*
X14684385Y-12984071D01*
X14670100Y-13012643D01*
X14655814Y-13026929D01*
X14627243Y-13041214D01*
X14598671Y-13041214D01*
X14570100Y-13026929D01*
X14555814Y-13012643D01*
X14541528Y-12984071D01*
X14527243Y-12926929D01*
X14527243Y-12855500D01*
X14541528Y-12798357D01*
X14555814Y-12769786D01*
X14570100Y-12755500D01*
X14598671Y-12741214D01*
X14984385Y-13041214D02*
X14812957Y-13041214D01*
X14898671Y-13041214D02*
X14898671Y-12741214D01*
X14870100Y-12784071D01*
X14841528Y-12812643D01*
X14812957Y-12826929D01*
X15170100Y-12741214D02*
X15198671Y-12741214D01*
X15227243Y-12755500D01*
X15241528Y-12769786D01*
X15255814Y-12798357D01*
X15270100Y-12855500D01*
X15270100Y-12926929D01*
X15255814Y-12984071D01*
X15241528Y-13012643D01*
X15227243Y-13026929D01*
X15198671Y-13041214D01*
X15170100Y-13041214D01*
X15141528Y-13026929D01*
X15127243Y-13012643D01*
X15112957Y-12984071D01*
X15098671Y-12926929D01*
X15098671Y-12855500D01*
X15112957Y-12798357D01*
X15127243Y-12769786D01*
X15141528Y-12755500D01*
X15170100Y-12741214D01*
X15384386Y-12741214D02*
X15384386Y-12798357D01*
X15498671Y-12741214D02*
X15498671Y-12798357D01*
X15941528Y-13155500D02*
X15927243Y-13141214D01*
X15898671Y-13098357D01*
X15884385Y-13069786D01*
X15870100Y-13026929D01*
X15855814Y-12955500D01*
X15855814Y-12898357D01*
X15870100Y-12826929D01*
X15884385Y-12784071D01*
X15898671Y-12755500D01*
X15927243Y-12712643D01*
X15941528Y-12698357D01*
X16027243Y-12741214D02*
X16227243Y-12741214D01*
X16098671Y-13041214D01*
X16327243Y-12769786D02*
X16341528Y-12755500D01*
X16370100Y-12741214D01*
X16441528Y-12741214D01*
X16470100Y-12755500D01*
X16484385Y-12769786D01*
X16498671Y-12798357D01*
X16498671Y-12826929D01*
X16484385Y-12869786D01*
X16312957Y-13041214D01*
X16498671Y-13041214D01*
X16855814Y-13041214D02*
X16855814Y-12741214D01*
X16984386Y-13041214D02*
X16984386Y-12884071D01*
X16970100Y-12855500D01*
X16941528Y-12841214D01*
X16898671Y-12841214D01*
X16870100Y-12855500D01*
X16855814Y-12869786D01*
X17170100Y-13041214D02*
X17141528Y-13026929D01*
X17127243Y-13012643D01*
X17112957Y-12984071D01*
X17112957Y-12898357D01*
X17127243Y-12869786D01*
X17141528Y-12855500D01*
X17170100Y-12841214D01*
X17212957Y-12841214D01*
X17241528Y-12855500D01*
X17255814Y-12869786D01*
X17270100Y-12898357D01*
X17270100Y-12984071D01*
X17255814Y-13012643D01*
X17241528Y-13026929D01*
X17212957Y-13041214D01*
X17170100Y-13041214D01*
X17441528Y-13041214D02*
X17412957Y-13026929D01*
X17398671Y-12998357D01*
X17398671Y-12741214D01*
X17670100Y-13026929D02*
X17641529Y-13041214D01*
X17584386Y-13041214D01*
X17555814Y-13026929D01*
X17541529Y-12998357D01*
X17541529Y-12884071D01*
X17555814Y-12855500D01*
X17584386Y-12841214D01*
X17641529Y-12841214D01*
X17670100Y-12855500D01*
X17684386Y-12884071D01*
X17684386Y-12912643D01*
X17541529Y-12941214D01*
X17798671Y-13026929D02*
X17827243Y-13041214D01*
X17884386Y-13041214D01*
X17912957Y-13026929D01*
X17927243Y-12998357D01*
X17927243Y-12984071D01*
X17912957Y-12955500D01*
X17884386Y-12941214D01*
X17841529Y-12941214D01*
X17812957Y-12926929D01*
X17798671Y-12898357D01*
X17798671Y-12884071D01*
X17812957Y-12855500D01*
X17841529Y-12841214D01*
X17884386Y-12841214D01*
X17912957Y-12855500D01*
X18027243Y-13155500D02*
X18041529Y-13141214D01*
X18070100Y-13098357D01*
X18084386Y-13069786D01*
X18098671Y-13026929D01*
X18112957Y-12955500D01*
X18112957Y-12898357D01*
X18098671Y-12826929D01*
X18084386Y-12784071D01*
X18070100Y-12755500D01*
X18041529Y-12712643D01*
X18027243Y-12698357D01*
X11270100Y-13301500D02*
G75*
G03X11270100Y-13301500I-45000J0D01*
G01*
X11598671Y-13137214D02*
X11627243Y-13137214D01*
X11655814Y-13151500D01*
X11670100Y-13165786D01*
X11684386Y-13194357D01*
X11698671Y-13251500D01*
X11698671Y-13322929D01*
X11684386Y-13380071D01*
X11670100Y-13408643D01*
X11655814Y-13422929D01*
X11627243Y-13437214D01*
X11598671Y-13437214D01*
X11570100Y-13422929D01*
X11555814Y-13408643D01*
X11541528Y-13380071D01*
X11527243Y-13322929D01*
X11527243Y-13251500D01*
X11541528Y-13194357D01*
X11555814Y-13165786D01*
X11570100Y-13151500D01*
X11598671Y-13137214D01*
X11827243Y-13408643D02*
X11841528Y-13422929D01*
X11827243Y-13437214D01*
X11812957Y-13422929D01*
X11827243Y-13408643D01*
X11827243Y-13437214D01*
X11984386Y-13437214D02*
X12041528Y-13437214D01*
X12070100Y-13422929D01*
X12084386Y-13408643D01*
X12112957Y-13365786D01*
X12127243Y-13308643D01*
X12127243Y-13194357D01*
X12112957Y-13165786D01*
X12098671Y-13151500D01*
X12070100Y-13137214D01*
X12012957Y-13137214D01*
X11984386Y-13151500D01*
X11970100Y-13165786D01*
X11955814Y-13194357D01*
X11955814Y-13265786D01*
X11970100Y-13294357D01*
X11984386Y-13308643D01*
X12012957Y-13322929D01*
X12070100Y-13322929D01*
X12098671Y-13308643D01*
X12112957Y-13294357D01*
X12127243Y-13265786D01*
X12312957Y-13137214D02*
X12341528Y-13137214D01*
X12370100Y-13151500D01*
X12384386Y-13165786D01*
X12398671Y-13194357D01*
X12412957Y-13251500D01*
X12412957Y-13322929D01*
X12398671Y-13380071D01*
X12384386Y-13408643D01*
X12370100Y-13422929D01*
X12341528Y-13437214D01*
X12312957Y-13437214D01*
X12284386Y-13422929D01*
X12270100Y-13408643D01*
X12255814Y-13380071D01*
X12241528Y-13322929D01*
X12241528Y-13251500D01*
X12255814Y-13194357D01*
X12270100Y-13165786D01*
X12284386Y-13151500D01*
X12312957Y-13137214D01*
X12541528Y-13437214D02*
X12541528Y-13237214D01*
X12541528Y-13265786D02*
X12555814Y-13251500D01*
X12584386Y-13237214D01*
X12627243Y-13237214D01*
X12655814Y-13251500D01*
X12670100Y-13280071D01*
X12670100Y-13437214D01*
X12670100Y-13280071D02*
X12684386Y-13251500D01*
X12712957Y-13237214D01*
X12755814Y-13237214D01*
X12784386Y-13251500D01*
X12798671Y-13280071D01*
X12798671Y-13437214D01*
X12941528Y-13437214D02*
X12941528Y-13237214D01*
X12941528Y-13265786D02*
X12955814Y-13251500D01*
X12984386Y-13237214D01*
X13027243Y-13237214D01*
X13055814Y-13251500D01*
X13070100Y-13280071D01*
X13070100Y-13437214D01*
X13070100Y-13280071D02*
X13084386Y-13251500D01*
X13112957Y-13237214D01*
X13155814Y-13237214D01*
X13184386Y-13251500D01*
X13198671Y-13280071D01*
X13198671Y-13437214D01*
X13784386Y-13122929D02*
X13527243Y-13508643D01*
X14170100Y-13137214D02*
X14198671Y-13137214D01*
X14227243Y-13151500D01*
X14241528Y-13165786D01*
X14255814Y-13194357D01*
X14270100Y-13251500D01*
X14270100Y-13322929D01*
X14255814Y-13380071D01*
X14241528Y-13408643D01*
X14227243Y-13422929D01*
X14198671Y-13437214D01*
X14170100Y-13437214D01*
X14141528Y-13422929D01*
X14127243Y-13408643D01*
X14112957Y-13380071D01*
X14098671Y-13322929D01*
X14098671Y-13251500D01*
X14112957Y-13194357D01*
X14127243Y-13165786D01*
X14141528Y-13151500D01*
X14170100Y-13137214D01*
X14398671Y-13408643D02*
X14412957Y-13422929D01*
X14398671Y-13437214D01*
X14384386Y-13422929D01*
X14398671Y-13408643D01*
X14398671Y-13437214D01*
X14598671Y-13137214D02*
X14627243Y-13137214D01*
X14655814Y-13151500D01*
X14670100Y-13165786D01*
X14684385Y-13194357D01*
X14698671Y-13251500D01*
X14698671Y-13322929D01*
X14684385Y-13380071D01*
X14670100Y-13408643D01*
X14655814Y-13422929D01*
X14627243Y-13437214D01*
X14598671Y-13437214D01*
X14570100Y-13422929D01*
X14555814Y-13408643D01*
X14541528Y-13380071D01*
X14527243Y-13322929D01*
X14527243Y-13251500D01*
X14541528Y-13194357D01*
X14555814Y-13165786D01*
X14570100Y-13151500D01*
X14598671Y-13137214D01*
X14798671Y-13137214D02*
X14984385Y-13137214D01*
X14884385Y-13251500D01*
X14927243Y-13251500D01*
X14955814Y-13265786D01*
X14970100Y-13280071D01*
X14984385Y-13308643D01*
X14984385Y-13380071D01*
X14970100Y-13408643D01*
X14955814Y-13422929D01*
X14927243Y-13437214D01*
X14841528Y-13437214D01*
X14812957Y-13422929D01*
X14798671Y-13408643D01*
X15255814Y-13137214D02*
X15112957Y-13137214D01*
X15098671Y-13280071D01*
X15112957Y-13265786D01*
X15141528Y-13251500D01*
X15212957Y-13251500D01*
X15241528Y-13265786D01*
X15255814Y-13280071D01*
X15270100Y-13308643D01*
X15270100Y-13380071D01*
X15255814Y-13408643D01*
X15241528Y-13422929D01*
X15212957Y-13437214D01*
X15141528Y-13437214D01*
X15112957Y-13422929D01*
X15098671Y-13408643D01*
X15384386Y-13137214D02*
X15384386Y-13194357D01*
X15498671Y-13137214D02*
X15498671Y-13194357D01*
X15941528Y-13551500D02*
X15927243Y-13537214D01*
X15898671Y-13494357D01*
X15884385Y-13465786D01*
X15870100Y-13422929D01*
X15855814Y-13351500D01*
X15855814Y-13294357D01*
X15870100Y-13222929D01*
X15884385Y-13180071D01*
X15898671Y-13151500D01*
X15927243Y-13108643D01*
X15941528Y-13094357D01*
X16098671Y-13265786D02*
X16070100Y-13251500D01*
X16055814Y-13237214D01*
X16041528Y-13208643D01*
X16041528Y-13194357D01*
X16055814Y-13165786D01*
X16070100Y-13151500D01*
X16098671Y-13137214D01*
X16155814Y-13137214D01*
X16184385Y-13151500D01*
X16198671Y-13165786D01*
X16212957Y-13194357D01*
X16212957Y-13208643D01*
X16198671Y-13237214D01*
X16184385Y-13251500D01*
X16155814Y-13265786D01*
X16098671Y-13265786D01*
X16070100Y-13280071D01*
X16055814Y-13294357D01*
X16041528Y-13322929D01*
X16041528Y-13380071D01*
X16055814Y-13408643D01*
X16070100Y-13422929D01*
X16098671Y-13437214D01*
X16155814Y-13437214D01*
X16184385Y-13422929D01*
X16198671Y-13408643D01*
X16212957Y-13380071D01*
X16212957Y-13322929D01*
X16198671Y-13294357D01*
X16184385Y-13280071D01*
X16155814Y-13265786D01*
X16570100Y-13437214D02*
X16570100Y-13137214D01*
X16698671Y-13437214D02*
X16698671Y-13280071D01*
X16684385Y-13251500D01*
X16655814Y-13237214D01*
X16612957Y-13237214D01*
X16584385Y-13251500D01*
X16570100Y-13265786D01*
X16884386Y-13437214D02*
X16855814Y-13422929D01*
X16841528Y-13408643D01*
X16827243Y-13380071D01*
X16827243Y-13294357D01*
X16841528Y-13265786D01*
X16855814Y-13251500D01*
X16884386Y-13237214D01*
X16927243Y-13237214D01*
X16955814Y-13251500D01*
X16970100Y-13265786D01*
X16984386Y-13294357D01*
X16984386Y-13380071D01*
X16970100Y-13408643D01*
X16955814Y-13422929D01*
X16927243Y-13437214D01*
X16884386Y-13437214D01*
X17155814Y-13437214D02*
X17127243Y-13422929D01*
X17112957Y-13394357D01*
X17112957Y-13137214D01*
X17384386Y-13422929D02*
X17355814Y-13437214D01*
X17298671Y-13437214D01*
X17270100Y-13422929D01*
X17255814Y-13394357D01*
X17255814Y-13280071D01*
X17270100Y-13251500D01*
X17298671Y-13237214D01*
X17355814Y-13237214D01*
X17384386Y-13251500D01*
X17398671Y-13280071D01*
X17398671Y-13308643D01*
X17255814Y-13337214D01*
X17512957Y-13422929D02*
X17541529Y-13437214D01*
X17598671Y-13437214D01*
X17627243Y-13422929D01*
X17641529Y-13394357D01*
X17641529Y-13380071D01*
X17627243Y-13351500D01*
X17598671Y-13337214D01*
X17555814Y-13337214D01*
X17527243Y-13322929D01*
X17512957Y-13294357D01*
X17512957Y-13280071D01*
X17527243Y-13251500D01*
X17555814Y-13237214D01*
X17598671Y-13237214D01*
X17627243Y-13251500D01*
X17741528Y-13551500D02*
X17755814Y-13537214D01*
X17784386Y-13494357D01*
X17798671Y-13465786D01*
X17812957Y-13422929D01*
X17827243Y-13351500D01*
X17827243Y-13294357D01*
X17812957Y-13222929D01*
X17798671Y-13180071D01*
X17784386Y-13151500D01*
X17755814Y-13108643D01*
X17741528Y-13094357D01*
X11190100Y-13617500D02*
X11190100Y-13777500D01*
X11110100Y-13697500D02*
X11270100Y-13697500D01*
X11698671Y-13833214D02*
X11527243Y-13833214D01*
X11612957Y-13833214D02*
X11612957Y-13533214D01*
X11584386Y-13576071D01*
X11555814Y-13604643D01*
X11527243Y-13618929D01*
X11827243Y-13804643D02*
X11841528Y-13818929D01*
X11827243Y-13833214D01*
X11812957Y-13818929D01*
X11827243Y-13804643D01*
X11827243Y-13833214D01*
X12098671Y-13533214D02*
X12041528Y-13533214D01*
X12012957Y-13547500D01*
X11998671Y-13561786D01*
X11970100Y-13604643D01*
X11955814Y-13661786D01*
X11955814Y-13776071D01*
X11970100Y-13804643D01*
X11984386Y-13818929D01*
X12012957Y-13833214D01*
X12070100Y-13833214D01*
X12098671Y-13818929D01*
X12112957Y-13804643D01*
X12127243Y-13776071D01*
X12127243Y-13704643D01*
X12112957Y-13676071D01*
X12098671Y-13661786D01*
X12070100Y-13647500D01*
X12012957Y-13647500D01*
X11984386Y-13661786D01*
X11970100Y-13676071D01*
X11955814Y-13704643D01*
X12312957Y-13533214D02*
X12341528Y-13533214D01*
X12370100Y-13547500D01*
X12384386Y-13561786D01*
X12398671Y-13590357D01*
X12412957Y-13647500D01*
X12412957Y-13718929D01*
X12398671Y-13776071D01*
X12384386Y-13804643D01*
X12370100Y-13818929D01*
X12341528Y-13833214D01*
X12312957Y-13833214D01*
X12284386Y-13818929D01*
X12270100Y-13804643D01*
X12255814Y-13776071D01*
X12241528Y-13718929D01*
X12241528Y-13647500D01*
X12255814Y-13590357D01*
X12270100Y-13561786D01*
X12284386Y-13547500D01*
X12312957Y-13533214D01*
X12541528Y-13833214D02*
X12541528Y-13633214D01*
X12541528Y-13661786D02*
X12555814Y-13647500D01*
X12584386Y-13633214D01*
X12627243Y-13633214D01*
X12655814Y-13647500D01*
X12670100Y-13676071D01*
X12670100Y-13833214D01*
X12670100Y-13676071D02*
X12684386Y-13647500D01*
X12712957Y-13633214D01*
X12755814Y-13633214D01*
X12784386Y-13647500D01*
X12798671Y-13676071D01*
X12798671Y-13833214D01*
X12941528Y-13833214D02*
X12941528Y-13633214D01*
X12941528Y-13661786D02*
X12955814Y-13647500D01*
X12984386Y-13633214D01*
X13027243Y-13633214D01*
X13055814Y-13647500D01*
X13070100Y-13676071D01*
X13070100Y-13833214D01*
X13070100Y-13676071D02*
X13084386Y-13647500D01*
X13112957Y-13633214D01*
X13155814Y-13633214D01*
X13184386Y-13647500D01*
X13198671Y-13676071D01*
X13198671Y-13833214D01*
X13784386Y-13518929D02*
X13527243Y-13904643D01*
X14170100Y-13533214D02*
X14198671Y-13533214D01*
X14227243Y-13547500D01*
X14241528Y-13561786D01*
X14255814Y-13590357D01*
X14270100Y-13647500D01*
X14270100Y-13718929D01*
X14255814Y-13776071D01*
X14241528Y-13804643D01*
X14227243Y-13818929D01*
X14198671Y-13833214D01*
X14170100Y-13833214D01*
X14141528Y-13818929D01*
X14127243Y-13804643D01*
X14112957Y-13776071D01*
X14098671Y-13718929D01*
X14098671Y-13647500D01*
X14112957Y-13590357D01*
X14127243Y-13561786D01*
X14141528Y-13547500D01*
X14170100Y-13533214D01*
X14398671Y-13804643D02*
X14412957Y-13818929D01*
X14398671Y-13833214D01*
X14384386Y-13818929D01*
X14398671Y-13804643D01*
X14398671Y-13833214D01*
X14598671Y-13533214D02*
X14627243Y-13533214D01*
X14655814Y-13547500D01*
X14670100Y-13561786D01*
X14684385Y-13590357D01*
X14698671Y-13647500D01*
X14698671Y-13718929D01*
X14684385Y-13776071D01*
X14670100Y-13804643D01*
X14655814Y-13818929D01*
X14627243Y-13833214D01*
X14598671Y-13833214D01*
X14570100Y-13818929D01*
X14555814Y-13804643D01*
X14541528Y-13776071D01*
X14527243Y-13718929D01*
X14527243Y-13647500D01*
X14541528Y-13590357D01*
X14555814Y-13561786D01*
X14570100Y-13547500D01*
X14598671Y-13533214D01*
X14955814Y-13533214D02*
X14898671Y-13533214D01*
X14870100Y-13547500D01*
X14855814Y-13561786D01*
X14827243Y-13604643D01*
X14812957Y-13661786D01*
X14812957Y-13776071D01*
X14827243Y-13804643D01*
X14841528Y-13818929D01*
X14870100Y-13833214D01*
X14927243Y-13833214D01*
X14955814Y-13818929D01*
X14970100Y-13804643D01*
X14984385Y-13776071D01*
X14984385Y-13704643D01*
X14970100Y-13676071D01*
X14955814Y-13661786D01*
X14927243Y-13647500D01*
X14870100Y-13647500D01*
X14841528Y-13661786D01*
X14827243Y-13676071D01*
X14812957Y-13704643D01*
X15084385Y-13533214D02*
X15270100Y-13533214D01*
X15170100Y-13647500D01*
X15212957Y-13647500D01*
X15241528Y-13661786D01*
X15255814Y-13676071D01*
X15270100Y-13704643D01*
X15270100Y-13776071D01*
X15255814Y-13804643D01*
X15241528Y-13818929D01*
X15212957Y-13833214D01*
X15127243Y-13833214D01*
X15098671Y-13818929D01*
X15084385Y-13804643D01*
X15384386Y-13533214D02*
X15384386Y-13590357D01*
X15498671Y-13533214D02*
X15498671Y-13590357D01*
X15941528Y-13947500D02*
X15927243Y-13933214D01*
X15898671Y-13890357D01*
X15884385Y-13861786D01*
X15870100Y-13818929D01*
X15855814Y-13747500D01*
X15855814Y-13690357D01*
X15870100Y-13618929D01*
X15884385Y-13576071D01*
X15898671Y-13547500D01*
X15927243Y-13504643D01*
X15941528Y-13490357D01*
X16041528Y-13561786D02*
X16055814Y-13547500D01*
X16084385Y-13533214D01*
X16155814Y-13533214D01*
X16184385Y-13547500D01*
X16198671Y-13561786D01*
X16212957Y-13590357D01*
X16212957Y-13618929D01*
X16198671Y-13661786D01*
X16027243Y-13833214D01*
X16212957Y-13833214D01*
X16570100Y-13833214D02*
X16570100Y-13533214D01*
X16698671Y-13833214D02*
X16698671Y-13676071D01*
X16684385Y-13647500D01*
X16655814Y-13633214D01*
X16612957Y-13633214D01*
X16584385Y-13647500D01*
X16570100Y-13661786D01*
X16884386Y-13833214D02*
X16855814Y-13818929D01*
X16841528Y-13804643D01*
X16827243Y-13776071D01*
X16827243Y-13690357D01*
X16841528Y-13661786D01*
X16855814Y-13647500D01*
X16884386Y-13633214D01*
X16927243Y-13633214D01*
X16955814Y-13647500D01*
X16970100Y-13661786D01*
X16984386Y-13690357D01*
X16984386Y-13776071D01*
X16970100Y-13804643D01*
X16955814Y-13818929D01*
X16927243Y-13833214D01*
X16884386Y-13833214D01*
X17155814Y-13833214D02*
X17127243Y-13818929D01*
X17112957Y-13790357D01*
X17112957Y-13533214D01*
X17384386Y-13818929D02*
X17355814Y-13833214D01*
X17298671Y-13833214D01*
X17270100Y-13818929D01*
X17255814Y-13790357D01*
X17255814Y-13676071D01*
X17270100Y-13647500D01*
X17298671Y-13633214D01*
X17355814Y-13633214D01*
X17384386Y-13647500D01*
X17398671Y-13676071D01*
X17398671Y-13704643D01*
X17255814Y-13733214D01*
X17512957Y-13818929D02*
X17541529Y-13833214D01*
X17598671Y-13833214D01*
X17627243Y-13818929D01*
X17641529Y-13790357D01*
X17641529Y-13776071D01*
X17627243Y-13747500D01*
X17598671Y-13733214D01*
X17555814Y-13733214D01*
X17527243Y-13718929D01*
X17512957Y-13690357D01*
X17512957Y-13676071D01*
X17527243Y-13647500D01*
X17555814Y-13633214D01*
X17598671Y-13633214D01*
X17627243Y-13647500D01*
X17741528Y-13947500D02*
X17755814Y-13933214D01*
X17784386Y-13890357D01*
X17798671Y-13861786D01*
X17812957Y-13818929D01*
X17827243Y-13747500D01*
X17827243Y-13690357D01*
X17812957Y-13618929D01*
X17798671Y-13576071D01*
X17784386Y-13547500D01*
X17755814Y-13504643D01*
X17741528Y-13490357D01*
M02*
