G04 #@! TF.FileFunction,Copper,L2,Inr,Plane*
%FSLAX46Y46*%
G04 Gerber Fmt 4.6, Leading zero omitted, Abs format (unit mm)*
G04 Created by KiCad (PCBNEW 4.0.6) date 12/01/17 17:53:21*
%MOMM*%
%LPD*%
G01*
G04 APERTURE LIST*
%ADD10C,0.100000*%
%ADD11C,1.600000*%
%ADD12C,2.500000*%
%ADD13C,0.609600*%
%ADD14C,0.254000*%
G04 APERTURE END LIST*
D10*
D11*
X160434173Y-101788417D03*
X157894173Y-100518417D03*
X160434173Y-99248417D03*
X157894173Y-97978417D03*
X160434173Y-96708417D03*
X157894173Y-95438417D03*
X160434173Y-94168417D03*
X157894173Y-92898417D03*
D12*
X169834173Y-89593417D03*
X169834173Y-105093417D03*
D13*
X129794000Y-110236000D03*
X130810000Y-101346000D03*
X130810000Y-102362000D03*
X130048000Y-105156000D03*
X130810000Y-110744000D03*
X135890000Y-105156000D03*
X133604000Y-104902000D03*
X134366000Y-87884000D03*
X130048000Y-92456000D03*
X130048000Y-91440000D03*
X129540000Y-87122000D03*
X131318000Y-86614000D03*
X136017000Y-95758000D03*
X131572000Y-97028000D03*
X129794000Y-96266000D03*
X125730000Y-93853000D03*
X126238000Y-94615000D03*
X126111000Y-95377000D03*
X125984000Y-96139000D03*
X116332000Y-98044000D03*
X117475000Y-100330000D03*
X116840000Y-100965000D03*
X115570000Y-102235000D03*
X123190000Y-99060000D03*
X125730000Y-102870000D03*
X124460000Y-102870000D03*
X124460000Y-104775000D03*
X121285000Y-106045000D03*
X120015000Y-106045000D03*
X142240000Y-102235000D03*
X140970000Y-91440000D03*
X144145000Y-91440000D03*
X147320000Y-86995000D03*
X138430000Y-112395000D03*
X141224000Y-93980000D03*
X142875000Y-106680000D03*
X134620000Y-80010000D03*
X127635000Y-80010000D03*
X126365000Y-80645000D03*
X139065000Y-83185000D03*
X134645199Y-95631000D03*
X134620000Y-105156000D03*
X137414000Y-105156000D03*
X136906000Y-86614000D03*
X134620000Y-86360000D03*
X137414000Y-95758000D03*
X140970000Y-86995000D03*
X142494000Y-93980000D03*
X140335000Y-105410000D03*
X154432000Y-98044000D03*
X139700000Y-81915000D03*
X140335000Y-99695000D03*
X136385301Y-103644699D03*
X138176000Y-110744000D03*
X135890000Y-93599000D03*
X138303000Y-100457000D03*
X137541000Y-90932000D03*
X128524000Y-105410000D03*
X127508000Y-87122000D03*
X128016000Y-96520000D03*
X115315999Y-95885000D03*
X115570000Y-103505000D03*
X125730000Y-84455000D03*
X155575000Y-85090000D03*
X154305000Y-88900000D03*
X151130000Y-90805000D03*
X151130000Y-103505000D03*
X152400000Y-103505000D03*
X156210000Y-107315000D03*
X165735000Y-110490000D03*
X165735000Y-107950000D03*
X160020000Y-111125000D03*
D14*
G36*
X133604000Y-87316752D02*
X133569741Y-87350951D01*
X133426363Y-87696242D01*
X133426037Y-88070118D01*
X133568812Y-88415659D01*
X133604000Y-88450908D01*
X133604000Y-103962199D01*
X133417882Y-103962037D01*
X133072341Y-104104812D01*
X132807741Y-104368951D01*
X132664363Y-104714242D01*
X132664037Y-105088118D01*
X132806812Y-105433659D01*
X133070951Y-105698259D01*
X133416242Y-105841637D01*
X133604000Y-105841801D01*
X133604000Y-118670000D01*
X113486000Y-118670000D01*
X113486000Y-115377619D01*
X117525613Y-115377619D01*
X117865155Y-116199372D01*
X118493321Y-116828636D01*
X119314481Y-117169611D01*
X120203619Y-117170387D01*
X121025372Y-116830845D01*
X121654636Y-116202679D01*
X121995611Y-115381519D01*
X121996387Y-114492381D01*
X121656845Y-113670628D01*
X121028679Y-113041364D01*
X120207519Y-112700389D01*
X119318381Y-112699613D01*
X118496628Y-113039155D01*
X117867364Y-113667321D01*
X117526389Y-114488481D01*
X117525613Y-115377619D01*
X113486000Y-115377619D01*
X113486000Y-110422118D01*
X128854037Y-110422118D01*
X128996812Y-110767659D01*
X129260951Y-111032259D01*
X129606242Y-111175637D01*
X129971615Y-111175956D01*
X130012812Y-111275659D01*
X130276951Y-111540259D01*
X130622242Y-111683637D01*
X130996118Y-111683963D01*
X131341659Y-111541188D01*
X131606259Y-111277049D01*
X131749637Y-110931758D01*
X131749963Y-110557882D01*
X131607188Y-110212341D01*
X131343049Y-109947741D01*
X130997758Y-109804363D01*
X130632385Y-109804044D01*
X130591188Y-109704341D01*
X130327049Y-109439741D01*
X129981758Y-109296363D01*
X129607882Y-109296037D01*
X129262341Y-109438812D01*
X128997741Y-109702951D01*
X128854363Y-110048242D01*
X128854037Y-110422118D01*
X113486000Y-110422118D01*
X113486000Y-106231118D01*
X119075037Y-106231118D01*
X119217812Y-106576659D01*
X119481951Y-106841259D01*
X119827242Y-106984637D01*
X120201118Y-106984963D01*
X120546659Y-106842188D01*
X120649948Y-106739078D01*
X120751951Y-106841259D01*
X121097242Y-106984637D01*
X121471118Y-106984963D01*
X121816659Y-106842188D01*
X122081259Y-106578049D01*
X122224637Y-106232758D01*
X122224963Y-105858882D01*
X122082188Y-105513341D01*
X121818049Y-105248741D01*
X121472758Y-105105363D01*
X121098882Y-105105037D01*
X120753341Y-105247812D01*
X120650052Y-105350922D01*
X120548049Y-105248741D01*
X120202758Y-105105363D01*
X119828882Y-105105037D01*
X119483341Y-105247812D01*
X119218741Y-105511951D01*
X119075363Y-105857242D01*
X119075037Y-106231118D01*
X113486000Y-106231118D01*
X113486000Y-104961118D01*
X123520037Y-104961118D01*
X123662812Y-105306659D01*
X123926951Y-105571259D01*
X124272242Y-105714637D01*
X124646118Y-105714963D01*
X124991659Y-105572188D01*
X125222130Y-105342118D01*
X129108037Y-105342118D01*
X129250812Y-105687659D01*
X129514951Y-105952259D01*
X129860242Y-106095637D01*
X130234118Y-106095963D01*
X130579659Y-105953188D01*
X130844259Y-105689049D01*
X130987637Y-105343758D01*
X130987963Y-104969882D01*
X130845188Y-104624341D01*
X130581049Y-104359741D01*
X130235758Y-104216363D01*
X129861882Y-104216037D01*
X129516341Y-104358812D01*
X129251741Y-104622951D01*
X129108363Y-104968242D01*
X129108037Y-105342118D01*
X125222130Y-105342118D01*
X125256259Y-105308049D01*
X125399637Y-104962758D01*
X125399963Y-104588882D01*
X125257188Y-104243341D01*
X124993049Y-103978741D01*
X124647758Y-103835363D01*
X124273882Y-103835037D01*
X123928341Y-103977812D01*
X123663741Y-104241951D01*
X123520363Y-104587242D01*
X123520037Y-104961118D01*
X113486000Y-104961118D01*
X113486000Y-102421118D01*
X114630037Y-102421118D01*
X114772812Y-102766659D01*
X115036951Y-103031259D01*
X115382242Y-103174637D01*
X115756118Y-103174963D01*
X116043744Y-103056118D01*
X123520037Y-103056118D01*
X123662812Y-103401659D01*
X123926951Y-103666259D01*
X124272242Y-103809637D01*
X124646118Y-103809963D01*
X124991659Y-103667188D01*
X125094948Y-103564078D01*
X125196951Y-103666259D01*
X125542242Y-103809637D01*
X125916118Y-103809963D01*
X126261659Y-103667188D01*
X126526259Y-103403049D01*
X126669637Y-103057758D01*
X126669963Y-102683882D01*
X126527188Y-102338341D01*
X126263049Y-102073741D01*
X125917758Y-101930363D01*
X125543882Y-101930037D01*
X125198341Y-102072812D01*
X125095052Y-102175922D01*
X124993049Y-102073741D01*
X124647758Y-101930363D01*
X124273882Y-101930037D01*
X123928341Y-102072812D01*
X123663741Y-102336951D01*
X123520363Y-102682242D01*
X123520037Y-103056118D01*
X116043744Y-103056118D01*
X116101659Y-103032188D01*
X116366259Y-102768049D01*
X116509637Y-102422758D01*
X116509963Y-102048882D01*
X116408551Y-101803447D01*
X116652242Y-101904637D01*
X117026118Y-101904963D01*
X117371659Y-101762188D01*
X117602130Y-101532118D01*
X129870037Y-101532118D01*
X130003188Y-101854366D01*
X129870363Y-102174242D01*
X129870037Y-102548118D01*
X130012812Y-102893659D01*
X130276951Y-103158259D01*
X130622242Y-103301637D01*
X130996118Y-103301963D01*
X131341659Y-103159188D01*
X131606259Y-102895049D01*
X131749637Y-102549758D01*
X131749963Y-102175882D01*
X131616812Y-101853634D01*
X131749637Y-101533758D01*
X131749963Y-101159882D01*
X131607188Y-100814341D01*
X131343049Y-100549741D01*
X130997758Y-100406363D01*
X130623882Y-100406037D01*
X130278341Y-100548812D01*
X130013741Y-100812951D01*
X129870363Y-101158242D01*
X129870037Y-101532118D01*
X117602130Y-101532118D01*
X117636259Y-101498049D01*
X117745436Y-101235124D01*
X118006659Y-101127188D01*
X118271259Y-100863049D01*
X118414637Y-100517758D01*
X118414963Y-100143882D01*
X118272188Y-99798341D01*
X118008049Y-99533741D01*
X117662758Y-99390363D01*
X117288882Y-99390037D01*
X116943341Y-99532812D01*
X116678741Y-99796951D01*
X116569564Y-100059876D01*
X116308341Y-100167812D01*
X116043741Y-100431951D01*
X115900363Y-100777242D01*
X115900037Y-101151118D01*
X116001449Y-101396553D01*
X115757758Y-101295363D01*
X115383882Y-101295037D01*
X115038341Y-101437812D01*
X114773741Y-101701951D01*
X114630363Y-102047242D01*
X114630037Y-102421118D01*
X113486000Y-102421118D01*
X113486000Y-99246118D01*
X122250037Y-99246118D01*
X122392812Y-99591659D01*
X122656951Y-99856259D01*
X123002242Y-99999637D01*
X123376118Y-99999963D01*
X123721659Y-99857188D01*
X123986259Y-99593049D01*
X124129637Y-99247758D01*
X124129963Y-98873882D01*
X123987188Y-98528341D01*
X123723049Y-98263741D01*
X123377758Y-98120363D01*
X123003882Y-98120037D01*
X122658341Y-98262812D01*
X122393741Y-98526951D01*
X122250363Y-98872242D01*
X122250037Y-99246118D01*
X113486000Y-99246118D01*
X113486000Y-98230118D01*
X115392037Y-98230118D01*
X115534812Y-98575659D01*
X115798951Y-98840259D01*
X116144242Y-98983637D01*
X116518118Y-98983963D01*
X116863659Y-98841188D01*
X117128259Y-98577049D01*
X117271637Y-98231758D01*
X117271963Y-97857882D01*
X117129188Y-97512341D01*
X116865049Y-97247741D01*
X116784077Y-97214118D01*
X130632037Y-97214118D01*
X130774812Y-97559659D01*
X131038951Y-97824259D01*
X131384242Y-97967637D01*
X131758118Y-97967963D01*
X132103659Y-97825188D01*
X132368259Y-97561049D01*
X132511637Y-97215758D01*
X132511963Y-96841882D01*
X132369188Y-96496341D01*
X132105049Y-96231741D01*
X131759758Y-96088363D01*
X131385882Y-96088037D01*
X131040341Y-96230812D01*
X130775741Y-96494951D01*
X130632363Y-96840242D01*
X130632037Y-97214118D01*
X116784077Y-97214118D01*
X116519758Y-97104363D01*
X116145882Y-97104037D01*
X115800341Y-97246812D01*
X115535741Y-97510951D01*
X115392363Y-97856242D01*
X115392037Y-98230118D01*
X113486000Y-98230118D01*
X113486000Y-94039118D01*
X124790037Y-94039118D01*
X124932812Y-94384659D01*
X125196951Y-94649259D01*
X125298133Y-94691274D01*
X125298037Y-94801118D01*
X125315445Y-94843248D01*
X125314741Y-94843951D01*
X125171363Y-95189242D01*
X125171037Y-95563118D01*
X125188445Y-95605248D01*
X125187741Y-95605951D01*
X125044363Y-95951242D01*
X125044037Y-96325118D01*
X125186812Y-96670659D01*
X125450951Y-96935259D01*
X125796242Y-97078637D01*
X126170118Y-97078963D01*
X126515659Y-96936188D01*
X126780259Y-96672049D01*
X126871582Y-96452118D01*
X128854037Y-96452118D01*
X128996812Y-96797659D01*
X129260951Y-97062259D01*
X129606242Y-97205637D01*
X129980118Y-97205963D01*
X130325659Y-97063188D01*
X130590259Y-96799049D01*
X130733637Y-96453758D01*
X130733963Y-96079882D01*
X130591188Y-95734341D01*
X130327049Y-95469741D01*
X129981758Y-95326363D01*
X129607882Y-95326037D01*
X129262341Y-95468812D01*
X128997741Y-95732951D01*
X128854363Y-96078242D01*
X128854037Y-96452118D01*
X126871582Y-96452118D01*
X126923637Y-96326758D01*
X126923963Y-95952882D01*
X126906555Y-95910752D01*
X126907259Y-95910049D01*
X127050637Y-95564758D01*
X127050963Y-95190882D01*
X127033555Y-95148752D01*
X127034259Y-95148049D01*
X127177637Y-94802758D01*
X127177963Y-94428882D01*
X127035188Y-94083341D01*
X126771049Y-93818741D01*
X126669867Y-93776726D01*
X126669963Y-93666882D01*
X126527188Y-93321341D01*
X126263049Y-93056741D01*
X125917758Y-92913363D01*
X125543882Y-92913037D01*
X125198341Y-93055812D01*
X124933741Y-93319951D01*
X124790363Y-93665242D01*
X124790037Y-94039118D01*
X113486000Y-94039118D01*
X113486000Y-91626118D01*
X129108037Y-91626118D01*
X129241188Y-91948366D01*
X129108363Y-92268242D01*
X129108037Y-92642118D01*
X129250812Y-92987659D01*
X129514951Y-93252259D01*
X129860242Y-93395637D01*
X130234118Y-93395963D01*
X130579659Y-93253188D01*
X130844259Y-92989049D01*
X130987637Y-92643758D01*
X130987963Y-92269882D01*
X130854812Y-91947634D01*
X130987637Y-91627758D01*
X130987963Y-91253882D01*
X130845188Y-90908341D01*
X130581049Y-90643741D01*
X130235758Y-90500363D01*
X129861882Y-90500037D01*
X129516341Y-90642812D01*
X129251741Y-90906951D01*
X129108363Y-91252242D01*
X129108037Y-91626118D01*
X113486000Y-91626118D01*
X113486000Y-87308118D01*
X128600037Y-87308118D01*
X128742812Y-87653659D01*
X129006951Y-87918259D01*
X129352242Y-88061637D01*
X129726118Y-88061963D01*
X130071659Y-87919188D01*
X130336259Y-87655049D01*
X130479637Y-87309758D01*
X130479866Y-87046564D01*
X130520812Y-87145659D01*
X130784951Y-87410259D01*
X131130242Y-87553637D01*
X131504118Y-87553963D01*
X131849659Y-87411188D01*
X132114259Y-87147049D01*
X132257637Y-86801758D01*
X132257963Y-86427882D01*
X132115188Y-86082341D01*
X131851049Y-85817741D01*
X131505758Y-85674363D01*
X131131882Y-85674037D01*
X130786341Y-85816812D01*
X130521741Y-86080951D01*
X130378363Y-86426242D01*
X130378134Y-86689436D01*
X130337188Y-86590341D01*
X130073049Y-86325741D01*
X129727758Y-86182363D01*
X129353882Y-86182037D01*
X129008341Y-86324812D01*
X128743741Y-86588951D01*
X128600363Y-86934242D01*
X128600037Y-87308118D01*
X113486000Y-87308118D01*
X113486000Y-83945119D01*
X117525613Y-83945119D01*
X117865155Y-84766872D01*
X118493321Y-85396136D01*
X119314481Y-85737111D01*
X120203619Y-85737887D01*
X121025372Y-85398345D01*
X121654636Y-84770179D01*
X121995611Y-83949019D01*
X121996387Y-83059881D01*
X121656845Y-82238128D01*
X121028679Y-81608864D01*
X120207519Y-81267889D01*
X119318381Y-81267113D01*
X118496628Y-81606655D01*
X117867364Y-82234821D01*
X117526389Y-83055981D01*
X117525613Y-83945119D01*
X113486000Y-83945119D01*
X113486000Y-80831118D01*
X125425037Y-80831118D01*
X125567812Y-81176659D01*
X125831951Y-81441259D01*
X126177242Y-81584637D01*
X126551118Y-81584963D01*
X126896659Y-81442188D01*
X127161259Y-81178049D01*
X127284214Y-80881942D01*
X127447242Y-80949637D01*
X127821118Y-80949963D01*
X128166659Y-80807188D01*
X128431259Y-80543049D01*
X128574637Y-80197758D01*
X128574963Y-79823882D01*
X128432188Y-79478341D01*
X128168049Y-79213741D01*
X127822758Y-79070363D01*
X127448882Y-79070037D01*
X127103341Y-79212812D01*
X126838741Y-79476951D01*
X126715786Y-79773058D01*
X126552758Y-79705363D01*
X126178882Y-79705037D01*
X125833341Y-79847812D01*
X125568741Y-80111951D01*
X125425363Y-80457242D01*
X125425037Y-80831118D01*
X113486000Y-80831118D01*
X113486000Y-78815000D01*
X133604000Y-78815000D01*
X133604000Y-87316752D01*
X133604000Y-87316752D01*
G37*
X133604000Y-87316752D02*
X133569741Y-87350951D01*
X133426363Y-87696242D01*
X133426037Y-88070118D01*
X133568812Y-88415659D01*
X133604000Y-88450908D01*
X133604000Y-103962199D01*
X133417882Y-103962037D01*
X133072341Y-104104812D01*
X132807741Y-104368951D01*
X132664363Y-104714242D01*
X132664037Y-105088118D01*
X132806812Y-105433659D01*
X133070951Y-105698259D01*
X133416242Y-105841637D01*
X133604000Y-105841801D01*
X133604000Y-118670000D01*
X113486000Y-118670000D01*
X113486000Y-115377619D01*
X117525613Y-115377619D01*
X117865155Y-116199372D01*
X118493321Y-116828636D01*
X119314481Y-117169611D01*
X120203619Y-117170387D01*
X121025372Y-116830845D01*
X121654636Y-116202679D01*
X121995611Y-115381519D01*
X121996387Y-114492381D01*
X121656845Y-113670628D01*
X121028679Y-113041364D01*
X120207519Y-112700389D01*
X119318381Y-112699613D01*
X118496628Y-113039155D01*
X117867364Y-113667321D01*
X117526389Y-114488481D01*
X117525613Y-115377619D01*
X113486000Y-115377619D01*
X113486000Y-110422118D01*
X128854037Y-110422118D01*
X128996812Y-110767659D01*
X129260951Y-111032259D01*
X129606242Y-111175637D01*
X129971615Y-111175956D01*
X130012812Y-111275659D01*
X130276951Y-111540259D01*
X130622242Y-111683637D01*
X130996118Y-111683963D01*
X131341659Y-111541188D01*
X131606259Y-111277049D01*
X131749637Y-110931758D01*
X131749963Y-110557882D01*
X131607188Y-110212341D01*
X131343049Y-109947741D01*
X130997758Y-109804363D01*
X130632385Y-109804044D01*
X130591188Y-109704341D01*
X130327049Y-109439741D01*
X129981758Y-109296363D01*
X129607882Y-109296037D01*
X129262341Y-109438812D01*
X128997741Y-109702951D01*
X128854363Y-110048242D01*
X128854037Y-110422118D01*
X113486000Y-110422118D01*
X113486000Y-106231118D01*
X119075037Y-106231118D01*
X119217812Y-106576659D01*
X119481951Y-106841259D01*
X119827242Y-106984637D01*
X120201118Y-106984963D01*
X120546659Y-106842188D01*
X120649948Y-106739078D01*
X120751951Y-106841259D01*
X121097242Y-106984637D01*
X121471118Y-106984963D01*
X121816659Y-106842188D01*
X122081259Y-106578049D01*
X122224637Y-106232758D01*
X122224963Y-105858882D01*
X122082188Y-105513341D01*
X121818049Y-105248741D01*
X121472758Y-105105363D01*
X121098882Y-105105037D01*
X120753341Y-105247812D01*
X120650052Y-105350922D01*
X120548049Y-105248741D01*
X120202758Y-105105363D01*
X119828882Y-105105037D01*
X119483341Y-105247812D01*
X119218741Y-105511951D01*
X119075363Y-105857242D01*
X119075037Y-106231118D01*
X113486000Y-106231118D01*
X113486000Y-104961118D01*
X123520037Y-104961118D01*
X123662812Y-105306659D01*
X123926951Y-105571259D01*
X124272242Y-105714637D01*
X124646118Y-105714963D01*
X124991659Y-105572188D01*
X125222130Y-105342118D01*
X129108037Y-105342118D01*
X129250812Y-105687659D01*
X129514951Y-105952259D01*
X129860242Y-106095637D01*
X130234118Y-106095963D01*
X130579659Y-105953188D01*
X130844259Y-105689049D01*
X130987637Y-105343758D01*
X130987963Y-104969882D01*
X130845188Y-104624341D01*
X130581049Y-104359741D01*
X130235758Y-104216363D01*
X129861882Y-104216037D01*
X129516341Y-104358812D01*
X129251741Y-104622951D01*
X129108363Y-104968242D01*
X129108037Y-105342118D01*
X125222130Y-105342118D01*
X125256259Y-105308049D01*
X125399637Y-104962758D01*
X125399963Y-104588882D01*
X125257188Y-104243341D01*
X124993049Y-103978741D01*
X124647758Y-103835363D01*
X124273882Y-103835037D01*
X123928341Y-103977812D01*
X123663741Y-104241951D01*
X123520363Y-104587242D01*
X123520037Y-104961118D01*
X113486000Y-104961118D01*
X113486000Y-102421118D01*
X114630037Y-102421118D01*
X114772812Y-102766659D01*
X115036951Y-103031259D01*
X115382242Y-103174637D01*
X115756118Y-103174963D01*
X116043744Y-103056118D01*
X123520037Y-103056118D01*
X123662812Y-103401659D01*
X123926951Y-103666259D01*
X124272242Y-103809637D01*
X124646118Y-103809963D01*
X124991659Y-103667188D01*
X125094948Y-103564078D01*
X125196951Y-103666259D01*
X125542242Y-103809637D01*
X125916118Y-103809963D01*
X126261659Y-103667188D01*
X126526259Y-103403049D01*
X126669637Y-103057758D01*
X126669963Y-102683882D01*
X126527188Y-102338341D01*
X126263049Y-102073741D01*
X125917758Y-101930363D01*
X125543882Y-101930037D01*
X125198341Y-102072812D01*
X125095052Y-102175922D01*
X124993049Y-102073741D01*
X124647758Y-101930363D01*
X124273882Y-101930037D01*
X123928341Y-102072812D01*
X123663741Y-102336951D01*
X123520363Y-102682242D01*
X123520037Y-103056118D01*
X116043744Y-103056118D01*
X116101659Y-103032188D01*
X116366259Y-102768049D01*
X116509637Y-102422758D01*
X116509963Y-102048882D01*
X116408551Y-101803447D01*
X116652242Y-101904637D01*
X117026118Y-101904963D01*
X117371659Y-101762188D01*
X117602130Y-101532118D01*
X129870037Y-101532118D01*
X130003188Y-101854366D01*
X129870363Y-102174242D01*
X129870037Y-102548118D01*
X130012812Y-102893659D01*
X130276951Y-103158259D01*
X130622242Y-103301637D01*
X130996118Y-103301963D01*
X131341659Y-103159188D01*
X131606259Y-102895049D01*
X131749637Y-102549758D01*
X131749963Y-102175882D01*
X131616812Y-101853634D01*
X131749637Y-101533758D01*
X131749963Y-101159882D01*
X131607188Y-100814341D01*
X131343049Y-100549741D01*
X130997758Y-100406363D01*
X130623882Y-100406037D01*
X130278341Y-100548812D01*
X130013741Y-100812951D01*
X129870363Y-101158242D01*
X129870037Y-101532118D01*
X117602130Y-101532118D01*
X117636259Y-101498049D01*
X117745436Y-101235124D01*
X118006659Y-101127188D01*
X118271259Y-100863049D01*
X118414637Y-100517758D01*
X118414963Y-100143882D01*
X118272188Y-99798341D01*
X118008049Y-99533741D01*
X117662758Y-99390363D01*
X117288882Y-99390037D01*
X116943341Y-99532812D01*
X116678741Y-99796951D01*
X116569564Y-100059876D01*
X116308341Y-100167812D01*
X116043741Y-100431951D01*
X115900363Y-100777242D01*
X115900037Y-101151118D01*
X116001449Y-101396553D01*
X115757758Y-101295363D01*
X115383882Y-101295037D01*
X115038341Y-101437812D01*
X114773741Y-101701951D01*
X114630363Y-102047242D01*
X114630037Y-102421118D01*
X113486000Y-102421118D01*
X113486000Y-99246118D01*
X122250037Y-99246118D01*
X122392812Y-99591659D01*
X122656951Y-99856259D01*
X123002242Y-99999637D01*
X123376118Y-99999963D01*
X123721659Y-99857188D01*
X123986259Y-99593049D01*
X124129637Y-99247758D01*
X124129963Y-98873882D01*
X123987188Y-98528341D01*
X123723049Y-98263741D01*
X123377758Y-98120363D01*
X123003882Y-98120037D01*
X122658341Y-98262812D01*
X122393741Y-98526951D01*
X122250363Y-98872242D01*
X122250037Y-99246118D01*
X113486000Y-99246118D01*
X113486000Y-98230118D01*
X115392037Y-98230118D01*
X115534812Y-98575659D01*
X115798951Y-98840259D01*
X116144242Y-98983637D01*
X116518118Y-98983963D01*
X116863659Y-98841188D01*
X117128259Y-98577049D01*
X117271637Y-98231758D01*
X117271963Y-97857882D01*
X117129188Y-97512341D01*
X116865049Y-97247741D01*
X116784077Y-97214118D01*
X130632037Y-97214118D01*
X130774812Y-97559659D01*
X131038951Y-97824259D01*
X131384242Y-97967637D01*
X131758118Y-97967963D01*
X132103659Y-97825188D01*
X132368259Y-97561049D01*
X132511637Y-97215758D01*
X132511963Y-96841882D01*
X132369188Y-96496341D01*
X132105049Y-96231741D01*
X131759758Y-96088363D01*
X131385882Y-96088037D01*
X131040341Y-96230812D01*
X130775741Y-96494951D01*
X130632363Y-96840242D01*
X130632037Y-97214118D01*
X116784077Y-97214118D01*
X116519758Y-97104363D01*
X116145882Y-97104037D01*
X115800341Y-97246812D01*
X115535741Y-97510951D01*
X115392363Y-97856242D01*
X115392037Y-98230118D01*
X113486000Y-98230118D01*
X113486000Y-94039118D01*
X124790037Y-94039118D01*
X124932812Y-94384659D01*
X125196951Y-94649259D01*
X125298133Y-94691274D01*
X125298037Y-94801118D01*
X125315445Y-94843248D01*
X125314741Y-94843951D01*
X125171363Y-95189242D01*
X125171037Y-95563118D01*
X125188445Y-95605248D01*
X125187741Y-95605951D01*
X125044363Y-95951242D01*
X125044037Y-96325118D01*
X125186812Y-96670659D01*
X125450951Y-96935259D01*
X125796242Y-97078637D01*
X126170118Y-97078963D01*
X126515659Y-96936188D01*
X126780259Y-96672049D01*
X126871582Y-96452118D01*
X128854037Y-96452118D01*
X128996812Y-96797659D01*
X129260951Y-97062259D01*
X129606242Y-97205637D01*
X129980118Y-97205963D01*
X130325659Y-97063188D01*
X130590259Y-96799049D01*
X130733637Y-96453758D01*
X130733963Y-96079882D01*
X130591188Y-95734341D01*
X130327049Y-95469741D01*
X129981758Y-95326363D01*
X129607882Y-95326037D01*
X129262341Y-95468812D01*
X128997741Y-95732951D01*
X128854363Y-96078242D01*
X128854037Y-96452118D01*
X126871582Y-96452118D01*
X126923637Y-96326758D01*
X126923963Y-95952882D01*
X126906555Y-95910752D01*
X126907259Y-95910049D01*
X127050637Y-95564758D01*
X127050963Y-95190882D01*
X127033555Y-95148752D01*
X127034259Y-95148049D01*
X127177637Y-94802758D01*
X127177963Y-94428882D01*
X127035188Y-94083341D01*
X126771049Y-93818741D01*
X126669867Y-93776726D01*
X126669963Y-93666882D01*
X126527188Y-93321341D01*
X126263049Y-93056741D01*
X125917758Y-92913363D01*
X125543882Y-92913037D01*
X125198341Y-93055812D01*
X124933741Y-93319951D01*
X124790363Y-93665242D01*
X124790037Y-94039118D01*
X113486000Y-94039118D01*
X113486000Y-91626118D01*
X129108037Y-91626118D01*
X129241188Y-91948366D01*
X129108363Y-92268242D01*
X129108037Y-92642118D01*
X129250812Y-92987659D01*
X129514951Y-93252259D01*
X129860242Y-93395637D01*
X130234118Y-93395963D01*
X130579659Y-93253188D01*
X130844259Y-92989049D01*
X130987637Y-92643758D01*
X130987963Y-92269882D01*
X130854812Y-91947634D01*
X130987637Y-91627758D01*
X130987963Y-91253882D01*
X130845188Y-90908341D01*
X130581049Y-90643741D01*
X130235758Y-90500363D01*
X129861882Y-90500037D01*
X129516341Y-90642812D01*
X129251741Y-90906951D01*
X129108363Y-91252242D01*
X129108037Y-91626118D01*
X113486000Y-91626118D01*
X113486000Y-87308118D01*
X128600037Y-87308118D01*
X128742812Y-87653659D01*
X129006951Y-87918259D01*
X129352242Y-88061637D01*
X129726118Y-88061963D01*
X130071659Y-87919188D01*
X130336259Y-87655049D01*
X130479637Y-87309758D01*
X130479866Y-87046564D01*
X130520812Y-87145659D01*
X130784951Y-87410259D01*
X131130242Y-87553637D01*
X131504118Y-87553963D01*
X131849659Y-87411188D01*
X132114259Y-87147049D01*
X132257637Y-86801758D01*
X132257963Y-86427882D01*
X132115188Y-86082341D01*
X131851049Y-85817741D01*
X131505758Y-85674363D01*
X131131882Y-85674037D01*
X130786341Y-85816812D01*
X130521741Y-86080951D01*
X130378363Y-86426242D01*
X130378134Y-86689436D01*
X130337188Y-86590341D01*
X130073049Y-86325741D01*
X129727758Y-86182363D01*
X129353882Y-86182037D01*
X129008341Y-86324812D01*
X128743741Y-86588951D01*
X128600363Y-86934242D01*
X128600037Y-87308118D01*
X113486000Y-87308118D01*
X113486000Y-83945119D01*
X117525613Y-83945119D01*
X117865155Y-84766872D01*
X118493321Y-85396136D01*
X119314481Y-85737111D01*
X120203619Y-85737887D01*
X121025372Y-85398345D01*
X121654636Y-84770179D01*
X121995611Y-83949019D01*
X121996387Y-83059881D01*
X121656845Y-82238128D01*
X121028679Y-81608864D01*
X120207519Y-81267889D01*
X119318381Y-81267113D01*
X118496628Y-81606655D01*
X117867364Y-82234821D01*
X117526389Y-83055981D01*
X117525613Y-83945119D01*
X113486000Y-83945119D01*
X113486000Y-80831118D01*
X125425037Y-80831118D01*
X125567812Y-81176659D01*
X125831951Y-81441259D01*
X126177242Y-81584637D01*
X126551118Y-81584963D01*
X126896659Y-81442188D01*
X127161259Y-81178049D01*
X127284214Y-80881942D01*
X127447242Y-80949637D01*
X127821118Y-80949963D01*
X128166659Y-80807188D01*
X128431259Y-80543049D01*
X128574637Y-80197758D01*
X128574963Y-79823882D01*
X128432188Y-79478341D01*
X128168049Y-79213741D01*
X127822758Y-79070363D01*
X127448882Y-79070037D01*
X127103341Y-79212812D01*
X126838741Y-79476951D01*
X126715786Y-79773058D01*
X126552758Y-79705363D01*
X126178882Y-79705037D01*
X125833341Y-79847812D01*
X125568741Y-80111951D01*
X125425363Y-80457242D01*
X125425037Y-80831118D01*
X113486000Y-80831118D01*
X113486000Y-78815000D01*
X133604000Y-78815000D01*
X133604000Y-87316752D01*
G36*
X175566000Y-118670000D02*
X134366000Y-118670000D01*
X134366000Y-110930118D01*
X137236037Y-110930118D01*
X137378812Y-111275659D01*
X137642951Y-111540259D01*
X137864033Y-111632061D01*
X137633741Y-111861951D01*
X137490363Y-112207242D01*
X137490037Y-112581118D01*
X137632812Y-112926659D01*
X137896951Y-113191259D01*
X138242242Y-113334637D01*
X138616118Y-113334963D01*
X138961659Y-113192188D01*
X139226259Y-112928049D01*
X139369637Y-112582758D01*
X139369963Y-112208882D01*
X139227188Y-111863341D01*
X138963049Y-111598741D01*
X138741967Y-111506939D01*
X138938130Y-111311118D01*
X159080037Y-111311118D01*
X159222812Y-111656659D01*
X159486951Y-111921259D01*
X159832242Y-112064637D01*
X160206118Y-112064963D01*
X160551659Y-111922188D01*
X160816259Y-111658049D01*
X160959637Y-111312758D01*
X160959963Y-110938882D01*
X160851391Y-110676118D01*
X164795037Y-110676118D01*
X164937812Y-111021659D01*
X165201951Y-111286259D01*
X165547242Y-111429637D01*
X165921118Y-111429963D01*
X166266659Y-111287188D01*
X166531259Y-111023049D01*
X166674637Y-110677758D01*
X166674963Y-110303882D01*
X166532188Y-109958341D01*
X166268049Y-109693741D01*
X165922758Y-109550363D01*
X165548882Y-109550037D01*
X165203341Y-109692812D01*
X164938741Y-109956951D01*
X164795363Y-110302242D01*
X164795037Y-110676118D01*
X160851391Y-110676118D01*
X160817188Y-110593341D01*
X160553049Y-110328741D01*
X160207758Y-110185363D01*
X159833882Y-110185037D01*
X159488341Y-110327812D01*
X159223741Y-110591951D01*
X159080363Y-110937242D01*
X159080037Y-111311118D01*
X138938130Y-111311118D01*
X138972259Y-111277049D01*
X139115637Y-110931758D01*
X139115963Y-110557882D01*
X138973188Y-110212341D01*
X138709049Y-109947741D01*
X138363758Y-109804363D01*
X137989882Y-109804037D01*
X137644341Y-109946812D01*
X137379741Y-110210951D01*
X137236363Y-110556242D01*
X137236037Y-110930118D01*
X134366000Y-110930118D01*
X134366000Y-106866118D01*
X141935037Y-106866118D01*
X142077812Y-107211659D01*
X142341951Y-107476259D01*
X142687242Y-107619637D01*
X143061118Y-107619963D01*
X143348744Y-107501118D01*
X155270037Y-107501118D01*
X155412812Y-107846659D01*
X155676951Y-108111259D01*
X156022242Y-108254637D01*
X156396118Y-108254963D01*
X156683744Y-108136118D01*
X164795037Y-108136118D01*
X164937812Y-108481659D01*
X165201951Y-108746259D01*
X165547242Y-108889637D01*
X165921118Y-108889963D01*
X166266659Y-108747188D01*
X166531259Y-108483049D01*
X166674637Y-108137758D01*
X166674963Y-107763882D01*
X166532188Y-107418341D01*
X166268049Y-107153741D01*
X165922758Y-107010363D01*
X165548882Y-107010037D01*
X165203341Y-107152812D01*
X164938741Y-107416951D01*
X164795363Y-107762242D01*
X164795037Y-108136118D01*
X156683744Y-108136118D01*
X156741659Y-108112188D01*
X157006259Y-107848049D01*
X157149637Y-107502758D01*
X157149963Y-107128882D01*
X157007188Y-106783341D01*
X156743049Y-106518741D01*
X156397758Y-106375363D01*
X156023882Y-106375037D01*
X155678341Y-106517812D01*
X155413741Y-106781951D01*
X155270363Y-107127242D01*
X155270037Y-107501118D01*
X143348744Y-107501118D01*
X143406659Y-107477188D01*
X143671259Y-107213049D01*
X143814637Y-106867758D01*
X143814963Y-106493882D01*
X143672188Y-106148341D01*
X143408049Y-105883741D01*
X143062758Y-105740363D01*
X142688882Y-105740037D01*
X142343341Y-105882812D01*
X142078741Y-106146951D01*
X141935363Y-106492242D01*
X141935037Y-106866118D01*
X134366000Y-106866118D01*
X134366000Y-105469248D01*
X134400259Y-105435049D01*
X134438847Y-105342118D01*
X134950037Y-105342118D01*
X135092812Y-105687659D01*
X135356951Y-105952259D01*
X135702242Y-106095637D01*
X136076118Y-106095963D01*
X136421659Y-105953188D01*
X136686259Y-105689049D01*
X136829637Y-105343758D01*
X136829963Y-104969882D01*
X136687188Y-104624341D01*
X136625338Y-104562383D01*
X136916960Y-104441887D01*
X137181560Y-104177748D01*
X137324938Y-103832457D01*
X137325061Y-103691118D01*
X150190037Y-103691118D01*
X150332812Y-104036659D01*
X150596951Y-104301259D01*
X150942242Y-104444637D01*
X151316118Y-104444963D01*
X151661659Y-104302188D01*
X151764948Y-104199078D01*
X151866951Y-104301259D01*
X152212242Y-104444637D01*
X152586118Y-104444963D01*
X152931659Y-104302188D01*
X153196259Y-104038049D01*
X153339637Y-103692758D01*
X153339804Y-103501036D01*
X164548786Y-103501036D01*
X164888328Y-104322789D01*
X165516494Y-104952053D01*
X166337654Y-105293028D01*
X167226792Y-105293804D01*
X167949258Y-104995287D01*
X167948847Y-105466722D01*
X168235216Y-106159789D01*
X168765012Y-106690510D01*
X169457578Y-106978089D01*
X170207478Y-106978743D01*
X170900545Y-106692374D01*
X171431266Y-106162578D01*
X171718845Y-105470012D01*
X171719499Y-104720112D01*
X171433130Y-104027045D01*
X170903334Y-103496324D01*
X170210768Y-103208745D01*
X169460868Y-103208091D01*
X169018884Y-103390715D01*
X169019560Y-102615798D01*
X168680018Y-101794045D01*
X168051852Y-101164781D01*
X167230692Y-100823806D01*
X166341554Y-100823030D01*
X165519801Y-101162572D01*
X164890537Y-101790738D01*
X164549562Y-102611898D01*
X164548786Y-103501036D01*
X153339804Y-103501036D01*
X153339963Y-103318882D01*
X153197188Y-102973341D01*
X152933049Y-102708741D01*
X152587758Y-102565363D01*
X152213882Y-102565037D01*
X151868341Y-102707812D01*
X151765052Y-102810922D01*
X151663049Y-102708741D01*
X151317758Y-102565363D01*
X150943882Y-102565037D01*
X150598341Y-102707812D01*
X150333741Y-102971951D01*
X150190363Y-103317242D01*
X150190037Y-103691118D01*
X137325061Y-103691118D01*
X137325264Y-103458581D01*
X137182489Y-103113040D01*
X136918350Y-102848440D01*
X136573059Y-102705062D01*
X136199183Y-102704736D01*
X135853642Y-102847511D01*
X135589042Y-103111650D01*
X135445664Y-103456941D01*
X135445338Y-103830817D01*
X135588113Y-104176358D01*
X135649963Y-104238316D01*
X135358341Y-104358812D01*
X135093741Y-104622951D01*
X134950363Y-104968242D01*
X134950037Y-105342118D01*
X134438847Y-105342118D01*
X134543637Y-105089758D01*
X134543963Y-104715882D01*
X134401188Y-104370341D01*
X134366000Y-104335092D01*
X134366000Y-102421118D01*
X141300037Y-102421118D01*
X141442812Y-102766659D01*
X141706951Y-103031259D01*
X142052242Y-103174637D01*
X142426118Y-103174963D01*
X142771659Y-103032188D01*
X143036259Y-102768049D01*
X143179637Y-102422758D01*
X143179963Y-102048882D01*
X143037188Y-101703341D01*
X142773049Y-101438741D01*
X142427758Y-101295363D01*
X142053882Y-101295037D01*
X141708341Y-101437812D01*
X141443741Y-101701951D01*
X141300363Y-102047242D01*
X141300037Y-102421118D01*
X134366000Y-102421118D01*
X134366000Y-100643118D01*
X137363037Y-100643118D01*
X137505812Y-100988659D01*
X137769951Y-101253259D01*
X138115242Y-101396637D01*
X138489118Y-101396963D01*
X138834659Y-101254188D01*
X139099259Y-100990049D01*
X139242637Y-100644758D01*
X139242963Y-100270882D01*
X139100188Y-99925341D01*
X139056043Y-99881118D01*
X139395037Y-99881118D01*
X139537812Y-100226659D01*
X139801951Y-100491259D01*
X140147242Y-100634637D01*
X140521118Y-100634963D01*
X140866659Y-100492188D01*
X141131259Y-100228049D01*
X141274637Y-99882758D01*
X141274963Y-99508882D01*
X141132188Y-99163341D01*
X140868049Y-98898741D01*
X140522758Y-98755363D01*
X140148882Y-98755037D01*
X139803341Y-98897812D01*
X139538741Y-99161951D01*
X139395363Y-99507242D01*
X139395037Y-99881118D01*
X139056043Y-99881118D01*
X138836049Y-99660741D01*
X138490758Y-99517363D01*
X138116882Y-99517037D01*
X137771341Y-99659812D01*
X137506741Y-99923951D01*
X137363363Y-100269242D01*
X137363037Y-100643118D01*
X134366000Y-100643118D01*
X134366000Y-98230118D01*
X153492037Y-98230118D01*
X153634812Y-98575659D01*
X153898951Y-98840259D01*
X154244242Y-98983637D01*
X154618118Y-98983963D01*
X154963659Y-98841188D01*
X155228259Y-98577049D01*
X155371637Y-98231758D01*
X155371963Y-97857882D01*
X155229188Y-97512341D01*
X154965049Y-97247741D01*
X154619758Y-97104363D01*
X154245882Y-97104037D01*
X153900341Y-97246812D01*
X153635741Y-97510951D01*
X153492363Y-97856242D01*
X153492037Y-98230118D01*
X134366000Y-98230118D01*
X134366000Y-95944118D01*
X135077037Y-95944118D01*
X135219812Y-96289659D01*
X135483951Y-96554259D01*
X135829242Y-96697637D01*
X136203118Y-96697963D01*
X136548659Y-96555188D01*
X136813259Y-96291049D01*
X136956637Y-95945758D01*
X136956963Y-95571882D01*
X136814188Y-95226341D01*
X136550049Y-94961741D01*
X136204758Y-94818363D01*
X135830882Y-94818037D01*
X135485341Y-94960812D01*
X135220741Y-95224951D01*
X135077363Y-95570242D01*
X135077037Y-95944118D01*
X134366000Y-95944118D01*
X134366000Y-93785118D01*
X134950037Y-93785118D01*
X135092812Y-94130659D01*
X135356951Y-94395259D01*
X135702242Y-94538637D01*
X136076118Y-94538963D01*
X136421659Y-94396188D01*
X136652130Y-94166118D01*
X140284037Y-94166118D01*
X140426812Y-94511659D01*
X140690951Y-94776259D01*
X141036242Y-94919637D01*
X141410118Y-94919963D01*
X141755659Y-94777188D01*
X142020259Y-94513049D01*
X142163637Y-94167758D01*
X142163963Y-93793882D01*
X142021188Y-93448341D01*
X141757049Y-93183741D01*
X141754311Y-93182604D01*
X156458925Y-93182604D01*
X156676930Y-93710217D01*
X157080250Y-94114241D01*
X157210388Y-94168279D01*
X157082373Y-94221174D01*
X156678349Y-94624494D01*
X156459423Y-95151726D01*
X156458925Y-95722604D01*
X156676930Y-96250217D01*
X157080250Y-96654241D01*
X157210388Y-96708279D01*
X157082373Y-96761174D01*
X156678349Y-97164494D01*
X156459423Y-97691726D01*
X156458925Y-98262604D01*
X156676930Y-98790217D01*
X157080250Y-99194241D01*
X157210388Y-99248279D01*
X157082373Y-99301174D01*
X156678349Y-99704494D01*
X156459423Y-100231726D01*
X156458925Y-100802604D01*
X156676930Y-101330217D01*
X157080250Y-101734241D01*
X157607482Y-101953167D01*
X158178360Y-101953665D01*
X158705973Y-101735660D01*
X159041270Y-101400947D01*
X158999423Y-101501726D01*
X158998925Y-102072604D01*
X159216930Y-102600217D01*
X159620250Y-103004241D01*
X160147482Y-103223167D01*
X160718360Y-103223665D01*
X161245973Y-103005660D01*
X161649997Y-102602340D01*
X161868923Y-102075108D01*
X161869421Y-101504230D01*
X161651416Y-100976617D01*
X161248096Y-100572593D01*
X161117958Y-100518555D01*
X161245973Y-100465660D01*
X161649997Y-100062340D01*
X161868923Y-99535108D01*
X161869421Y-98964230D01*
X161651416Y-98436617D01*
X161248096Y-98032593D01*
X161117958Y-97978555D01*
X161245973Y-97925660D01*
X161649997Y-97522340D01*
X161868923Y-96995108D01*
X161869421Y-96424230D01*
X161651416Y-95896617D01*
X161248096Y-95492593D01*
X161117958Y-95438555D01*
X161245973Y-95385660D01*
X161649997Y-94982340D01*
X161868923Y-94455108D01*
X161869421Y-93884230D01*
X161651416Y-93356617D01*
X161248096Y-92952593D01*
X160720864Y-92733667D01*
X160149986Y-92733169D01*
X159622373Y-92951174D01*
X159287076Y-93285887D01*
X159328923Y-93185108D01*
X159329421Y-92614230D01*
X159111416Y-92086617D01*
X159095863Y-92071036D01*
X164548786Y-92071036D01*
X164888328Y-92892789D01*
X165516494Y-93522053D01*
X166337654Y-93863028D01*
X167226792Y-93863804D01*
X168048545Y-93524262D01*
X168677809Y-92896096D01*
X169018784Y-92074936D01*
X169019464Y-91296168D01*
X169457578Y-91478089D01*
X170207478Y-91478743D01*
X170900545Y-91192374D01*
X171431266Y-90662578D01*
X171718845Y-89970012D01*
X171719499Y-89220112D01*
X171433130Y-88527045D01*
X170903334Y-87996324D01*
X170210768Y-87708745D01*
X169460868Y-87708091D01*
X168767801Y-87994460D01*
X168237080Y-88524256D01*
X167949501Y-89216822D01*
X167949086Y-89692109D01*
X167230692Y-89393806D01*
X166341554Y-89393030D01*
X165519801Y-89732572D01*
X164890537Y-90360738D01*
X164549562Y-91181898D01*
X164548786Y-92071036D01*
X159095863Y-92071036D01*
X158708096Y-91682593D01*
X158180864Y-91463667D01*
X157609986Y-91463169D01*
X157082373Y-91681174D01*
X156678349Y-92084494D01*
X156459423Y-92611726D01*
X156458925Y-93182604D01*
X141754311Y-93182604D01*
X141411758Y-93040363D01*
X141037882Y-93040037D01*
X140692341Y-93182812D01*
X140427741Y-93446951D01*
X140284363Y-93792242D01*
X140284037Y-94166118D01*
X136652130Y-94166118D01*
X136686259Y-94132049D01*
X136829637Y-93786758D01*
X136829963Y-93412882D01*
X136687188Y-93067341D01*
X136423049Y-92802741D01*
X136077758Y-92659363D01*
X135703882Y-92659037D01*
X135358341Y-92801812D01*
X135093741Y-93065951D01*
X134950363Y-93411242D01*
X134950037Y-93785118D01*
X134366000Y-93785118D01*
X134366000Y-91118118D01*
X136601037Y-91118118D01*
X136743812Y-91463659D01*
X137007951Y-91728259D01*
X137353242Y-91871637D01*
X137727118Y-91871963D01*
X138072659Y-91729188D01*
X138175908Y-91626118D01*
X140030037Y-91626118D01*
X140172812Y-91971659D01*
X140436951Y-92236259D01*
X140782242Y-92379637D01*
X141156118Y-92379963D01*
X141501659Y-92237188D01*
X141766259Y-91973049D01*
X141909637Y-91627758D01*
X141909638Y-91626118D01*
X143205037Y-91626118D01*
X143347812Y-91971659D01*
X143611951Y-92236259D01*
X143957242Y-92379637D01*
X144331118Y-92379963D01*
X144676659Y-92237188D01*
X144941259Y-91973049D01*
X145084637Y-91627758D01*
X145084963Y-91253882D01*
X144976391Y-90991118D01*
X150190037Y-90991118D01*
X150332812Y-91336659D01*
X150596951Y-91601259D01*
X150942242Y-91744637D01*
X151316118Y-91744963D01*
X151661659Y-91602188D01*
X151926259Y-91338049D01*
X152069637Y-90992758D01*
X152069963Y-90618882D01*
X151927188Y-90273341D01*
X151663049Y-90008741D01*
X151317758Y-89865363D01*
X150943882Y-89865037D01*
X150598341Y-90007812D01*
X150333741Y-90271951D01*
X150190363Y-90617242D01*
X150190037Y-90991118D01*
X144976391Y-90991118D01*
X144942188Y-90908341D01*
X144678049Y-90643741D01*
X144332758Y-90500363D01*
X143958882Y-90500037D01*
X143613341Y-90642812D01*
X143348741Y-90906951D01*
X143205363Y-91252242D01*
X143205037Y-91626118D01*
X141909638Y-91626118D01*
X141909963Y-91253882D01*
X141767188Y-90908341D01*
X141503049Y-90643741D01*
X141157758Y-90500363D01*
X140783882Y-90500037D01*
X140438341Y-90642812D01*
X140173741Y-90906951D01*
X140030363Y-91252242D01*
X140030037Y-91626118D01*
X138175908Y-91626118D01*
X138337259Y-91465049D01*
X138480637Y-91119758D01*
X138480963Y-90745882D01*
X138338188Y-90400341D01*
X138074049Y-90135741D01*
X137728758Y-89992363D01*
X137354882Y-89992037D01*
X137009341Y-90134812D01*
X136744741Y-90398951D01*
X136601363Y-90744242D01*
X136601037Y-91118118D01*
X134366000Y-91118118D01*
X134366000Y-89086118D01*
X153365037Y-89086118D01*
X153507812Y-89431659D01*
X153771951Y-89696259D01*
X154117242Y-89839637D01*
X154491118Y-89839963D01*
X154836659Y-89697188D01*
X155101259Y-89433049D01*
X155244637Y-89087758D01*
X155244963Y-88713882D01*
X155102188Y-88368341D01*
X154838049Y-88103741D01*
X154492758Y-87960363D01*
X154118882Y-87960037D01*
X153773341Y-88102812D01*
X153508741Y-88366951D01*
X153365363Y-88712242D01*
X153365037Y-89086118D01*
X134366000Y-89086118D01*
X134366000Y-88823801D01*
X134552118Y-88823963D01*
X134897659Y-88681188D01*
X135162259Y-88417049D01*
X135305637Y-88071758D01*
X135305963Y-87697882D01*
X135163188Y-87352341D01*
X134992264Y-87181118D01*
X146380037Y-87181118D01*
X146522812Y-87526659D01*
X146786951Y-87791259D01*
X147132242Y-87934637D01*
X147506118Y-87934963D01*
X147851659Y-87792188D01*
X148116259Y-87528049D01*
X148259637Y-87182758D01*
X148259963Y-86808882D01*
X148117188Y-86463341D01*
X147853049Y-86198741D01*
X147507758Y-86055363D01*
X147133882Y-86055037D01*
X146788341Y-86197812D01*
X146523741Y-86461951D01*
X146380363Y-86807242D01*
X146380037Y-87181118D01*
X134992264Y-87181118D01*
X134899049Y-87087741D01*
X134553758Y-86944363D01*
X134366000Y-86944199D01*
X134366000Y-85276118D01*
X154635037Y-85276118D01*
X154777812Y-85621659D01*
X155041951Y-85886259D01*
X155387242Y-86029637D01*
X155761118Y-86029963D01*
X156106659Y-85887188D01*
X156371259Y-85623049D01*
X156514637Y-85277758D01*
X156514963Y-84903882D01*
X156372188Y-84558341D01*
X156108049Y-84293741D01*
X155762758Y-84150363D01*
X155388882Y-84150037D01*
X155043341Y-84292812D01*
X154778741Y-84556951D01*
X154635363Y-84902242D01*
X154635037Y-85276118D01*
X134366000Y-85276118D01*
X134366000Y-83371118D01*
X138125037Y-83371118D01*
X138267812Y-83716659D01*
X138531951Y-83981259D01*
X138877242Y-84124637D01*
X139251118Y-84124963D01*
X139596659Y-83982188D01*
X139633792Y-83945119D01*
X165150613Y-83945119D01*
X165490155Y-84766872D01*
X166118321Y-85396136D01*
X166939481Y-85737111D01*
X167828619Y-85737887D01*
X168650372Y-85398345D01*
X169279636Y-84770179D01*
X169620611Y-83949019D01*
X169621387Y-83059881D01*
X169281845Y-82238128D01*
X168653679Y-81608864D01*
X167832519Y-81267889D01*
X166943381Y-81267113D01*
X166121628Y-81606655D01*
X165492364Y-82234821D01*
X165151389Y-83055981D01*
X165150613Y-83945119D01*
X139633792Y-83945119D01*
X139861259Y-83718049D01*
X140004637Y-83372758D01*
X140004963Y-82998882D01*
X139936837Y-82834006D01*
X140231659Y-82712188D01*
X140496259Y-82448049D01*
X140639637Y-82102758D01*
X140639963Y-81728882D01*
X140497188Y-81383341D01*
X140233049Y-81118741D01*
X139887758Y-80975363D01*
X139513882Y-80975037D01*
X139168341Y-81117812D01*
X138903741Y-81381951D01*
X138760363Y-81727242D01*
X138760037Y-82101118D01*
X138828163Y-82265994D01*
X138533341Y-82387812D01*
X138268741Y-82651951D01*
X138125363Y-82997242D01*
X138125037Y-83371118D01*
X134366000Y-83371118D01*
X134366000Y-80922131D01*
X134432242Y-80949637D01*
X134806118Y-80949963D01*
X135151659Y-80807188D01*
X135416259Y-80543049D01*
X135559637Y-80197758D01*
X135559963Y-79823882D01*
X135417188Y-79478341D01*
X135153049Y-79213741D01*
X134807758Y-79070363D01*
X134433882Y-79070037D01*
X134366000Y-79098085D01*
X134366000Y-78815000D01*
X175566000Y-78815000D01*
X175566000Y-118670000D01*
X175566000Y-118670000D01*
G37*
X175566000Y-118670000D02*
X134366000Y-118670000D01*
X134366000Y-110930118D01*
X137236037Y-110930118D01*
X137378812Y-111275659D01*
X137642951Y-111540259D01*
X137864033Y-111632061D01*
X137633741Y-111861951D01*
X137490363Y-112207242D01*
X137490037Y-112581118D01*
X137632812Y-112926659D01*
X137896951Y-113191259D01*
X138242242Y-113334637D01*
X138616118Y-113334963D01*
X138961659Y-113192188D01*
X139226259Y-112928049D01*
X139369637Y-112582758D01*
X139369963Y-112208882D01*
X139227188Y-111863341D01*
X138963049Y-111598741D01*
X138741967Y-111506939D01*
X138938130Y-111311118D01*
X159080037Y-111311118D01*
X159222812Y-111656659D01*
X159486951Y-111921259D01*
X159832242Y-112064637D01*
X160206118Y-112064963D01*
X160551659Y-111922188D01*
X160816259Y-111658049D01*
X160959637Y-111312758D01*
X160959963Y-110938882D01*
X160851391Y-110676118D01*
X164795037Y-110676118D01*
X164937812Y-111021659D01*
X165201951Y-111286259D01*
X165547242Y-111429637D01*
X165921118Y-111429963D01*
X166266659Y-111287188D01*
X166531259Y-111023049D01*
X166674637Y-110677758D01*
X166674963Y-110303882D01*
X166532188Y-109958341D01*
X166268049Y-109693741D01*
X165922758Y-109550363D01*
X165548882Y-109550037D01*
X165203341Y-109692812D01*
X164938741Y-109956951D01*
X164795363Y-110302242D01*
X164795037Y-110676118D01*
X160851391Y-110676118D01*
X160817188Y-110593341D01*
X160553049Y-110328741D01*
X160207758Y-110185363D01*
X159833882Y-110185037D01*
X159488341Y-110327812D01*
X159223741Y-110591951D01*
X159080363Y-110937242D01*
X159080037Y-111311118D01*
X138938130Y-111311118D01*
X138972259Y-111277049D01*
X139115637Y-110931758D01*
X139115963Y-110557882D01*
X138973188Y-110212341D01*
X138709049Y-109947741D01*
X138363758Y-109804363D01*
X137989882Y-109804037D01*
X137644341Y-109946812D01*
X137379741Y-110210951D01*
X137236363Y-110556242D01*
X137236037Y-110930118D01*
X134366000Y-110930118D01*
X134366000Y-106866118D01*
X141935037Y-106866118D01*
X142077812Y-107211659D01*
X142341951Y-107476259D01*
X142687242Y-107619637D01*
X143061118Y-107619963D01*
X143348744Y-107501118D01*
X155270037Y-107501118D01*
X155412812Y-107846659D01*
X155676951Y-108111259D01*
X156022242Y-108254637D01*
X156396118Y-108254963D01*
X156683744Y-108136118D01*
X164795037Y-108136118D01*
X164937812Y-108481659D01*
X165201951Y-108746259D01*
X165547242Y-108889637D01*
X165921118Y-108889963D01*
X166266659Y-108747188D01*
X166531259Y-108483049D01*
X166674637Y-108137758D01*
X166674963Y-107763882D01*
X166532188Y-107418341D01*
X166268049Y-107153741D01*
X165922758Y-107010363D01*
X165548882Y-107010037D01*
X165203341Y-107152812D01*
X164938741Y-107416951D01*
X164795363Y-107762242D01*
X164795037Y-108136118D01*
X156683744Y-108136118D01*
X156741659Y-108112188D01*
X157006259Y-107848049D01*
X157149637Y-107502758D01*
X157149963Y-107128882D01*
X157007188Y-106783341D01*
X156743049Y-106518741D01*
X156397758Y-106375363D01*
X156023882Y-106375037D01*
X155678341Y-106517812D01*
X155413741Y-106781951D01*
X155270363Y-107127242D01*
X155270037Y-107501118D01*
X143348744Y-107501118D01*
X143406659Y-107477188D01*
X143671259Y-107213049D01*
X143814637Y-106867758D01*
X143814963Y-106493882D01*
X143672188Y-106148341D01*
X143408049Y-105883741D01*
X143062758Y-105740363D01*
X142688882Y-105740037D01*
X142343341Y-105882812D01*
X142078741Y-106146951D01*
X141935363Y-106492242D01*
X141935037Y-106866118D01*
X134366000Y-106866118D01*
X134366000Y-105469248D01*
X134400259Y-105435049D01*
X134438847Y-105342118D01*
X134950037Y-105342118D01*
X135092812Y-105687659D01*
X135356951Y-105952259D01*
X135702242Y-106095637D01*
X136076118Y-106095963D01*
X136421659Y-105953188D01*
X136686259Y-105689049D01*
X136829637Y-105343758D01*
X136829963Y-104969882D01*
X136687188Y-104624341D01*
X136625338Y-104562383D01*
X136916960Y-104441887D01*
X137181560Y-104177748D01*
X137324938Y-103832457D01*
X137325061Y-103691118D01*
X150190037Y-103691118D01*
X150332812Y-104036659D01*
X150596951Y-104301259D01*
X150942242Y-104444637D01*
X151316118Y-104444963D01*
X151661659Y-104302188D01*
X151764948Y-104199078D01*
X151866951Y-104301259D01*
X152212242Y-104444637D01*
X152586118Y-104444963D01*
X152931659Y-104302188D01*
X153196259Y-104038049D01*
X153339637Y-103692758D01*
X153339804Y-103501036D01*
X164548786Y-103501036D01*
X164888328Y-104322789D01*
X165516494Y-104952053D01*
X166337654Y-105293028D01*
X167226792Y-105293804D01*
X167949258Y-104995287D01*
X167948847Y-105466722D01*
X168235216Y-106159789D01*
X168765012Y-106690510D01*
X169457578Y-106978089D01*
X170207478Y-106978743D01*
X170900545Y-106692374D01*
X171431266Y-106162578D01*
X171718845Y-105470012D01*
X171719499Y-104720112D01*
X171433130Y-104027045D01*
X170903334Y-103496324D01*
X170210768Y-103208745D01*
X169460868Y-103208091D01*
X169018884Y-103390715D01*
X169019560Y-102615798D01*
X168680018Y-101794045D01*
X168051852Y-101164781D01*
X167230692Y-100823806D01*
X166341554Y-100823030D01*
X165519801Y-101162572D01*
X164890537Y-101790738D01*
X164549562Y-102611898D01*
X164548786Y-103501036D01*
X153339804Y-103501036D01*
X153339963Y-103318882D01*
X153197188Y-102973341D01*
X152933049Y-102708741D01*
X152587758Y-102565363D01*
X152213882Y-102565037D01*
X151868341Y-102707812D01*
X151765052Y-102810922D01*
X151663049Y-102708741D01*
X151317758Y-102565363D01*
X150943882Y-102565037D01*
X150598341Y-102707812D01*
X150333741Y-102971951D01*
X150190363Y-103317242D01*
X150190037Y-103691118D01*
X137325061Y-103691118D01*
X137325264Y-103458581D01*
X137182489Y-103113040D01*
X136918350Y-102848440D01*
X136573059Y-102705062D01*
X136199183Y-102704736D01*
X135853642Y-102847511D01*
X135589042Y-103111650D01*
X135445664Y-103456941D01*
X135445338Y-103830817D01*
X135588113Y-104176358D01*
X135649963Y-104238316D01*
X135358341Y-104358812D01*
X135093741Y-104622951D01*
X134950363Y-104968242D01*
X134950037Y-105342118D01*
X134438847Y-105342118D01*
X134543637Y-105089758D01*
X134543963Y-104715882D01*
X134401188Y-104370341D01*
X134366000Y-104335092D01*
X134366000Y-102421118D01*
X141300037Y-102421118D01*
X141442812Y-102766659D01*
X141706951Y-103031259D01*
X142052242Y-103174637D01*
X142426118Y-103174963D01*
X142771659Y-103032188D01*
X143036259Y-102768049D01*
X143179637Y-102422758D01*
X143179963Y-102048882D01*
X143037188Y-101703341D01*
X142773049Y-101438741D01*
X142427758Y-101295363D01*
X142053882Y-101295037D01*
X141708341Y-101437812D01*
X141443741Y-101701951D01*
X141300363Y-102047242D01*
X141300037Y-102421118D01*
X134366000Y-102421118D01*
X134366000Y-100643118D01*
X137363037Y-100643118D01*
X137505812Y-100988659D01*
X137769951Y-101253259D01*
X138115242Y-101396637D01*
X138489118Y-101396963D01*
X138834659Y-101254188D01*
X139099259Y-100990049D01*
X139242637Y-100644758D01*
X139242963Y-100270882D01*
X139100188Y-99925341D01*
X139056043Y-99881118D01*
X139395037Y-99881118D01*
X139537812Y-100226659D01*
X139801951Y-100491259D01*
X140147242Y-100634637D01*
X140521118Y-100634963D01*
X140866659Y-100492188D01*
X141131259Y-100228049D01*
X141274637Y-99882758D01*
X141274963Y-99508882D01*
X141132188Y-99163341D01*
X140868049Y-98898741D01*
X140522758Y-98755363D01*
X140148882Y-98755037D01*
X139803341Y-98897812D01*
X139538741Y-99161951D01*
X139395363Y-99507242D01*
X139395037Y-99881118D01*
X139056043Y-99881118D01*
X138836049Y-99660741D01*
X138490758Y-99517363D01*
X138116882Y-99517037D01*
X137771341Y-99659812D01*
X137506741Y-99923951D01*
X137363363Y-100269242D01*
X137363037Y-100643118D01*
X134366000Y-100643118D01*
X134366000Y-98230118D01*
X153492037Y-98230118D01*
X153634812Y-98575659D01*
X153898951Y-98840259D01*
X154244242Y-98983637D01*
X154618118Y-98983963D01*
X154963659Y-98841188D01*
X155228259Y-98577049D01*
X155371637Y-98231758D01*
X155371963Y-97857882D01*
X155229188Y-97512341D01*
X154965049Y-97247741D01*
X154619758Y-97104363D01*
X154245882Y-97104037D01*
X153900341Y-97246812D01*
X153635741Y-97510951D01*
X153492363Y-97856242D01*
X153492037Y-98230118D01*
X134366000Y-98230118D01*
X134366000Y-95944118D01*
X135077037Y-95944118D01*
X135219812Y-96289659D01*
X135483951Y-96554259D01*
X135829242Y-96697637D01*
X136203118Y-96697963D01*
X136548659Y-96555188D01*
X136813259Y-96291049D01*
X136956637Y-95945758D01*
X136956963Y-95571882D01*
X136814188Y-95226341D01*
X136550049Y-94961741D01*
X136204758Y-94818363D01*
X135830882Y-94818037D01*
X135485341Y-94960812D01*
X135220741Y-95224951D01*
X135077363Y-95570242D01*
X135077037Y-95944118D01*
X134366000Y-95944118D01*
X134366000Y-93785118D01*
X134950037Y-93785118D01*
X135092812Y-94130659D01*
X135356951Y-94395259D01*
X135702242Y-94538637D01*
X136076118Y-94538963D01*
X136421659Y-94396188D01*
X136652130Y-94166118D01*
X140284037Y-94166118D01*
X140426812Y-94511659D01*
X140690951Y-94776259D01*
X141036242Y-94919637D01*
X141410118Y-94919963D01*
X141755659Y-94777188D01*
X142020259Y-94513049D01*
X142163637Y-94167758D01*
X142163963Y-93793882D01*
X142021188Y-93448341D01*
X141757049Y-93183741D01*
X141754311Y-93182604D01*
X156458925Y-93182604D01*
X156676930Y-93710217D01*
X157080250Y-94114241D01*
X157210388Y-94168279D01*
X157082373Y-94221174D01*
X156678349Y-94624494D01*
X156459423Y-95151726D01*
X156458925Y-95722604D01*
X156676930Y-96250217D01*
X157080250Y-96654241D01*
X157210388Y-96708279D01*
X157082373Y-96761174D01*
X156678349Y-97164494D01*
X156459423Y-97691726D01*
X156458925Y-98262604D01*
X156676930Y-98790217D01*
X157080250Y-99194241D01*
X157210388Y-99248279D01*
X157082373Y-99301174D01*
X156678349Y-99704494D01*
X156459423Y-100231726D01*
X156458925Y-100802604D01*
X156676930Y-101330217D01*
X157080250Y-101734241D01*
X157607482Y-101953167D01*
X158178360Y-101953665D01*
X158705973Y-101735660D01*
X159041270Y-101400947D01*
X158999423Y-101501726D01*
X158998925Y-102072604D01*
X159216930Y-102600217D01*
X159620250Y-103004241D01*
X160147482Y-103223167D01*
X160718360Y-103223665D01*
X161245973Y-103005660D01*
X161649997Y-102602340D01*
X161868923Y-102075108D01*
X161869421Y-101504230D01*
X161651416Y-100976617D01*
X161248096Y-100572593D01*
X161117958Y-100518555D01*
X161245973Y-100465660D01*
X161649997Y-100062340D01*
X161868923Y-99535108D01*
X161869421Y-98964230D01*
X161651416Y-98436617D01*
X161248096Y-98032593D01*
X161117958Y-97978555D01*
X161245973Y-97925660D01*
X161649997Y-97522340D01*
X161868923Y-96995108D01*
X161869421Y-96424230D01*
X161651416Y-95896617D01*
X161248096Y-95492593D01*
X161117958Y-95438555D01*
X161245973Y-95385660D01*
X161649997Y-94982340D01*
X161868923Y-94455108D01*
X161869421Y-93884230D01*
X161651416Y-93356617D01*
X161248096Y-92952593D01*
X160720864Y-92733667D01*
X160149986Y-92733169D01*
X159622373Y-92951174D01*
X159287076Y-93285887D01*
X159328923Y-93185108D01*
X159329421Y-92614230D01*
X159111416Y-92086617D01*
X159095863Y-92071036D01*
X164548786Y-92071036D01*
X164888328Y-92892789D01*
X165516494Y-93522053D01*
X166337654Y-93863028D01*
X167226792Y-93863804D01*
X168048545Y-93524262D01*
X168677809Y-92896096D01*
X169018784Y-92074936D01*
X169019464Y-91296168D01*
X169457578Y-91478089D01*
X170207478Y-91478743D01*
X170900545Y-91192374D01*
X171431266Y-90662578D01*
X171718845Y-89970012D01*
X171719499Y-89220112D01*
X171433130Y-88527045D01*
X170903334Y-87996324D01*
X170210768Y-87708745D01*
X169460868Y-87708091D01*
X168767801Y-87994460D01*
X168237080Y-88524256D01*
X167949501Y-89216822D01*
X167949086Y-89692109D01*
X167230692Y-89393806D01*
X166341554Y-89393030D01*
X165519801Y-89732572D01*
X164890537Y-90360738D01*
X164549562Y-91181898D01*
X164548786Y-92071036D01*
X159095863Y-92071036D01*
X158708096Y-91682593D01*
X158180864Y-91463667D01*
X157609986Y-91463169D01*
X157082373Y-91681174D01*
X156678349Y-92084494D01*
X156459423Y-92611726D01*
X156458925Y-93182604D01*
X141754311Y-93182604D01*
X141411758Y-93040363D01*
X141037882Y-93040037D01*
X140692341Y-93182812D01*
X140427741Y-93446951D01*
X140284363Y-93792242D01*
X140284037Y-94166118D01*
X136652130Y-94166118D01*
X136686259Y-94132049D01*
X136829637Y-93786758D01*
X136829963Y-93412882D01*
X136687188Y-93067341D01*
X136423049Y-92802741D01*
X136077758Y-92659363D01*
X135703882Y-92659037D01*
X135358341Y-92801812D01*
X135093741Y-93065951D01*
X134950363Y-93411242D01*
X134950037Y-93785118D01*
X134366000Y-93785118D01*
X134366000Y-91118118D01*
X136601037Y-91118118D01*
X136743812Y-91463659D01*
X137007951Y-91728259D01*
X137353242Y-91871637D01*
X137727118Y-91871963D01*
X138072659Y-91729188D01*
X138175908Y-91626118D01*
X140030037Y-91626118D01*
X140172812Y-91971659D01*
X140436951Y-92236259D01*
X140782242Y-92379637D01*
X141156118Y-92379963D01*
X141501659Y-92237188D01*
X141766259Y-91973049D01*
X141909637Y-91627758D01*
X141909638Y-91626118D01*
X143205037Y-91626118D01*
X143347812Y-91971659D01*
X143611951Y-92236259D01*
X143957242Y-92379637D01*
X144331118Y-92379963D01*
X144676659Y-92237188D01*
X144941259Y-91973049D01*
X145084637Y-91627758D01*
X145084963Y-91253882D01*
X144976391Y-90991118D01*
X150190037Y-90991118D01*
X150332812Y-91336659D01*
X150596951Y-91601259D01*
X150942242Y-91744637D01*
X151316118Y-91744963D01*
X151661659Y-91602188D01*
X151926259Y-91338049D01*
X152069637Y-90992758D01*
X152069963Y-90618882D01*
X151927188Y-90273341D01*
X151663049Y-90008741D01*
X151317758Y-89865363D01*
X150943882Y-89865037D01*
X150598341Y-90007812D01*
X150333741Y-90271951D01*
X150190363Y-90617242D01*
X150190037Y-90991118D01*
X144976391Y-90991118D01*
X144942188Y-90908341D01*
X144678049Y-90643741D01*
X144332758Y-90500363D01*
X143958882Y-90500037D01*
X143613341Y-90642812D01*
X143348741Y-90906951D01*
X143205363Y-91252242D01*
X143205037Y-91626118D01*
X141909638Y-91626118D01*
X141909963Y-91253882D01*
X141767188Y-90908341D01*
X141503049Y-90643741D01*
X141157758Y-90500363D01*
X140783882Y-90500037D01*
X140438341Y-90642812D01*
X140173741Y-90906951D01*
X140030363Y-91252242D01*
X140030037Y-91626118D01*
X138175908Y-91626118D01*
X138337259Y-91465049D01*
X138480637Y-91119758D01*
X138480963Y-90745882D01*
X138338188Y-90400341D01*
X138074049Y-90135741D01*
X137728758Y-89992363D01*
X137354882Y-89992037D01*
X137009341Y-90134812D01*
X136744741Y-90398951D01*
X136601363Y-90744242D01*
X136601037Y-91118118D01*
X134366000Y-91118118D01*
X134366000Y-89086118D01*
X153365037Y-89086118D01*
X153507812Y-89431659D01*
X153771951Y-89696259D01*
X154117242Y-89839637D01*
X154491118Y-89839963D01*
X154836659Y-89697188D01*
X155101259Y-89433049D01*
X155244637Y-89087758D01*
X155244963Y-88713882D01*
X155102188Y-88368341D01*
X154838049Y-88103741D01*
X154492758Y-87960363D01*
X154118882Y-87960037D01*
X153773341Y-88102812D01*
X153508741Y-88366951D01*
X153365363Y-88712242D01*
X153365037Y-89086118D01*
X134366000Y-89086118D01*
X134366000Y-88823801D01*
X134552118Y-88823963D01*
X134897659Y-88681188D01*
X135162259Y-88417049D01*
X135305637Y-88071758D01*
X135305963Y-87697882D01*
X135163188Y-87352341D01*
X134992264Y-87181118D01*
X146380037Y-87181118D01*
X146522812Y-87526659D01*
X146786951Y-87791259D01*
X147132242Y-87934637D01*
X147506118Y-87934963D01*
X147851659Y-87792188D01*
X148116259Y-87528049D01*
X148259637Y-87182758D01*
X148259963Y-86808882D01*
X148117188Y-86463341D01*
X147853049Y-86198741D01*
X147507758Y-86055363D01*
X147133882Y-86055037D01*
X146788341Y-86197812D01*
X146523741Y-86461951D01*
X146380363Y-86807242D01*
X146380037Y-87181118D01*
X134992264Y-87181118D01*
X134899049Y-87087741D01*
X134553758Y-86944363D01*
X134366000Y-86944199D01*
X134366000Y-85276118D01*
X154635037Y-85276118D01*
X154777812Y-85621659D01*
X155041951Y-85886259D01*
X155387242Y-86029637D01*
X155761118Y-86029963D01*
X156106659Y-85887188D01*
X156371259Y-85623049D01*
X156514637Y-85277758D01*
X156514963Y-84903882D01*
X156372188Y-84558341D01*
X156108049Y-84293741D01*
X155762758Y-84150363D01*
X155388882Y-84150037D01*
X155043341Y-84292812D01*
X154778741Y-84556951D01*
X154635363Y-84902242D01*
X154635037Y-85276118D01*
X134366000Y-85276118D01*
X134366000Y-83371118D01*
X138125037Y-83371118D01*
X138267812Y-83716659D01*
X138531951Y-83981259D01*
X138877242Y-84124637D01*
X139251118Y-84124963D01*
X139596659Y-83982188D01*
X139633792Y-83945119D01*
X165150613Y-83945119D01*
X165490155Y-84766872D01*
X166118321Y-85396136D01*
X166939481Y-85737111D01*
X167828619Y-85737887D01*
X168650372Y-85398345D01*
X169279636Y-84770179D01*
X169620611Y-83949019D01*
X169621387Y-83059881D01*
X169281845Y-82238128D01*
X168653679Y-81608864D01*
X167832519Y-81267889D01*
X166943381Y-81267113D01*
X166121628Y-81606655D01*
X165492364Y-82234821D01*
X165151389Y-83055981D01*
X165150613Y-83945119D01*
X139633792Y-83945119D01*
X139861259Y-83718049D01*
X140004637Y-83372758D01*
X140004963Y-82998882D01*
X139936837Y-82834006D01*
X140231659Y-82712188D01*
X140496259Y-82448049D01*
X140639637Y-82102758D01*
X140639963Y-81728882D01*
X140497188Y-81383341D01*
X140233049Y-81118741D01*
X139887758Y-80975363D01*
X139513882Y-80975037D01*
X139168341Y-81117812D01*
X138903741Y-81381951D01*
X138760363Y-81727242D01*
X138760037Y-82101118D01*
X138828163Y-82265994D01*
X138533341Y-82387812D01*
X138268741Y-82651951D01*
X138125363Y-82997242D01*
X138125037Y-83371118D01*
X134366000Y-83371118D01*
X134366000Y-80922131D01*
X134432242Y-80949637D01*
X134806118Y-80949963D01*
X135151659Y-80807188D01*
X135416259Y-80543049D01*
X135559637Y-80197758D01*
X135559963Y-79823882D01*
X135417188Y-79478341D01*
X135153049Y-79213741D01*
X134807758Y-79070363D01*
X134433882Y-79070037D01*
X134366000Y-79098085D01*
X134366000Y-78815000D01*
X175566000Y-78815000D01*
X175566000Y-118670000D01*
M02*
