%FSLAX45Y45*%
G04 Gerber Fmt 4.5, Leading zero omitted, Abs format (unit mm)*
G04 Created by KiCad (PCBNEW 4.0.6) date 12/01/17 17:51:23*
%MOMM*%
%LPD*%
G01*
G04 APERTURE LIST*
%ADD10C,0.127000*%
%ADD11C,0.150000*%
%ADD12C,0.200000*%
%ADD13C,0.300000*%
G04 APERTURE END LIST*
D10*
D11*
X11277600Y-11938000D02*
X11277600Y-7810500D01*
X17627600Y-11938000D02*
X11277600Y-11938000D01*
X17627600Y-7810500D02*
X17627600Y-11938000D01*
X11277600Y-7810500D02*
X17627600Y-7810500D01*
D12*
X11816100Y-8190250D02*
X12136100Y-8510250D01*
X12136100Y-8190250D02*
X11816100Y-8510250D01*
X11816100Y-11333500D02*
X12136100Y-11653500D01*
X12136100Y-11333500D02*
X11816100Y-11653500D01*
X16518417Y-9002842D02*
X16838417Y-9322842D01*
X16838417Y-9002842D02*
X16518417Y-9322842D01*
X16518417Y-10145842D02*
X16838417Y-10465842D01*
X16838417Y-10145842D02*
X16518417Y-10465842D01*
X16578600Y-8190250D02*
X16898600Y-8510250D01*
X16898600Y-8190250D02*
X16578600Y-8510250D01*
D13*
X11541528Y-12411214D02*
X11541528Y-12111214D01*
X11612957Y-12111214D01*
X11655814Y-12125500D01*
X11684386Y-12154071D01*
X11698671Y-12182643D01*
X11712957Y-12239786D01*
X11712957Y-12282643D01*
X11698671Y-12339786D01*
X11684386Y-12368357D01*
X11655814Y-12396929D01*
X11612957Y-12411214D01*
X11541528Y-12411214D01*
X11841528Y-12411214D02*
X11841528Y-12211214D01*
X11841528Y-12268357D02*
X11855814Y-12239786D01*
X11870100Y-12225500D01*
X11898671Y-12211214D01*
X11927243Y-12211214D01*
X12027243Y-12411214D02*
X12027243Y-12211214D01*
X12027243Y-12111214D02*
X12012957Y-12125500D01*
X12027243Y-12139786D01*
X12041528Y-12125500D01*
X12027243Y-12111214D01*
X12027243Y-12139786D01*
X12212957Y-12411214D02*
X12184386Y-12396929D01*
X12170100Y-12368357D01*
X12170100Y-12111214D01*
X12370100Y-12411214D02*
X12341528Y-12396929D01*
X12327243Y-12368357D01*
X12327243Y-12111214D01*
X12712957Y-12411214D02*
X12712957Y-12111214D01*
X12812957Y-12325500D01*
X12912957Y-12111214D01*
X12912957Y-12411214D01*
X13184386Y-12411214D02*
X13184386Y-12254071D01*
X13170100Y-12225500D01*
X13141528Y-12211214D01*
X13084386Y-12211214D01*
X13055814Y-12225500D01*
X13184386Y-12396929D02*
X13155814Y-12411214D01*
X13084386Y-12411214D01*
X13055814Y-12396929D01*
X13041528Y-12368357D01*
X13041528Y-12339786D01*
X13055814Y-12311214D01*
X13084386Y-12296929D01*
X13155814Y-12296929D01*
X13184386Y-12282643D01*
X13327243Y-12211214D02*
X13327243Y-12511214D01*
X13327243Y-12225500D02*
X13355814Y-12211214D01*
X13412957Y-12211214D01*
X13441528Y-12225500D01*
X13455814Y-12239786D01*
X13470100Y-12268357D01*
X13470100Y-12354071D01*
X13455814Y-12382643D01*
X13441528Y-12396929D01*
X13412957Y-12411214D01*
X13355814Y-12411214D01*
X13327243Y-12396929D01*
X13598671Y-12382643D02*
X13612957Y-12396929D01*
X13598671Y-12411214D01*
X13584386Y-12396929D01*
X13598671Y-12382643D01*
X13598671Y-12411214D01*
X13598671Y-12225500D02*
X13612957Y-12239786D01*
X13598671Y-12254071D01*
X13584386Y-12239786D01*
X13598671Y-12225500D01*
X13598671Y-12254071D01*
X10950100Y-12745500D02*
X11270100Y-13065500D01*
X11270100Y-12745500D02*
X10950100Y-13065500D01*
X11512957Y-12741214D02*
X11698671Y-12741214D01*
X11598671Y-12855500D01*
X11641528Y-12855500D01*
X11670100Y-12869786D01*
X11684386Y-12884071D01*
X11698671Y-12912643D01*
X11698671Y-12984071D01*
X11684386Y-13012643D01*
X11670100Y-13026929D01*
X11641528Y-13041214D01*
X11555814Y-13041214D01*
X11527243Y-13026929D01*
X11512957Y-13012643D01*
X11827243Y-13012643D02*
X11841528Y-13026929D01*
X11827243Y-13041214D01*
X11812957Y-13026929D01*
X11827243Y-13012643D01*
X11827243Y-13041214D01*
X11955814Y-12769786D02*
X11970100Y-12755500D01*
X11998671Y-12741214D01*
X12070100Y-12741214D01*
X12098671Y-12755500D01*
X12112957Y-12769786D01*
X12127243Y-12798357D01*
X12127243Y-12826929D01*
X12112957Y-12869786D01*
X11941528Y-13041214D01*
X12127243Y-13041214D01*
X12312957Y-12741214D02*
X12341528Y-12741214D01*
X12370100Y-12755500D01*
X12384386Y-12769786D01*
X12398671Y-12798357D01*
X12412957Y-12855500D01*
X12412957Y-12926929D01*
X12398671Y-12984071D01*
X12384386Y-13012643D01*
X12370100Y-13026929D01*
X12341528Y-13041214D01*
X12312957Y-13041214D01*
X12284386Y-13026929D01*
X12270100Y-13012643D01*
X12255814Y-12984071D01*
X12241528Y-12926929D01*
X12241528Y-12855500D01*
X12255814Y-12798357D01*
X12270100Y-12769786D01*
X12284386Y-12755500D01*
X12312957Y-12741214D01*
X12541528Y-13041214D02*
X12541528Y-12841214D01*
X12541528Y-12869786D02*
X12555814Y-12855500D01*
X12584386Y-12841214D01*
X12627243Y-12841214D01*
X12655814Y-12855500D01*
X12670100Y-12884071D01*
X12670100Y-13041214D01*
X12670100Y-12884071D02*
X12684386Y-12855500D01*
X12712957Y-12841214D01*
X12755814Y-12841214D01*
X12784386Y-12855500D01*
X12798671Y-12884071D01*
X12798671Y-13041214D01*
X12941528Y-13041214D02*
X12941528Y-12841214D01*
X12941528Y-12869786D02*
X12955814Y-12855500D01*
X12984386Y-12841214D01*
X13027243Y-12841214D01*
X13055814Y-12855500D01*
X13070100Y-12884071D01*
X13070100Y-13041214D01*
X13070100Y-12884071D02*
X13084386Y-12855500D01*
X13112957Y-12841214D01*
X13155814Y-12841214D01*
X13184386Y-12855500D01*
X13198671Y-12884071D01*
X13198671Y-13041214D01*
X13784386Y-12726929D02*
X13527243Y-13112643D01*
X14170100Y-12741214D02*
X14198671Y-12741214D01*
X14227243Y-12755500D01*
X14241528Y-12769786D01*
X14255814Y-12798357D01*
X14270100Y-12855500D01*
X14270100Y-12926929D01*
X14255814Y-12984071D01*
X14241528Y-13012643D01*
X14227243Y-13026929D01*
X14198671Y-13041214D01*
X14170100Y-13041214D01*
X14141528Y-13026929D01*
X14127243Y-13012643D01*
X14112957Y-12984071D01*
X14098671Y-12926929D01*
X14098671Y-12855500D01*
X14112957Y-12798357D01*
X14127243Y-12769786D01*
X14141528Y-12755500D01*
X14170100Y-12741214D01*
X14398671Y-13012643D02*
X14412957Y-13026929D01*
X14398671Y-13041214D01*
X14384386Y-13026929D01*
X14398671Y-13012643D01*
X14398671Y-13041214D01*
X14698671Y-13041214D02*
X14527243Y-13041214D01*
X14612957Y-13041214D02*
X14612957Y-12741214D01*
X14584385Y-12784071D01*
X14555814Y-12812643D01*
X14527243Y-12826929D01*
X14812957Y-12769786D02*
X14827243Y-12755500D01*
X14855814Y-12741214D01*
X14927243Y-12741214D01*
X14955814Y-12755500D01*
X14970100Y-12769786D01*
X14984385Y-12798357D01*
X14984385Y-12826929D01*
X14970100Y-12869786D01*
X14798671Y-13041214D01*
X14984385Y-13041214D01*
X15241528Y-12741214D02*
X15184385Y-12741214D01*
X15155814Y-12755500D01*
X15141528Y-12769786D01*
X15112957Y-12812643D01*
X15098671Y-12869786D01*
X15098671Y-12984071D01*
X15112957Y-13012643D01*
X15127243Y-13026929D01*
X15155814Y-13041214D01*
X15212957Y-13041214D01*
X15241528Y-13026929D01*
X15255814Y-13012643D01*
X15270100Y-12984071D01*
X15270100Y-12912643D01*
X15255814Y-12884071D01*
X15241528Y-12869786D01*
X15212957Y-12855500D01*
X15155814Y-12855500D01*
X15127243Y-12869786D01*
X15112957Y-12884071D01*
X15098671Y-12912643D01*
X15384386Y-12741214D02*
X15384386Y-12798357D01*
X15498671Y-12741214D02*
X15498671Y-12798357D01*
X15941528Y-13155500D02*
X15927243Y-13141214D01*
X15898671Y-13098357D01*
X15884385Y-13069786D01*
X15870100Y-13026929D01*
X15855814Y-12955500D01*
X15855814Y-12898357D01*
X15870100Y-12826929D01*
X15884385Y-12784071D01*
X15898671Y-12755500D01*
X15927243Y-12712643D01*
X15941528Y-12698357D01*
X16198671Y-12741214D02*
X16055814Y-12741214D01*
X16041528Y-12884071D01*
X16055814Y-12869786D01*
X16084385Y-12855500D01*
X16155814Y-12855500D01*
X16184385Y-12869786D01*
X16198671Y-12884071D01*
X16212957Y-12912643D01*
X16212957Y-12984071D01*
X16198671Y-13012643D01*
X16184385Y-13026929D01*
X16155814Y-13041214D01*
X16084385Y-13041214D01*
X16055814Y-13026929D01*
X16041528Y-13012643D01*
X16570100Y-13041214D02*
X16570100Y-12741214D01*
X16698671Y-13041214D02*
X16698671Y-12884071D01*
X16684385Y-12855500D01*
X16655814Y-12841214D01*
X16612957Y-12841214D01*
X16584385Y-12855500D01*
X16570100Y-12869786D01*
X16884386Y-13041214D02*
X16855814Y-13026929D01*
X16841528Y-13012643D01*
X16827243Y-12984071D01*
X16827243Y-12898357D01*
X16841528Y-12869786D01*
X16855814Y-12855500D01*
X16884386Y-12841214D01*
X16927243Y-12841214D01*
X16955814Y-12855500D01*
X16970100Y-12869786D01*
X16984386Y-12898357D01*
X16984386Y-12984071D01*
X16970100Y-13012643D01*
X16955814Y-13026929D01*
X16927243Y-13041214D01*
X16884386Y-13041214D01*
X17155814Y-13041214D02*
X17127243Y-13026929D01*
X17112957Y-12998357D01*
X17112957Y-12741214D01*
X17384386Y-13026929D02*
X17355814Y-13041214D01*
X17298671Y-13041214D01*
X17270100Y-13026929D01*
X17255814Y-12998357D01*
X17255814Y-12884071D01*
X17270100Y-12855500D01*
X17298671Y-12841214D01*
X17355814Y-12841214D01*
X17384386Y-12855500D01*
X17398671Y-12884071D01*
X17398671Y-12912643D01*
X17255814Y-12941214D01*
X17512957Y-13026929D02*
X17541529Y-13041214D01*
X17598671Y-13041214D01*
X17627243Y-13026929D01*
X17641529Y-12998357D01*
X17641529Y-12984071D01*
X17627243Y-12955500D01*
X17598671Y-12941214D01*
X17555814Y-12941214D01*
X17527243Y-12926929D01*
X17512957Y-12898357D01*
X17512957Y-12884071D01*
X17527243Y-12855500D01*
X17555814Y-12841214D01*
X17598671Y-12841214D01*
X17627243Y-12855500D01*
X17741528Y-13155500D02*
X17755814Y-13141214D01*
X17784386Y-13098357D01*
X17798671Y-13069786D01*
X17812957Y-13026929D01*
X17827243Y-12955500D01*
X17827243Y-12898357D01*
X17812957Y-12826929D01*
X17798671Y-12784071D01*
X17784386Y-12755500D01*
X17755814Y-12712643D01*
X17741528Y-12698357D01*
X18284386Y-13155500D02*
X18270100Y-13141214D01*
X18241528Y-13098357D01*
X18227243Y-13069786D01*
X18212957Y-13026929D01*
X18198671Y-12955500D01*
X18198671Y-12898357D01*
X18212957Y-12826929D01*
X18227243Y-12784071D01*
X18241528Y-12755500D01*
X18270100Y-12712643D01*
X18284386Y-12698357D01*
X18398671Y-12841214D02*
X18398671Y-13041214D01*
X18398671Y-12869786D02*
X18412957Y-12855500D01*
X18441528Y-12841214D01*
X18484386Y-12841214D01*
X18512957Y-12855500D01*
X18527243Y-12884071D01*
X18527243Y-13041214D01*
X18712957Y-13041214D02*
X18684386Y-13026929D01*
X18670100Y-13012643D01*
X18655814Y-12984071D01*
X18655814Y-12898357D01*
X18670100Y-12869786D01*
X18684386Y-12855500D01*
X18712957Y-12841214D01*
X18755814Y-12841214D01*
X18784386Y-12855500D01*
X18798671Y-12869786D01*
X18812957Y-12898357D01*
X18812957Y-12984071D01*
X18798671Y-13012643D01*
X18784386Y-13026929D01*
X18755814Y-13041214D01*
X18712957Y-13041214D01*
X18898671Y-12841214D02*
X19012957Y-12841214D01*
X18941529Y-12741214D02*
X18941529Y-12998357D01*
X18955814Y-13026929D01*
X18984386Y-13041214D01*
X19012957Y-13041214D01*
X19341529Y-12841214D02*
X19341529Y-13141214D01*
X19341529Y-12855500D02*
X19370100Y-12841214D01*
X19427243Y-12841214D01*
X19455814Y-12855500D01*
X19470100Y-12869786D01*
X19484386Y-12898357D01*
X19484386Y-12984071D01*
X19470100Y-13012643D01*
X19455814Y-13026929D01*
X19427243Y-13041214D01*
X19370100Y-13041214D01*
X19341529Y-13026929D01*
X19655814Y-13041214D02*
X19627243Y-13026929D01*
X19612957Y-12998357D01*
X19612957Y-12741214D01*
X19898671Y-13041214D02*
X19898671Y-12884071D01*
X19884386Y-12855500D01*
X19855814Y-12841214D01*
X19798671Y-12841214D01*
X19770100Y-12855500D01*
X19898671Y-13026929D02*
X19870100Y-13041214D01*
X19798671Y-13041214D01*
X19770100Y-13026929D01*
X19755814Y-12998357D01*
X19755814Y-12969786D01*
X19770100Y-12941214D01*
X19798671Y-12926929D01*
X19870100Y-12926929D01*
X19898671Y-12912643D01*
X19998671Y-12841214D02*
X20112957Y-12841214D01*
X20041529Y-12741214D02*
X20041529Y-12998357D01*
X20055814Y-13026929D01*
X20084386Y-13041214D01*
X20112957Y-13041214D01*
X20327243Y-13026929D02*
X20298672Y-13041214D01*
X20241529Y-13041214D01*
X20212957Y-13026929D01*
X20198672Y-12998357D01*
X20198672Y-12884071D01*
X20212957Y-12855500D01*
X20241529Y-12841214D01*
X20298672Y-12841214D01*
X20327243Y-12855500D01*
X20341529Y-12884071D01*
X20341529Y-12912643D01*
X20198672Y-12941214D01*
X20598672Y-13041214D02*
X20598672Y-12741214D01*
X20598672Y-13026929D02*
X20570100Y-13041214D01*
X20512957Y-13041214D01*
X20484386Y-13026929D01*
X20470100Y-13012643D01*
X20455814Y-12984071D01*
X20455814Y-12898357D01*
X20470100Y-12869786D01*
X20484386Y-12855500D01*
X20512957Y-12841214D01*
X20570100Y-12841214D01*
X20598672Y-12855500D01*
X20712957Y-13155500D02*
X20727243Y-13141214D01*
X20755814Y-13098357D01*
X20770100Y-13069786D01*
X20784386Y-13026929D01*
X20798672Y-12955500D01*
X20798672Y-12898357D01*
X20784386Y-12826929D01*
X20770100Y-12784071D01*
X20755814Y-12755500D01*
X20727243Y-12712643D01*
X20712957Y-12698357D01*
M02*
