G04 #@! TF.FileFunction,Copper,L4,Bot,Signal*
%FSLAX46Y46*%
G04 Gerber Fmt 4.6, Leading zero omitted, Abs format (unit mm)*
G04 Created by KiCad (PCBNEW 4.0.6) date 12/01/17 17:53:21*
%MOMM*%
%LPD*%
G01*
G04 APERTURE LIST*
%ADD10C,0.100000*%
%ADD11C,1.600000*%
%ADD12C,2.500000*%
%ADD13C,0.609600*%
%ADD14C,0.254000*%
%ADD15C,0.127000*%
G04 APERTURE END LIST*
D10*
D11*
X160434173Y-101788417D03*
X157894173Y-100518417D03*
X160434173Y-99248417D03*
X157894173Y-97978417D03*
X160434173Y-96708417D03*
X157894173Y-95438417D03*
X160434173Y-94168417D03*
X157894173Y-92898417D03*
D12*
X169834173Y-89593417D03*
X169834173Y-105093417D03*
D13*
X129794000Y-110236000D03*
X130810000Y-101346000D03*
X130810000Y-102362000D03*
X130048000Y-105156000D03*
X130810000Y-110744000D03*
X135890000Y-105156000D03*
X133604000Y-104902000D03*
X134366000Y-87884000D03*
X130048000Y-92456000D03*
X130048000Y-91440000D03*
X129540000Y-87122000D03*
X131318000Y-86614000D03*
X136017000Y-95758000D03*
X131572000Y-97028000D03*
X129794000Y-96266000D03*
X125730000Y-93853000D03*
X126238000Y-94615000D03*
X126111000Y-95377000D03*
X125984000Y-96139000D03*
X116332000Y-98044000D03*
X117475000Y-100330000D03*
X116840000Y-100965000D03*
X115570000Y-102235000D03*
X123190000Y-99060000D03*
X125730000Y-102870000D03*
X124460000Y-102870000D03*
X124460000Y-104775000D03*
X121285000Y-106045000D03*
X120015000Y-106045000D03*
X142240000Y-102235000D03*
X140970000Y-91440000D03*
X144145000Y-91440000D03*
X147320000Y-86995000D03*
X138430000Y-112395000D03*
X141224000Y-93980000D03*
X142875000Y-106680000D03*
X134620000Y-80010000D03*
X127635000Y-80010000D03*
X126365000Y-80645000D03*
X139065000Y-83185000D03*
X134645199Y-95631000D03*
X134620000Y-105156000D03*
X137414000Y-105156000D03*
X136906000Y-86614000D03*
X134620000Y-86360000D03*
X137414000Y-95758000D03*
X140970000Y-86995000D03*
X142494000Y-93980000D03*
X140335000Y-105410000D03*
X154432000Y-98044000D03*
X139700000Y-81915000D03*
X140335000Y-99695000D03*
X136385301Y-103644699D03*
X138176000Y-110744000D03*
X135890000Y-93599000D03*
X138303000Y-100457000D03*
X137541000Y-90932000D03*
X128524000Y-105410000D03*
X127508000Y-87122000D03*
X128016000Y-96520000D03*
X115315999Y-95885000D03*
X115570000Y-103505000D03*
X125730000Y-84455000D03*
X155575000Y-85090000D03*
X154305000Y-88900000D03*
X151130000Y-90805000D03*
X151130000Y-103505000D03*
X152400000Y-103505000D03*
X156210000Y-107315000D03*
X165735000Y-110490000D03*
X165735000Y-107950000D03*
X160020000Y-111125000D03*
D14*
X154432000Y-98044000D02*
X154432000Y-91567000D01*
X154432000Y-91567000D02*
X144780000Y-81915000D01*
X144780000Y-81915000D02*
X139700000Y-81915000D01*
D15*
X136385301Y-103644699D02*
X140335000Y-99695000D01*
X136385301Y-103644699D02*
X136690100Y-103339900D01*
X136690100Y-103339900D02*
X136690100Y-94399100D01*
X136690100Y-94399100D02*
X136639301Y-94348301D01*
X136855201Y-110439201D02*
X136385301Y-109969301D01*
X136385301Y-109969301D02*
X136385301Y-103644699D01*
X138176000Y-110744000D02*
X137871201Y-110439201D01*
X137871201Y-110439201D02*
X136855201Y-110439201D01*
X135890000Y-93599000D02*
X136639301Y-94348301D01*
X137541000Y-90932000D02*
X138303000Y-91694000D01*
X138303000Y-91694000D02*
X138303000Y-100457000D01*
D14*
G36*
X165490155Y-84766872D02*
X166118321Y-85396136D01*
X166939481Y-85737111D01*
X167828619Y-85737887D01*
X168650372Y-85398345D01*
X169279636Y-84770179D01*
X169620611Y-83949019D01*
X169620613Y-83947000D01*
X172593000Y-83947000D01*
X172593000Y-111633000D01*
X149987000Y-111633000D01*
X149987000Y-103501036D01*
X164548786Y-103501036D01*
X164888328Y-104322789D01*
X165516494Y-104952053D01*
X166337654Y-105293028D01*
X167226792Y-105293804D01*
X167949258Y-104995287D01*
X167948847Y-105466722D01*
X168235216Y-106159789D01*
X168765012Y-106690510D01*
X169457578Y-106978089D01*
X170207478Y-106978743D01*
X170900545Y-106692374D01*
X171431266Y-106162578D01*
X171718845Y-105470012D01*
X171719499Y-104720112D01*
X171433130Y-104027045D01*
X170903334Y-103496324D01*
X170210768Y-103208745D01*
X169460868Y-103208091D01*
X169018884Y-103390715D01*
X169019560Y-102615798D01*
X168680018Y-101794045D01*
X168051852Y-101164781D01*
X167230692Y-100823806D01*
X166341554Y-100823030D01*
X165519801Y-101162572D01*
X164890537Y-101790738D01*
X164549562Y-102611898D01*
X164548786Y-103501036D01*
X149987000Y-103501036D01*
X149987000Y-88199631D01*
X153670000Y-91882631D01*
X153670000Y-97476752D01*
X153635741Y-97510951D01*
X153492363Y-97856242D01*
X153492037Y-98230118D01*
X153634812Y-98575659D01*
X153898951Y-98840259D01*
X154244242Y-98983637D01*
X154618118Y-98983963D01*
X154963659Y-98841188D01*
X155228259Y-98577049D01*
X155371637Y-98231758D01*
X155371963Y-97857882D01*
X155229188Y-97512341D01*
X155194000Y-97477092D01*
X155194000Y-93182604D01*
X156458925Y-93182604D01*
X156676930Y-93710217D01*
X157080250Y-94114241D01*
X157210388Y-94168279D01*
X157082373Y-94221174D01*
X156678349Y-94624494D01*
X156459423Y-95151726D01*
X156458925Y-95722604D01*
X156676930Y-96250217D01*
X157080250Y-96654241D01*
X157210388Y-96708279D01*
X157082373Y-96761174D01*
X156678349Y-97164494D01*
X156459423Y-97691726D01*
X156458925Y-98262604D01*
X156676930Y-98790217D01*
X157080250Y-99194241D01*
X157210388Y-99248279D01*
X157082373Y-99301174D01*
X156678349Y-99704494D01*
X156459423Y-100231726D01*
X156458925Y-100802604D01*
X156676930Y-101330217D01*
X157080250Y-101734241D01*
X157607482Y-101953167D01*
X158178360Y-101953665D01*
X158705973Y-101735660D01*
X159041270Y-101400947D01*
X158999423Y-101501726D01*
X158998925Y-102072604D01*
X159216930Y-102600217D01*
X159620250Y-103004241D01*
X160147482Y-103223167D01*
X160718360Y-103223665D01*
X161245973Y-103005660D01*
X161649997Y-102602340D01*
X161868923Y-102075108D01*
X161869421Y-101504230D01*
X161651416Y-100976617D01*
X161248096Y-100572593D01*
X161117958Y-100518555D01*
X161245973Y-100465660D01*
X161649997Y-100062340D01*
X161868923Y-99535108D01*
X161869421Y-98964230D01*
X161651416Y-98436617D01*
X161248096Y-98032593D01*
X161117958Y-97978555D01*
X161245973Y-97925660D01*
X161649997Y-97522340D01*
X161868923Y-96995108D01*
X161869421Y-96424230D01*
X161651416Y-95896617D01*
X161248096Y-95492593D01*
X161117958Y-95438555D01*
X161245973Y-95385660D01*
X161649997Y-94982340D01*
X161868923Y-94455108D01*
X161869421Y-93884230D01*
X161651416Y-93356617D01*
X161248096Y-92952593D01*
X160720864Y-92733667D01*
X160149986Y-92733169D01*
X159622373Y-92951174D01*
X159287076Y-93285887D01*
X159328923Y-93185108D01*
X159329421Y-92614230D01*
X159111416Y-92086617D01*
X159095863Y-92071036D01*
X164548786Y-92071036D01*
X164888328Y-92892789D01*
X165516494Y-93522053D01*
X166337654Y-93863028D01*
X167226792Y-93863804D01*
X168048545Y-93524262D01*
X168677809Y-92896096D01*
X169018784Y-92074936D01*
X169019464Y-91296168D01*
X169457578Y-91478089D01*
X170207478Y-91478743D01*
X170900545Y-91192374D01*
X171431266Y-90662578D01*
X171718845Y-89970012D01*
X171719499Y-89220112D01*
X171433130Y-88527045D01*
X170903334Y-87996324D01*
X170210768Y-87708745D01*
X169460868Y-87708091D01*
X168767801Y-87994460D01*
X168237080Y-88524256D01*
X167949501Y-89216822D01*
X167949086Y-89692109D01*
X167230692Y-89393806D01*
X166341554Y-89393030D01*
X165519801Y-89732572D01*
X164890537Y-90360738D01*
X164549562Y-91181898D01*
X164548786Y-92071036D01*
X159095863Y-92071036D01*
X158708096Y-91682593D01*
X158180864Y-91463667D01*
X157609986Y-91463169D01*
X157082373Y-91681174D01*
X156678349Y-92084494D01*
X156459423Y-92611726D01*
X156458925Y-93182604D01*
X155194000Y-93182604D01*
X155194000Y-91567000D01*
X155135996Y-91275395D01*
X155080523Y-91192374D01*
X154970815Y-91028184D01*
X149987000Y-86044370D01*
X149987000Y-83947000D01*
X165151390Y-83947000D01*
X165490155Y-84766872D01*
X165490155Y-84766872D01*
G37*
X165490155Y-84766872D02*
X166118321Y-85396136D01*
X166939481Y-85737111D01*
X167828619Y-85737887D01*
X168650372Y-85398345D01*
X169279636Y-84770179D01*
X169620611Y-83949019D01*
X169620613Y-83947000D01*
X172593000Y-83947000D01*
X172593000Y-111633000D01*
X149987000Y-111633000D01*
X149987000Y-103501036D01*
X164548786Y-103501036D01*
X164888328Y-104322789D01*
X165516494Y-104952053D01*
X166337654Y-105293028D01*
X167226792Y-105293804D01*
X167949258Y-104995287D01*
X167948847Y-105466722D01*
X168235216Y-106159789D01*
X168765012Y-106690510D01*
X169457578Y-106978089D01*
X170207478Y-106978743D01*
X170900545Y-106692374D01*
X171431266Y-106162578D01*
X171718845Y-105470012D01*
X171719499Y-104720112D01*
X171433130Y-104027045D01*
X170903334Y-103496324D01*
X170210768Y-103208745D01*
X169460868Y-103208091D01*
X169018884Y-103390715D01*
X169019560Y-102615798D01*
X168680018Y-101794045D01*
X168051852Y-101164781D01*
X167230692Y-100823806D01*
X166341554Y-100823030D01*
X165519801Y-101162572D01*
X164890537Y-101790738D01*
X164549562Y-102611898D01*
X164548786Y-103501036D01*
X149987000Y-103501036D01*
X149987000Y-88199631D01*
X153670000Y-91882631D01*
X153670000Y-97476752D01*
X153635741Y-97510951D01*
X153492363Y-97856242D01*
X153492037Y-98230118D01*
X153634812Y-98575659D01*
X153898951Y-98840259D01*
X154244242Y-98983637D01*
X154618118Y-98983963D01*
X154963659Y-98841188D01*
X155228259Y-98577049D01*
X155371637Y-98231758D01*
X155371963Y-97857882D01*
X155229188Y-97512341D01*
X155194000Y-97477092D01*
X155194000Y-93182604D01*
X156458925Y-93182604D01*
X156676930Y-93710217D01*
X157080250Y-94114241D01*
X157210388Y-94168279D01*
X157082373Y-94221174D01*
X156678349Y-94624494D01*
X156459423Y-95151726D01*
X156458925Y-95722604D01*
X156676930Y-96250217D01*
X157080250Y-96654241D01*
X157210388Y-96708279D01*
X157082373Y-96761174D01*
X156678349Y-97164494D01*
X156459423Y-97691726D01*
X156458925Y-98262604D01*
X156676930Y-98790217D01*
X157080250Y-99194241D01*
X157210388Y-99248279D01*
X157082373Y-99301174D01*
X156678349Y-99704494D01*
X156459423Y-100231726D01*
X156458925Y-100802604D01*
X156676930Y-101330217D01*
X157080250Y-101734241D01*
X157607482Y-101953167D01*
X158178360Y-101953665D01*
X158705973Y-101735660D01*
X159041270Y-101400947D01*
X158999423Y-101501726D01*
X158998925Y-102072604D01*
X159216930Y-102600217D01*
X159620250Y-103004241D01*
X160147482Y-103223167D01*
X160718360Y-103223665D01*
X161245973Y-103005660D01*
X161649997Y-102602340D01*
X161868923Y-102075108D01*
X161869421Y-101504230D01*
X161651416Y-100976617D01*
X161248096Y-100572593D01*
X161117958Y-100518555D01*
X161245973Y-100465660D01*
X161649997Y-100062340D01*
X161868923Y-99535108D01*
X161869421Y-98964230D01*
X161651416Y-98436617D01*
X161248096Y-98032593D01*
X161117958Y-97978555D01*
X161245973Y-97925660D01*
X161649997Y-97522340D01*
X161868923Y-96995108D01*
X161869421Y-96424230D01*
X161651416Y-95896617D01*
X161248096Y-95492593D01*
X161117958Y-95438555D01*
X161245973Y-95385660D01*
X161649997Y-94982340D01*
X161868923Y-94455108D01*
X161869421Y-93884230D01*
X161651416Y-93356617D01*
X161248096Y-92952593D01*
X160720864Y-92733667D01*
X160149986Y-92733169D01*
X159622373Y-92951174D01*
X159287076Y-93285887D01*
X159328923Y-93185108D01*
X159329421Y-92614230D01*
X159111416Y-92086617D01*
X159095863Y-92071036D01*
X164548786Y-92071036D01*
X164888328Y-92892789D01*
X165516494Y-93522053D01*
X166337654Y-93863028D01*
X167226792Y-93863804D01*
X168048545Y-93524262D01*
X168677809Y-92896096D01*
X169018784Y-92074936D01*
X169019464Y-91296168D01*
X169457578Y-91478089D01*
X170207478Y-91478743D01*
X170900545Y-91192374D01*
X171431266Y-90662578D01*
X171718845Y-89970012D01*
X171719499Y-89220112D01*
X171433130Y-88527045D01*
X170903334Y-87996324D01*
X170210768Y-87708745D01*
X169460868Y-87708091D01*
X168767801Y-87994460D01*
X168237080Y-88524256D01*
X167949501Y-89216822D01*
X167949086Y-89692109D01*
X167230692Y-89393806D01*
X166341554Y-89393030D01*
X165519801Y-89732572D01*
X164890537Y-90360738D01*
X164549562Y-91181898D01*
X164548786Y-92071036D01*
X159095863Y-92071036D01*
X158708096Y-91682593D01*
X158180864Y-91463667D01*
X157609986Y-91463169D01*
X157082373Y-91681174D01*
X156678349Y-92084494D01*
X156459423Y-92611726D01*
X156458925Y-93182604D01*
X155194000Y-93182604D01*
X155194000Y-91567000D01*
X155135996Y-91275395D01*
X155080523Y-91192374D01*
X154970815Y-91028184D01*
X149987000Y-86044370D01*
X149987000Y-83947000D01*
X165151390Y-83947000D01*
X165490155Y-84766872D01*
M02*
