M48
;DRILL file {KiCad 4.0.6} date 12/01/17 17:51:19
;FORMAT={-:-/ absolute / inch / decimal}
FMAT,2
INCH,TZ
T1C0.010
T2C0.035
T3C0.063
%
G90
G05
M72
T1
X4.54Y-3.775
X4.55Y-4.025
X4.55Y-4.075
X4.58Y-3.86
X4.6Y-3.975
X4.625Y-3.95
X4.725Y-4.175
X4.775Y-4.175
X4.85Y-3.9
X4.9Y-4.05
X4.9Y-4.125
X4.95Y-3.325
X4.95Y-3.695
X4.95Y-4.05
X4.96Y-3.785
X4.965Y-3.755
X4.97Y-3.725
X4.975Y-3.175
X5.02Y-3.43
X5.025Y-3.15
X5.04Y-3.8
X5.06Y-4.15
X5.1Y-3.43
X5.11Y-3.79
X5.11Y-4.34
X5.12Y-3.6
X5.12Y-3.64
X5.12Y-4.14
X5.15Y-3.99
X5.15Y-4.03
X5.15Y-4.36
X5.17Y-3.41
X5.18Y-3.82
X5.26Y-4.13
X5.29Y-3.46
X5.3Y-3.15
X5.3Y-3.4
X5.3Y-4.14
X5.301Y-3.765
X5.35Y-3.685
X5.35Y-4.14
X5.355Y-3.77
X5.3695Y-4.0805
X5.39Y-3.41
X5.41Y-3.77
X5.41Y-4.14
X5.415Y-3.58
X5.44Y-4.36
X5.445Y-3.955
X5.45Y-4.425
X5.475Y-3.275
X5.5Y-3.225
X5.525Y-3.925
X5.525Y-4.15
X5.55Y-3.425
X5.55Y-3.6
X5.56Y-3.7
X5.6Y-4.025
X5.61Y-3.7
X5.625Y-4.2
X5.675Y-3.6
X5.8Y-3.425
X5.95Y-3.575
X5.95Y-4.075
X6.Y-4.075
X6.075Y-3.5
X6.08Y-3.86
X6.125Y-3.35
X6.15Y-4.225
X6.3Y-4.375
X6.525Y-4.25
X6.525Y-4.35
T2
X6.2163Y-3.6574
X6.2163Y-3.7574
X6.2163Y-3.8574
X6.2163Y-3.9574
X6.3163Y-3.7074
X6.3163Y-3.8074
X6.3163Y-3.9074
X6.3163Y-4.0074
T3
X6.6864Y-3.5273
X6.6864Y-4.1375
T0
M30
